<?xml version="1.0" encoding="UTF-8"?>
<svg width="12px" height="12px" viewBox="0 0 12 12" version="1.1" xmlns="http://www.w3.org/2000/svg" xmlns:xlink="http://www.w3.org/1999/xlink">
    <!-- Generator: Sketch 62 (91390) - https://sketch.com -->
    <title>icon/12px/like_active copy</title>
    <desc>Created with Sketch.</desc>
    <g id="icon/12px/like_active-copy" stroke="none" stroke-width="1" fill="none" fill-rule="evenodd">
        <path d="M2.15625,4.75 C2.39062617,4.75 2.58984293,4.83203043 2.75390625,4.99609375 C2.91796957,5.16015707 3,5.35937383 3,5.59375 L3,9.90625 C3,10.1406262 2.91796957,10.3398429 2.75390625,10.5039063 C2.58984293,10.6679696 2.39062617,10.75 2.15625,10.75 L1.59375,10.75 C1.35937383,10.75 1.16015707,10.6679696 0.99609375,10.5039063 C0.83203043,10.3398429 0.75,10.1406262 0.75,9.90625 L0.75,5.59375 C0.75,5.35937383 0.83203043,5.16015707 0.99609375,4.99609375 C1.16015707,4.83203043 1.35937383,4.75 1.59375,4.75 L2.15625,4.75 Z M11.2148438,5.0546875 C11.2226563,5.07812512 11.2343749,5.11328102 11.25,5.16015625 L11.25,5.5 C11.2421875,5.50781254 11.2382812,5.51562496 11.2382812,5.5234375 C11.1835935,5.77343875 11.082032,5.98046793 10.9335938,6.14453125 C10.9179687,6.16796887 10.9179687,6.20312477 10.9335938,6.25 C10.9335938,6.26562508 10.9472655,6.32812445 10.9746094,6.4375 C11.0019533,6.54687555 11.015625,6.62890598 11.015625,6.68359375 C11.0234375,6.96484516 10.9257823,7.23437371 10.7226562,7.4921875 C10.6835936,7.53906273 10.6757811,7.58984348 10.6992188,7.64453125 C10.746094,7.79296949 10.7734375,7.90624961 10.78125,7.984375 C10.7968751,8.28906402 10.6953136,8.58593605 10.4765625,8.875 C10.4531249,8.9140627 10.4453125,8.94921859 10.453125,8.98046875 C10.5156253,9.14453207 10.5390626,9.33984262 10.5234375,9.56640625 C10.4999999,9.83203258 10.4140632,10.0585928 10.265625,10.2460937 C10.1171868,10.4335947 9.91797,10.5664059 9.66796875,10.6445312 C9.46484273,10.7148441 9.20703281,10.75 8.89453125,10.75 C8.30859082,10.75 6.78516855,10.75 4.32421875,10.75 C4.08984258,10.75 3.88867271,10.6679696 3.72070312,10.5039062 C3.55273354,10.3398429 3.46875,10.1406262 3.46875,9.90625 C3.47656254,9.02343309 3.48046875,7.47266734 3.48046875,5.25390625 C3.48046875,5.12109309 3.50781223,5.00781297 3.5625,4.9140625 C3.61718777,4.82031203 3.71093684,4.7031257 3.84375,4.5625 C4.03125094,4.35937398 4.14062484,4.23437523 4.171875,4.1875 C4.19531262,4.1484373 4.49218465,3.64062988 5.0625,2.6640625 C5.13281285,2.54687441 5.16406254,2.41796945 5.15625,2.27734375 C5.14843746,2.12109297 5.14062504,1.89453273 5.1328125,1.59765625 C5.12499996,1.30077977 5.12109375,1.11328164 5.12109375,1.03515625 C5.11328121,0.753904844 5.24218617,0.542969453 5.5078125,0.40234375 C5.89062691,0.207030273 6.28906043,0.195311641 6.703125,0.3671875 C6.90625102,0.45312543 7.04687461,0.605467656 7.125,0.82421875 C7.35937617,1.44922187 7.49999977,1.82812434 7.546875,1.9609375 C7.67187563,2.32812684 7.68750047,2.75390383 7.59375,3.23828125 C7.57812492,3.33203172 7.56054697,3.4335932 7.54101562,3.54296875 C7.52148428,3.6523443 7.50195322,3.77148373 7.48242188,3.90039062 C7.46289053,4.02929752 7.44531258,4.13281211 7.4296875,4.2109375 C7.42187496,4.26562527 7.42187496,4.29882807 7.4296875,4.31054687 C7.43750004,4.32226568 7.46875,4.328125 7.5234375,4.328125 C9.09375785,4.328125 9.97656152,4.328125 10.171875,4.328125 C10.3359383,4.328125 10.4999992,4.35156227 10.6640625,4.3984375 C10.9453139,4.50000051 11.1289058,4.71874832 11.2148438,5.0546875 Z" id="" fill="#F26861" fill-rule="nonzero"></path>
    </g>
</svg>