<?xml version="1.0" encoding="UTF-8"?>
<svg width="12px" height="12px" viewBox="0 0 12 12" version="1.1" xmlns="http://www.w3.org/2000/svg" xmlns:xlink="http://www.w3.org/1999/xlink">
    <title>icon/12px/监控设备列表/acitve</title>
    <g id="icon/12px/监控设备列表/acitve" stroke="none" stroke-width="1" fill="none" fill-rule="evenodd">
        <path d="M4,9.25 C3.86192881,9.25 3.75,9.13807119 3.75,9 C3.75,8.86192881 3.86192881,8.75 4,8.75 L4,8.75 L5.75,8.75 L5.75,8.25 L2.5,8.25 C2.08578644,8.25 1.75,7.91421356 1.75,7.5 L1.75,2.5 C1.75,2.08578644 2.08578644,1.75 2.5,1.75 L9.5,1.75 C9.91421356,1.75 10.25,2.08578644 10.25,2.5 L10.25,7.5 C10.25,7.91421356 9.91421356,8.25 9.5,8.25 L6.25,8.25 L6.25,8.75 L8,8.75 C8.11834673,8.75 8.21748682,8.83223341 8.24339732,8.94267729 L8.25,9 C8.25,9.13807119 8.13807119,9.25 8,9.25 L8,9.25 Z M9.75,7.25 L2.25,7.25 L2.25,7.5 C2.25,7.63807119 2.36192881,7.75 2.5,7.75 L9.5,7.75 C9.63807119,7.75 9.75,7.63807119 9.75,7.5 L9.75,7.25 Z M8.85,3.8 L6.9736068,5.2072949 L5.1118034,4.2763932 C5.02710739,4.2340452 4.92575441,4.24318419 4.85,4.3 L2.85,5.8 C2.73954305,5.88284271 2.71715729,6.03954305 2.8,6.15 C2.88284271,6.26045695 3.03954305,6.28284271 3.15,6.2 L5.0263932,4.7927051 L6.8881966,5.7236068 C6.97289261,5.7659548 7.07424559,5.75681581 7.15,5.7 L9.15,4.2 C9.26045695,4.11715729 9.28284271,3.96045695 9.2,3.85 C9.11715729,3.73954305 8.96045695,3.71715729 8.85,3.8 Z" id="形状结合" fill="#5063C2"></path>
    </g>
</svg>