<?xml version="1.0" encoding="UTF-8"?>
<svg width="12px" height="12px" viewBox="0 0 12 12" version="1.1" xmlns="http://www.w3.org/2000/svg" xmlns:xlink="http://www.w3.org/1999/xlink">
    <title>icon/12px/监控设备列表</title>
    <g id="icon/12px/监控设备列表" stroke="none" stroke-width="1" fill="none" fill-rule="evenodd">
        <rect id="矩形" x="0" y="0" width="12" height="12"></rect>
        <g id="编组" transform="translate(2.000000, 2.000000)" stroke="#5C6280" stroke-linecap="round" stroke-linejoin="round" stroke-width="0.5">
            <path d="M0.5,0 L7.5,0 C7.77614237,-5.07265313e-17 8,0.223857625 8,0.5 L8,5 L8,5 L0,5 L0,0.5 C-3.38176876e-17,0.223857625 0.223857625,5.07265313e-17 0.5,0 Z" id="矩形"></path>
            <path d="M0,5 L8,5 L8,5.5 C8,5.77614237 7.77614237,6 7.5,6 L0.5,6 C0.223857625,6 3.38176876e-17,5.77614237 0,5.5 L0,5 L0,5 Z" id="矩形"></path>
            <line x1="4" y1="6" x2="4" y2="7" id="路径-4"></line>
            <line x1="2" y1="7" x2="6" y2="7" id="路径-6"></line>
            <polyline id="路径" points="1 4 3 2.5 5 3.5 7 2"></polyline>
        </g>
    </g>
</svg>