<?xml version="1.0" encoding="UTF-8"?>
<svg width="12px" height="12px" viewBox="0 0 12 12" version="1.1" xmlns="http://www.w3.org/2000/svg" xmlns:xlink="http://www.w3.org/1999/xlink">
    <title>icon/12px/计算机路径</title>
    <g id="icon/12px/计算机路径" stroke="none" stroke-width="1" fill="none" fill-rule="evenodd">
        <rect id="矩形" x="0" y="0" width="12" height="12"></rect>
        <g id="编组" transform="translate(2.000000, 2.000000)" stroke="#5C6280" stroke-linecap="round" stroke-linejoin="round" stroke-width="0.5">
            <path d="M0.5,0 L7.5,0 C7.77614237,-5.07265313e-17 8,0.223857625 8,0.5 L8,5 L8,5 L0,5 L0,0.5 C-3.38176876e-17,0.223857625 0.223857625,5.07265313e-17 0.5,0 Z" id="矩形"></path>
            <path d="M0,5 L8,5 L8,5.5 C8,5.77614237 7.77614237,6 7.5,6 L0.5,6 C0.223857625,6 3.38176876e-17,5.77614237 0,5.5 L0,5 L0,5 Z" id="矩形"></path>
            <line x1="4" y1="6" x2="4" y2="7" id="路径-4"></line>
            <line x1="2" y1="7" x2="6" y2="7" id="路径-6"></line>
        </g>
        <path d="M3.76611328,6 L2.99853516,3.85253906 L3.46875,3.85253906 L4.01220703,5.44189453 L4.53808594,3.85253906 L4.99804688,3.85253906 L4.22900391,6 L3.76611328,6 Z M5.21923828,6 L5.21923828,3.85253906 L5.91503906,3.85253906 C6.17871226,3.85253906 6.35058554,3.86328114 6.43066406,3.88476562 C6.55371155,3.91699235 6.65673787,3.98706001 6.73974609,4.0949707 C6.82275432,4.2028814 6.86425781,4.3422843 6.86425781,4.51318359 C6.86425781,4.64502019 6.84033227,4.75585893 6.79248047,4.84570312 C6.74462867,4.93554732 6.68383826,5.00610326 6.61010742,5.05737305 C6.53637658,5.10864283 6.46142616,5.14257804 6.38525391,5.15917969 C6.3076168,5.17456062 6.2038883,5.18417362 6.0740665,5.18801881 L5.65283203,5.18994141 L5.65283203,6 L5.21923828,6 Z M5.65283203,4.21582031 L5.65283203,4.82519531 L5.89013672,4.82519531 L6.06802763,4.81980472 C6.14337908,4.81441412 6.19833967,4.80498054 6.23291016,4.79150391 C6.29052763,4.76904286 6.3356932,4.73388696 6.3684082,4.68603516 C6.40112321,4.63818335 6.41748047,4.58251985 6.41748047,4.51904297 C6.41748047,4.44091758 6.39453148,4.3764651 6.34863281,4.32568359 C6.30273415,4.27490209 6.24462926,4.24316413 6.17431641,4.23046875 L6.05749531,4.2194824 C6.00549349,4.217041 5.94043008,4.21582031 5.86230469,4.21582031 L5.65283203,4.21582031 Z M7.22460938,6 L7.22460938,3.85253906 L7.64648438,3.85253906 L8.52539062,5.28662109 L8.52539062,3.85253906 L8.92822266,3.85253906 L8.92822266,6 L8.49316406,6 L7.62744141,4.59960938 L7.62744141,6 L7.22460938,6 Z" id="VPN" fill="#5C6280" fill-rule="nonzero"></path>
    </g>
</svg>