<?xml version="1.0" encoding="UTF-8"?>
<svg width="12px" height="12px" viewBox="0 0 12 12" version="1.1" xmlns="http://www.w3.org/2000/svg" xmlns:xlink="http://www.w3.org/1999/xlink">
    <!-- Generator: Sketch 62 (91390) - https://sketch.com -->
    <title>icon/12px/dislike_normal</title>
    <desc>Created with Sketch.</desc>
    <g id="icon/12px/dislike_normal" stroke="none" stroke-width="1" fill="none" fill-rule="evenodd">
        <path d="M11.25,5.875 L11.2265625,5.93359375 L11.2265625,5.96875 L11.203125,6.015625 C11.0937495,6.46875227 10.8359395,6.76953051 10.4296875,6.91796875 C10.2421866,6.98046906 10.046876,7.01171875 9.84375,7.01171875 L7.8046875,7.01171875 C7.82812512,7.18359461 7.85546859,7.34374926 7.88671875,7.4921875 C7.98828176,8.01562762 7.9687507,8.48437293 7.828125,8.8984375 C7.75781215,9.08593844 7.66406309,9.33984215 7.546875,9.66015625 L7.44140625,9.94140625 C7.31640562,10.2539078 7.10547023,10.4765618 6.80859375,10.609375 C6.58203012,10.7031255 6.35156367,10.75 6.1171875,10.75 C5.85156117,10.75 5.59375125,10.6835944 5.34375,10.5507812 C4.94531051,10.3398427 4.75,10.0156272 4.7578125,9.578125 C4.76562504,9.3984366 4.76953125,9.25781301 4.76953125,9.15625 C4.77734379,8.82812336 4.78515621,8.58593828 4.79296875,8.4296875 C4.79296875,8.3906248 4.78515633,8.3515627 4.76953125,8.3125 C4.74609363,8.2734373 4.70507842,8.20312551 4.64648438,8.1015625 C4.58789033,7.99999949 4.54296891,7.92187527 4.51171875,7.8671875 C4.23827988,7.39062262 4.0312507,7.03906363 3.890625,6.8125 C3.79687453,6.6718743 3.66211025,6.55273486 3.48632812,6.45507812 C3.310546,6.35742139 3.18359414,6.30078133 3.10546875,6.28515625 C3.02734336,6.26953117 2.96484398,6.25781254 2.91796875,6.25 L1.59375,6.25 C1.35937383,6.25 1.16015707,6.16796957 0.99609375,6.00390625 C0.83203043,5.83984293 0.75,5.64062617 0.75,5.40625 L0.75,1.09375 C0.75,0.859373828 0.83203043,0.66015707 0.99609375,0.49609375 C1.16015707,0.33203043 1.35937383,0.25 1.59375,0.25 L8.6484375,0.25 C8.97656414,0.25 9.25781133,0.289062109 9.4921875,0.3671875 C9.80468906,0.468750508 10.0566397,0.640623789 10.2480469,0.8828125 C10.4394541,1.12500121 10.5468749,1.4062484 10.5703125,1.7265625 C10.5937501,1.91406344 10.5859377,2.09374914 10.546875,2.265625 C10.7421885,2.57812656 10.8320313,2.90234207 10.8164062,3.23828125 C10.8085937,3.33984426 10.7890627,3.43749953 10.7578125,3.53125 C10.953126,3.81250141 11.0429688,4.10937344 11.0273438,4.421875 C11.0273438,4.54687563 11.0078127,4.66406195 10.96875,4.7734375 C11.0781255,4.92968828 11.1562498,5.10156156 11.203125,5.2890625 L11.25,5.359375 L11.25,5.875 Z M2.90625,5.40625 L2.90625,1.09375 L1.59375,1.09375 L1.59375,5.40625 L2.90625,5.40625 Z M10.40625,5.74609375 L10.40625,5.58203125 L10.3828125,5.48828125 C10.3593749,5.40234332 10.324219,5.32031289 10.2773438,5.2421875 L10.0546875,4.9140625 L10.1601562,4.5390625 C10.1757813,4.49218727 10.1835938,4.44140652 10.1835938,4.38671875 C10.1914063,4.25390559 10.148438,4.12500063 10.0546875,4 L9.84375,3.671875 L9.94921875,3.28515625 C9.96484383,3.25390609 9.97265625,3.2187502 9.97265625,3.1796875 C9.98046879,3.03124926 9.93359426,2.87890703 9.83203125,2.72265625 L9.64453125,2.4296875 L9.71484375,2.13671875 L9.71484375,2.08984375 C9.73828137,1.99609328 9.74609379,1.90234422 9.73828125,1.80859375 L9.73828125,1.796875 C9.72265617,1.64062422 9.67187543,1.51171926 9.5859375,1.41015625 C9.49999957,1.29296816 9.38281324,1.21093773 9.234375,1.1640625 C9.08593676,1.11718727 8.89062621,1.09375 8.6484375,1.09375 L3.75,1.09375 L3.76171875,5.640625 C4.12109555,5.81250086 4.39843652,6.05468594 4.59375,6.3671875 L4.60546875,6.3671875 C4.75390699,6.60937621 4.96093617,6.96484141 5.2265625,7.43359375 L5.23828125,7.45703125 C5.24609379,7.46484379 5.30078074,7.55859285 5.40234375,7.73828125 C5.41015629,7.75390633 5.42578113,7.7792967 5.44921875,7.81445312 C5.47265637,7.84960955 5.48828121,7.87499992 5.49609375,7.890625 C5.6054693,8.07812594 5.65234383,8.2773427 5.63671875,8.48828125 C5.62890621,8.62890695 5.62109379,8.85156098 5.61328125,9.15625 L5.61328125,9.16796875 C5.61328125,9.2773443 5.60937504,9.4218741 5.6015625,9.6015625 C5.6015625,9.65625027 5.60937492,9.69531238 5.625,9.71875 C5.64843762,9.75000016 5.68749973,9.78124984 5.7421875,9.8125 C5.86718813,9.87500031 5.99218687,9.90625 6.1171875,9.90625 C6.23437559,9.90625 6.35546812,9.87890652 6.48046875,9.82421875 C6.55859414,9.79296859 6.61328109,9.73046922 6.64453125,9.63671875 C6.65234379,9.62890621 6.66992174,9.5898441 6.69726562,9.51953125 C6.72460951,9.4492184 6.74218746,9.39453145 6.75,9.35546875 C6.87500063,9.04296719 6.96874969,8.7968759 7.03125,8.6171875 C7.12500047,8.35156117 7.13281289,8.03125188 7.0546875,7.65625 C7.03124988,7.52343684 7.00390641,7.35546977 6.97265625,7.15234375 L6.80859375,6.16796875 L9.84375,6.16796875 C9.94531301,6.16796875 10.0468745,6.15234391 10.1484375,6.12109375 C10.2656256,6.07421852 10.3437498,5.96875082 10.3828125,5.8046875 C10.390625,5.8046875 10.3945312,5.79687508 10.3945312,5.78125 C10.4023438,5.76562492 10.40625,5.75390629 10.40625,5.74609375 Z" id="" fill="#999999" fill-rule="nonzero"></path>
    </g>
</svg>