<?xml version="1.0" encoding="UTF-8"?>
<svg width="12px" height="12px" viewBox="0 0 12 12" version="1.1" xmlns="http://www.w3.org/2000/svg" xmlns:xlink="http://www.w3.org/1999/xlink">
    <title>icon/12px/装机列表</title>
    <g id="icon/12px/装机列表" stroke="none" stroke-width="1" fill="none" fill-rule="evenodd">
        <path d="M11,5.5 C11.2761424,5.5 11.5,5.72385763 11.5,6 L11.5,10.5 C11.5,10.7761424 11.2761424,11 11,11 L7,11 C6.72385763,11 6.5,10.7761424 6.5,10.5 L6.5,6 C6.5,5.72385763 6.72385763,5.5 7,5.5 L11,5.5 Z M6,0.5 C8.48528137,0.5 10.5,2.51471863 10.5,5 L10,5 C10,2.790861 8.209139,1 6,1 C3.790861,1 2,2.790861 2,5 C2,7.209139 3.790861,9 6,9 L6,9.5 C3.73574855,9.5 1.86208225,7.8277062 1.54672025,5.65083776 L1.5505763,5.67691584 L1.5505763,5.67691584 L1,5.86037961 L1,10.5 L6,10.499 L6,10.999 L1,11 C0.754540111,11 0.55039163,10.8231248 0.508055669,10.5898756 L0.5,10.5 L0.5,5.86037961 C0.5,5.67590944 0.601178402,5.50917902 0.758660718,5.42244839 L0.841886117,5.38603796 L1.503,5.165 L1.5,5 L1.5,5 C1.5,2.51471863 3.51471863,0.5 6,0.5 Z M11,6 L7,6 L7,10.5 L11,10.5 L11,6 Z M9.75,9 C9.88807119,9 10,9.11192881 10,9.25 C10,9.38807119 9.88807119,9.5 9.75,9.5 L8.25,9.5 C8.11192881,9.5 8,9.38807119 8,9.25 C8,9.11192881 8.11192881,9 8.25,9 L9.75,9 Z M9.75,8 C9.88807119,8 10,8.11192881 10,8.25 C10,8.38807119 9.88807119,8.5 9.75,8.5 L8.25,8.5 C8.11192881,8.5 8,8.38807119 8,8.25 C8,8.11192881 8.11192881,8 8.25,8 L9.75,8 Z M9.75,7 C9.88807119,7 10,7.11192881 10,7.25 C10,7.38807119 9.88807119,7.5 9.75,7.5 L8.25,7.5 C8.11192881,7.5 8,7.38807119 8,7.25 C8,7.11192881 8.11192881,7 8.25,7 L9.75,7 Z M6,3 C7.1045695,3 8,3.8954305 8,5 L7.5,5 C7.5,4.17157288 6.82842712,3.5 6,3.5 C5.17157288,3.5 4.5,4.17157288 4.5,5 C4.5,5.82842712 5.17157288,6.5 6,6.5 L6,7 C4.8954305,7 4,6.1045695 4,5 C4,3.8954305 4.8954305,3 6,3 Z" id="形状结合" fill="#5C6280" fill-rule="nonzero"></path>
    </g>
</svg>