<?xml version="1.0" encoding="UTF-8"?>
<svg width="12px" height="12px" viewBox="0 0 12 12" version="1.1" xmlns="http://www.w3.org/2000/svg" xmlns:xlink="http://www.w3.org/1999/xlink">
    <title>icon/12px/计算机备份 2</title>
    <g id="icon/12px/计算机备份-2" stroke="none" stroke-width="1" fill="none" fill-rule="evenodd">
        <rect id="矩形" x="0" y="0" width="12" height="12"></rect>
        <g id="编组" transform="translate(0.500000, 2.500000)">
            <rect id="矩形" stroke="#5C6280" stroke-width="0.5" x="1.7526087" y="0.25" width="7.26347826" height="6.61379962" rx="1.6"></rect>
            <ellipse id="椭圆形" stroke="#5C6280" stroke-width="0.5" fill="#5C6280" cx="3.63130435" cy="3.42986767" rx="1" ry="1"></ellipse>
            <ellipse id="椭圆形" stroke="#5C6280" stroke-width="0.5" fill="#5C6280" cx="7.38782609" cy="3.42986767" rx="1" ry="1"></ellipse>
            <path d="M10.2489048,3.5070502 L10.5273346,4.05595463 L10.5273346,4.05595463 L9.25701323,4.05595463 L9.53544302,3.5070502 C9.63537919,3.31003317 9.87610733,3.23133358 10.0731244,3.33126976 C10.1489001,3.36970672 10.2104678,3.43127447 10.2489048,3.5070502 Z" id="三角形" fill="#5C6280" transform="translate(9.892174, 3.429868) rotate(-270.000000) translate(-9.892174, -3.429868) "></path>
            <path d="M1.23325264,3.5070502 L1.51168242,4.05595463 L1.51168242,4.05595463 L0.241361059,4.05595463 L0.519790842,3.5070502 C0.619727019,3.31003317 0.86045516,3.23133358 1.05747219,3.33126976 C1.13324792,3.36970672 1.19481567,3.43127447 1.23325264,3.5070502 Z" id="三角形" fill="#5C6280" transform="translate(0.876522, 3.429868) scale(-1, 1) rotate(-270.000000) translate(-0.876522, -3.429868) "></path>
            <ellipse id="椭圆形" stroke="#5C6280" stroke-width="0.5" fill="#5C6280" cx="10.6434783" cy="3.42986767" rx="1" ry="1"></ellipse>
            <ellipse id="椭圆形" stroke="#5C6280" stroke-width="0.5" fill="#5C6280" cx="0.125217391" cy="3.42986767" rx="1" ry="1"></ellipse>
        </g>
    </g>
</svg>