<?xml version="1.0" encoding="UTF-8"?>
<svg width="12px" height="12px" viewBox="0 0 12 12" version="1.1" xmlns="http://www.w3.org/2000/svg" xmlns:xlink="http://www.w3.org/1999/xlink">
    <title>icon/12px/VPN管理</title>
    <g id="icon/12px/VPN管理" stroke="none" stroke-width="1" fill="none" fill-rule="evenodd">
        <path d="M4,9.25 C3.86192881,9.25 3.75,9.13807119 3.75,9 C3.75,8.88165327 3.83223341,8.78251318 3.94267729,8.75660268 L4,8.75 L5.75,8.75 L5.75,8.25 L2.5,8.25 C2.08578644,8.25 1.75,7.91421356 1.75,7.5 L1.75,2.5 C1.75,2.08578644 2.08578644,1.75 2.5,1.75 L9.5,1.75 C9.91421356,1.75 10.25,2.08578644 10.25,2.5 L10.25,7.5 C10.25,7.91421356 9.91421356,8.25 9.5,8.25 L6.25,8.25 L6.25,8.75 L8,8.75 C8.13807119,8.75 8.25,8.86192881 8.25,9 C8.25,9.11834673 8.16776659,9.21748682 8.05732271,9.24339732 L8,9.25 L4,9.25 Z M9.75,7.25 L2.25,7.25 L2.25,7.5 C2.25,7.63807119 2.36192881,7.75 2.5,7.75 L9.5,7.75 C9.63807119,7.75 9.75,7.63807119 9.75,7.5 L9.75,7.25 Z M9.5,2.25 L2.5,2.25 C2.36192881,2.25 2.25,2.36192881 2.25,2.5 L2.25,6.75 L9.75,6.75 L9.75,2.5 C9.75,2.36192881 9.63807119,2.25 9.5,2.25 Z M3.46875,3.85253906 L4.01220703,5.44189453 L4.53808594,3.85253906 L4.99804688,3.85253906 L4.22900391,6 L3.76611328,6 L2.99853516,3.85253906 L3.46875,3.85253906 Z M5.91503906,3.85253906 C6.17871226,3.85253906 6.35058554,3.86328114 6.43066406,3.88476562 C6.55371155,3.91699235 6.65673787,3.98706001 6.73974609,4.0949707 C6.82275432,4.2028814 6.86425781,4.3422843 6.86425781,4.51318359 C6.86425781,4.64502019 6.84033227,4.75585893 6.79248047,4.84570312 C6.74462867,4.93554732 6.68383826,5.00610326 6.61010742,5.05737305 C6.53637658,5.10864283 6.46142616,5.14257804 6.38525391,5.15917969 C6.3076168,5.17456062 6.2038883,5.18417362 6.0740665,5.18801881 L5.65283203,5.18994141 L5.65283203,6 L5.21923828,6 L5.21923828,3.85253906 L5.91503906,3.85253906 Z M7.64648438,3.85253906 L8.52539062,5.28662109 L8.52539062,3.85253906 L8.92822266,3.85253906 L8.92822266,6 L8.49316406,6 L7.62744141,4.59960938 L7.62744141,6 L7.22460938,6 L7.22460938,3.85253906 L7.64648438,3.85253906 Z M5.86230469,4.21582031 L5.65283203,4.21582031 L5.65283203,4.82519531 L5.89013672,4.82519531 L6.06802763,4.81980472 C6.14337908,4.81441412 6.19833967,4.80498054 6.23291016,4.79150391 C6.29052763,4.76904286 6.3356932,4.73388696 6.3684082,4.68603516 C6.40112321,4.63818335 6.41748047,4.58251985 6.41748047,4.51904297 C6.41748047,4.44091758 6.39453148,4.3764651 6.34863281,4.32568359 C6.30273415,4.27490209 6.24462926,4.24316413 6.17431641,4.23046875 L6.05749531,4.2194824 C6.00549349,4.217041 5.94043008,4.21582031 5.86230469,4.21582031 Z" id="形状结合" fill="#5C6280" fill-rule="nonzero"></path>
    </g>
</svg>