<?xml version="1.0" encoding="UTF-8"?>
<svg width="12px" height="12px" viewBox="0 0 12 12" version="1.1" xmlns="http://www.w3.org/2000/svg" xmlns:xlink="http://www.w3.org/1999/xlink">
    <title>icon/12px/装机列表/acitve</title>
    <g id="icon/12px/装机列表/acitve" stroke="none" stroke-width="1" fill="none" fill-rule="evenodd">
        <path d="M10.5,6 C10.7761424,6 11,6.22385763 11,6.5 L11,10.5 C11,10.7761424 10.7761424,11 10.5,11 L7.5,11 C7.22385763,11 7,10.7761424 7,10.5 L7,6.5 C7,6.22385763 7.22385763,6 7.5,6 L10.5,6 Z M1.503,5.165 L1.50489799,5.2118357 C1.61551091,7.59876348 3.58572667,9.5 6,9.5 C6.16938187,9.5 6.336578,9.4906417 6.50109953,9.47241393 L6.5,10.999 L1,11 C0.754540111,11 0.55039163,10.8231248 0.508055669,10.5898756 L0.5,10.5 L0.5,5.86037961 C0.5,5.67590944 0.601178402,5.50917902 0.758660718,5.42244839 L0.841886117,5.38603796 L1.503,5.165 Z M9.75,9 L8.25,9 C8.11192881,9 8,9.11192881 8,9.25 C8,9.38807119 8.11192881,9.5 8.25,9.5 L8.25,9.5 L9.75,9.5 C9.88807119,9.5 10,9.38807119 10,9.25 C10,9.11192881 9.88807119,9 9.75,9 L9.75,9 Z M6,1 C8.209139,1 10,2.790861 10,5 C10,5.16959047 9.98944596,5.33671591 9.96895886,5.50075535 L7.93672788,5.50102216 C7.97803011,5.34090449 8,5.17301792 8,5 C8,3.8954305 7.1045695,3 6,3 C4.8954305,3 4,3.8954305 4,5 C4,6.1045695 4.8954305,7 6,7 C6.17301792,7 6.34090449,6.97803011 6.50102216,6.93672788 L6.50075535,8.96895886 C6.33671591,8.98944596 6.16959047,9 6,9 C3.790861,9 2,7.209139 2,5 C2,2.790861 3.790861,1 6,1 Z M9.75,8 L8.25,8 C8.11192881,8 8,8.11192881 8,8.25 C8,8.38807119 8.11192881,8.5 8.25,8.5 L8.25,8.5 L9.75,8.5 C9.88807119,8.5 10,8.38807119 10,8.25 C10,8.11192881 9.88807119,8 9.75,8 L9.75,8 Z M9.75,7 L8.25,7 C8.11192881,7 8,7.11192881 8,7.25 C8,7.38807119 8.11192881,7.5 8.25,7.5 L8.25,7.5 L9.75,7.5 C9.88807119,7.5 10,7.38807119 10,7.25 C10,7.11192881 9.88807119,7 9.75,7 L9.75,7 Z M6,3.5 C6.82842712,3.5 7.5,4.17157288 7.5,5 C7.5,5.17744039 7.46919016,5.34768475 7.41262831,5.50567525 C6.93978759,5.54563182 6.56225946,5.91404095 6.50697609,6.38126755 L6.504,6.412 L6.34378746,6.46041883 C6.23338895,6.48630674 6.11829359,6.5 6,6.5 C5.17157288,6.5 4.5,5.82842712 4.5,5 C4.5,4.17157288 5.17157288,3.5 6,3.5 Z M10.497,5.16586092 L11.1581139,5.38603796 C11.2298747,5.40995823 11.2934259,5.4490747 11.3456736,5.49909469 L10.4724563,5.50071682 C10.4846852,5.39025434 10.4929158,5.27858639 10.497,5.16586092 Z" id="形状结合" fill="#5063C2"></path>
    </g>
</svg>