<?xml version="1.0" encoding="UTF-8"?>
<svg width="12px" height="12px" viewBox="0 0 12 12" version="1.1" xmlns="http://www.w3.org/2000/svg" xmlns:xlink="http://www.w3.org/1999/xlink">
    <title>icon/12px/email</title>
    <g id="icon/12px/email" stroke="none" stroke-width="1" fill="none" fill-rule="evenodd">
        <path d="M9.5,2.75 C9.91421356,2.75 10.25,3.08578644 10.25,3.5 L10.25,8.5 C10.25,8.91421356 9.91421356,9.25 9.5,9.25 L2.5,9.25 C2.08578644,9.25 1.75,8.91421356 1.75,8.5 L1.75,3.5 C1.75,3.08578644 2.08578644,2.75 2.5,2.75 L9.5,2.75 Z M9.74940247,3.48221751 C9.75530304,3.56609807 9.71874871,3.65097682 9.64530955,3.70343337 L9.64530955,3.70343337 L6.43592865,5.9958483 C6.1751555,6.18211483 5.8248445,6.18211483 5.56407135,5.9958483 L5.56407135,5.9958483 L2.35469045,3.70343337 C2.28271422,3.65202177 2.24616794,3.56946683 2.2502954,3.48723122 L2.25,3.5 L2.25,3.5 L2.25,8.5 C2.25,8.63807119 2.36192881,8.75 2.5,8.75 L9.5,8.75 C9.63807119,8.75 9.75,8.63807119 9.75,8.5 L9.75,3.5 Z M9.5,3.25 L2.5,3.25 L2.47773944,3.2509886 C2.53518781,3.24582658 2.59469212,3.26041132 2.64530955,3.29656663 L2.64530955,3.29656663 L5.85469045,5.58898156 C5.94161483,5.65107041 6.05838517,5.65107041 6.14530955,5.58898156 L6.14530955,5.58898156 L9.35469045,3.29656663 C9.40560047,3.26020233 9.4655004,3.24565869 9.52325657,3.2510801 L9.5,3.25 L9.5,3.25 Z" id="形状结合" fill="#5C6280" fill-rule="nonzero"></path>
    </g>
</svg>