<?xml version="1.0" encoding="UTF-8"?>
<svg width="12px" height="12px" viewBox="0 0 12 12" version="1.1" xmlns="http://www.w3.org/2000/svg" xmlns:xlink="http://www.w3.org/1999/xlink">
    <title>icon/12px/计算机备份</title>
    <g id="icon/12px/计算机备份" stroke="none" stroke-width="1" fill="none" fill-rule="evenodd">
        <rect id="矩形" x="0" y="0" width="12" height="12"></rect>
        <g id="编组-2" transform="translate(2.000000, 2.000000)" stroke="#FFFFFF">
            <path d="M1.64823453,0.31976313 L0.263130794,0.688637816 L0.729237398,7.68023687 L2.11434113,7.31136218 L1.64823453,0.31976313 Z" id="矩形" stroke-width="0.5"></path>
            <line x1="0.950012207" y1="1.14285714" x2="1.43377686" y2="1.14285714" id="直线-2" stroke-width="0.4" stroke-linecap="round"></line>
            <line x1="0.950012207" y1="2.0952381" x2="1.43377686" y2="2.0952381" id="直线-2" stroke-width="0.4" stroke-linecap="round"></line>
            <line x1="0.950012207" y1="3.04761905" x2="1.43377686" y2="3.04761905" id="直线-2" stroke-width="0.4" stroke-linecap="round"></line>
        </g>
        <g id="编组-2" transform="translate(5.000000, 2.000000)" stroke="#FFFFFF">
            <path d="M1.64823453,0.31976313 L0.263130794,0.688637816 L0.729237398,7.68023687 L2.11434113,7.31136218 L1.64823453,0.31976313 Z" id="矩形" stroke-width="0.5"></path>
            <line x1="0.950012207" y1="1.14285714" x2="1.43377686" y2="1.14285714" id="直线-2" stroke-width="0.4" stroke-linecap="round"></line>
            <line x1="0.950012207" y1="2.0952381" x2="1.43377686" y2="2.0952381" id="直线-2" stroke-width="0.4" stroke-linecap="round"></line>
            <line x1="0.950012207" y1="3.04761905" x2="1.43377686" y2="3.04761905" id="直线-2" stroke-width="0.4" stroke-linecap="round"></line>
        </g>
        <g id="编组-2" transform="translate(8.000000, 2.000000)" stroke="#FFFFFF">
            <path d="M1.64823453,0.31976313 L0.263130794,0.688637816 L0.729237398,7.68023687 L2.11434113,7.31136218 L1.64823453,0.31976313 Z" id="矩形" stroke-width="0.5"></path>
            <line x1="0.950012207" y1="1.14285714" x2="1.43377686" y2="1.14285714" id="直线-2" stroke-width="0.4" stroke-linecap="round"></line>
            <line x1="0.950012207" y1="2.0952381" x2="1.43377686" y2="2.0952381" id="直线-2" stroke-width="0.4" stroke-linecap="round"></line>
            <line x1="0.950012207" y1="3.04761905" x2="1.43377686" y2="3.04761905" id="直线-2" stroke-width="0.4" stroke-linecap="round"></line>
        </g>
    </g>
</svg>