<?xml version="1.0" encoding="UTF-8"?>
<svg width="12px" height="12px" viewBox="0 0 12 12" version="1.1" xmlns="http://www.w3.org/2000/svg" xmlns:xlink="http://www.w3.org/1999/xlink">
    <title>icon/12px/wechat</title>
    <g id="icon/12px/wechat" stroke="none" stroke-width="1" fill="none" fill-rule="evenodd">
        <path d="M9.83126214,10 L9.83126216,10 C9.79054748,9.99969417 9.75054739,9.98957736 9.71484888,9.97055663 L8.87350776,9.52390351 C8.5614455,9.59899713 8.22974773,9.6721626 7.89617232,9.6721626 C7.26614563,9.6721626 6.65860025,9.51342917 6.1381123,9.21216898 C5.62251438,8.91377495 5.23019587,8.49797182 5.00327569,8.00899895 C4.98396289,8.01540874 4.96395269,8.01936927 4.9436206,8.02088052 L4.9436208,8.0208805 C4.83202944,8.03030865 4.72007345,8.03507262 4.60806089,8.03515923 C4.23044177,8.03515923 3.9271233,7.97434434 3.57493291,7.90446153 L3.46147021,7.88262653 L2.35741757,8.4186001 L2.35741759,8.41860009 C2.32361222,8.43470316 2.28648747,8.44314869 2.24883652,8.44330126 L2.24883651,8.44330126 C2.11539147,8.44366696 2.00690785,8.33887948 2.00653169,8.2092515 C2.00645785,8.18382545 2.01063754,8.15855655 2.01890741,8.13443279 L2.30017732,7.3133538 C1.44998449,6.68800788 1,5.89356207 1,5.01828135 C1,3.35423422 2.61916544,2 4.61004362,2 C6.36322095,2 7.92267304,3.06251809 8.24208028,4.47282377 C8.9699587,4.54411321 9.65185606,4.83776564 10.1645066,5.30250127 C10.7035487,5.79100086 11,6.41629691 11,7.06347497 C11,7.75343997 10.5949676,8.45336328 9.85828991,9.03451565 L10.0632736,9.69785153 L10.0632736,9.69785154 C10.0917869,9.7889209 10.0604177,9.88768128 9.9840375,9.94731204 L9.98403749,9.94731205 C9.94052375,9.98067015 9.88684209,9.99905424 9.83141271,9.99958055 L9.83141271,10 L9.83126214,10 Z M8.90676868,9.03774897 L8.90676867,9.03774897 C8.94750127,9.03792261 8.98753425,9.04804783 9.02318194,9.06719234 L9.42918035,9.28293668 L9.34602801,9.01398602 L9.34602801,9.01398602 C9.31697551,8.92005589 9.35112436,8.81848196 9.4316481,8.7593143 C10.1301812,8.24851132 10.5146717,7.64645505 10.5146717,7.06196425 C10.5146717,5.90251958 9.31620298,4.92270919 7.89666182,4.92270919 C6.4497001,4.92270919 5.27275295,5.88256327 5.27275295,7.06196425 C5.27275295,8.24136829 6.45019256,9.2026239 7.89714381,9.2026239 C8.20920606,9.2026239 8.53403664,9.12278807 8.84711944,9.0458182 L8.84711944,9.0458182 C8.86658857,9.04081889 8.88663671,9.03826196 8.90677443,9.03820983 L8.90677443,9.03774082 L8.90676868,9.03774897 Z M4.60988005,2.47036489 C2.88556923,2.47036489 1.48313843,3.61365683 1.48313843,5.01823221 C1.48313843,5.79657923 1.90185068,6.47414622 2.72758398,7.03393463 L2.72758398,7.03393463 C2.81579209,7.09329292 2.85290029,7.20219991 2.81856873,7.30095754 L2.66594395,7.74667325 L3.32241782,7.42732953 L3.32241779,7.42732954 C3.35576726,7.41092734 3.39265291,7.40246085 3.4300328,7.40262838 C3.44644868,7.40278471 3.46281091,7.40434808 3.47895856,7.40737058 L3.67069197,7.44536035 C3.99648861,7.51091745 4.27727443,7.56699033 4.60988378,7.56699033 C4.68911991,7.56699033 4.76883928,7.56412417 4.84861146,7.55938196 L4.84861145,7.55938191 C4.81025156,7.39695991 4.79056795,7.23090431 4.78992199,7.06426448 C4.78992199,6.37336106 5.1098175,5.72190817 5.69000622,5.23006912 C6.23790007,4.76679202 6.96475376,4.49356756 7.737643,4.4602687 C7.40599971,3.30571973 6.09304778,2.47036489 4.60988503,2.47036489 L4.60988005,2.47036489 Z M8.81964523,6.73980627 C8.60242966,6.73980627 8.39701635,6.53927827 8.39701635,6.32733853 C8.39701635,6.11826495 8.60639972,5.91299494 8.81964523,5.91299494 C9.13562411,5.91299494 9.33036152,6.12774895 9.33036152,6.32733853 C9.33036152,6.5269281 9.13471253,6.73980627 8.81964523,6.73980627 Z M6.96770354,6.73980627 C6.7485569,6.73980627 6.54212409,6.53927827 6.54212409,6.32733853 C6.54212409,6.11826495 6.75247247,5.91299494 6.96770354,5.91299494 C7.28175135,5.91299494 7.47643532,6.12774895 7.47643532,6.32733853 C7.47643532,6.5269281 7.28271741,6.73980627 6.96770354,6.73980627 Z M5.87293429,4.53025069 C5.58726578,4.53025069 5.2780996,4.34113545 5.2780996,4.03513326 C5.2780996,3.8926065 5.3466064,3.76331644 5.4708525,3.67019139 L5.47085252,3.67019138 C5.58713901,3.58644205 5.72817422,3.54143974 5.87293431,3.54188828 C6.17866688,3.54188828 6.3826311,3.74049089 6.3826311,4.03513325 C6.3826311,4.32685752 6.17324773,4.53025069 5.87293431,4.53025069 L5.87293429,4.53025069 Z M3.51516319,4.53025069 C3.22852861,4.53025069 2.91839743,4.34113545 2.91839743,4.03513326 C2.91839743,3.72913106 3.2275636,3.54189166 3.51516319,3.54189166 C3.81944667,3.54189166 4.02389497,3.7404909 4.02389497,4.03513326 C4.02389497,4.32685754 3.8145116,4.53025069 3.51516319,4.53025069 Z" id="形状" fill="#5C6280" fill-rule="nonzero"></path>
    </g>
</svg>