<?xml version="1.0" encoding="UTF-8"?>
<svg width="12px" height="12px" viewBox="0 0 12 12" version="1.1" xmlns="http://www.w3.org/2000/svg" xmlns:xlink="http://www.w3.org/1999/xlink">
    <title>icon/12px/计算机备份 3</title>
    <g id="icon/12px/计算机备份-3" stroke="none" stroke-width="1" fill="none" fill-rule="evenodd">
        <rect id="矩形" x="0" y="0" width="12" height="12"></rect>
        <path d="M7.07920296,2.14733692 C7.19047722,2.48229805 7.4204975,2.77867273 7.75,2.96891109 C8.04541603,3.13946961 8.37473306,3.19812057 8.688863,3.15801706 L8.79690262,3.13905128 C9.3298336,3.65930233 9.6967042,4.31026783 9.87548649,5.00973843 C9.64126987,5.27308475 9.5,5.6200447 9.5,6 C9.5,6.38025534 9.64149307,6.7274632 9.87470173,6.99184611 C9.78777275,7.33663993 9.65118185,7.67596752 9.46410162,8 C9.2772023,8.3237191 9.05188678,8.61143046 8.7972383,8.86070021 C8.45074815,8.7898939 8.07931078,8.84096124 7.75,9.03108891 C7.42120007,9.22092164 7.19145857,9.51643857 7.07891068,9.84995836 C6.38500111,10.0463058 5.63781316,10.0540693 4.92079704,9.85266308 C4.80952278,9.51770195 4.5795025,9.22132727 4.25,9.03108891 C3.9204975,8.84085056 3.54881936,8.78983449 3.20308171,8.85978906 C2.6701664,8.34069767 2.3032958,7.68973217 2.12451351,6.99026157 C2.35894558,6.72638589 2.5,6.37966546 2.5,6 C2.5,5.61974466 2.35850693,5.2725368 2.12529827,5.00815389 C2.21249149,4.66270375 2.34899907,4.3237191 2.53589838,4 C2.72297862,3.67596752 2.94854949,3.38801254 3.20350133,3.13857598 C3.54925185,3.2101061 3.92068922,3.15903876 4.25,2.96891109 C4.57905094,2.77893344 4.80889214,2.48311017 4.92134687,2.14927775 C5.61499889,1.95369417 6.36218684,1.94593068 7.07920296,2.14733692 Z M6,4.5 C5.17157288,4.5 4.5,5.17157288 4.5,6 C4.5,6.82842712 5.17157288,7.5 6,7.5 C6.82842712,7.5 7.5,6.82842712 7.5,6 C7.5,5.17157288 6.82842712,4.5 6,4.5 Z" id="形状结合" stroke="#5C6280" stroke-width="0.5" stroke-linecap="round" stroke-linejoin="round"></path>
    </g>
</svg>