<?xml version="1.0" encoding="UTF-8"?>
<svg width="12px" height="12px" viewBox="0 0 12 12" version="1.1" xmlns="http://www.w3.org/2000/svg" xmlns:xlink="http://www.w3.org/1999/xlink">
    <!-- Generator: Sketch 62 (91390) - https://sketch.com -->
    <title>icon/12px/filter备份 2</title>
    <desc>Created with Sketch.</desc>
    <g id="icon/12px/filter备份-2" stroke="none" stroke-width="1" fill="none" fill-rule="evenodd">
        <path d="M3.50002943,8 L3.50002943,5.16666667 C3.50002943,5.05848156 3.46494049,4.95321475 3.40002943,4.86666667 L2.10002943,2.8 C1.934344,2.5790861 1.97911553,2.26568542 2.20002943,2.1 C2.28657751,2.03508894 2.39184432,2 2.50002943,2 L6.50002943,2 C6.7761718,2 7.00002943,2.22385763 7.00002943,2.5 C7.00002943,2.60818511 6.96494049,2.71345191 6.90002943,2.8 L5.60002943,4.86666667 C5.53511836,4.95321475 5.50002943,5.05848156 5.50002943,5.16666667 L5.50002943,10" id="路径" stroke="#5C6280" stroke-width="0.5" stroke-linecap="round" stroke-linejoin="round"></path>
        <rect id="矩形" fill="#5C6280" x="7" y="5" width="2" height="1" rx="0.5"></rect>
        <rect id="矩形备份" fill="#5C6280" x="7" y="7" width="2" height="1" rx="0.5"></rect>
        <rect id="矩形备份-2" fill="#5C6280" x="7" y="9" width="2" height="1" rx="0.5"></rect>
    </g>
</svg>