<?xml version="1.0" encoding="UTF-8"?>
<svg width="12px" height="12px" viewBox="0 0 12 12" version="1.1" xmlns="http://www.w3.org/2000/svg" xmlns:xlink="http://www.w3.org/1999/xlink">
    <title>icon/12px/告警信息列表</title>
    <g id="icon/12px/告警信息列表" stroke="none" stroke-width="1" fill="none" fill-rule="evenodd">
        <path d="M6,2 C7.65685425,2 9,3.34314575 9,5 L9,9 L9.75,9 C9.88807119,9 10,9.11192881 10,9.25 C10,9.38807119 9.88807119,9.5 9.75,9.5 L2.25,9.5 C2.11192881,9.5 2,9.38807119 2,9.25 C2,9.11192881 2.11192881,9 2.25,9 L3,9 L3,5 C3,3.34314575 4.34314575,2 6,2 Z M6,2.5 C4.61928813,2.5 3.5,3.61928813 3.5,5 L3.5,9 L8.5,9 L8.5,5 C8.5,3.61928813 7.38071187,2.5 6,2.5 Z M5.7763932,3.8881966 C5.83814051,3.76470198 5.98830877,3.71464589 6.1118034,3.7763932 C6.23529802,3.83814051 6.28535411,3.98830877 6.2236068,4.1118034 L6.2236068,4.1118034 L5.4045085,5.75 L7,5.75 C7.18584551,5.75 7.30671943,5.94557813 7.2236068,6.1118034 L7.2236068,6.1118034 L6.2236068,8.1118034 C6.16185949,8.23529802 6.01169123,8.28535411 5.8881966,8.2236068 C5.76470198,8.16185949 5.71464589,8.01169123 5.7763932,7.8881966 L5.7763932,7.8881966 L6.5954915,6.25 L5,6.25 C4.81415449,6.25 4.69328057,6.05442187 4.7763932,5.8881966 L4.7763932,5.8881966 Z" id="形状结合" fill="#5C6280" fill-rule="nonzero"></path>
    </g>
</svg>