<?xml version="1.0" encoding="UTF-8"?>
<svg width="12px" height="12px" viewBox="0 0 12 12" version="1.1" xmlns="http://www.w3.org/2000/svg" xmlns:xlink="http://www.w3.org/1999/xlink">
    <!-- Generator: Sketch 62 (91390) - https://sketch.com -->
    <title>icon/12px/eye</title>
    <desc>Created with Sketch.</desc>
    <g id="icon/12px/eye" stroke="none" stroke-width="1" fill="none" fill-rule="evenodd">
        <path d="M6,9.88671875 C6.625,9.88671875 7.23632812,9.79882812 7.83398438,9.62304688 C8.43164062,9.44726562 8.9921875,9.19335938 9.515625,8.86132812 C10.0390625,8.52929688 10.5117188,8.12109375 10.9335938,7.63671875 C11.3554688,7.15234375 11.6992188,6.59765625 11.9648438,5.97265625 C11.9726562,5.96484375 11.9765625,5.95898438 11.9765625,5.95507812 L11.9765625,5.9375 L11.9765625,5.9375 C11.9765625,5.9375 11.9785156,5.93554688 11.9824219,5.93164062 L11.9882812,5.92578125 L11.9882812,5.890625 L11.9882812,5.890625 C11.9882812,5.8828125 11.9921875,5.875 12,5.8671875 C12,5.8515625 12.0019531,5.83398438 12.0058594,5.81445312 C12.0097656,5.79492188 12.0117188,5.77734375 12.0117188,5.76171875 C12.0117188,5.74609375 12.0097656,5.73046875 12.0058594,5.71484375 C12.0019531,5.69921875 12,5.68359375 12,5.66796875 C11.9921875,5.65234375 11.9882812,5.640625 11.9882812,5.6328125 L11.9882812,5.609375 L11.9882812,5.609375 C11.9882812,5.6015625 11.9863281,5.59570312 11.9824219,5.59179688 L11.9765625,5.5859375 L11.9765625,5.56835938 L11.9765625,5.56835938 C11.9765625,5.56445312 11.9726562,5.55859375 11.9648438,5.55078125 C11.6992188,4.92578125 11.3554688,4.36914062 10.9335938,3.88085938 C10.5117188,3.39257812 10.0429688,2.98046875 9.52734375,2.64453125 C9.01171875,2.30859375 8.45507812,2.05273438 7.85742187,1.87695312 C7.25976562,1.70117188 6.6484375,1.61328125 6.0234375,1.61328125 C5.3984375,1.61328125 4.78515625,1.70117188 4.18359375,1.87695312 C3.58203125,2.05273438 3.01953125,2.30859375 2.49609375,2.64453125 C1.97265625,2.98046875 1.49804688,3.39257812 1.07226562,3.88085938 C0.646484375,4.36914062 0.296875,4.92578125 0.0234375,5.55078125 L0.0234375,5.5859375 L0.0234375,5.5859375 L0.017578125,5.59179688 C0.013671875,5.59570312 0.01171875,5.59765625 0.01171875,5.59765625 L0.01171875,5.6328125 L0.01171875,5.6328125 C0.01171875,5.640625 0.0078125,5.6484375 0,5.65625 C0,5.671875 -0.001953125,5.68945312 -0.005859375,5.70898438 C-0.009765625,5.72851562 -0.01171875,5.74609375 -0.01171875,5.76171875 C-0.01171875,5.77734375 -0.009765625,5.79296875 -0.005859375,5.80859375 C-0.001953125,5.82421875 0,5.83984375 0,5.85546875 C0.0078125,5.87109375 0.01171875,5.8828125 0.01171875,5.890625 L0.01171875,5.9140625 L0.01171875,5.9140625 C0.01171875,5.921875 0.013671875,5.92773438 0.017578125,5.93164062 C0.021484375,5.93554688 0.0234375,5.9375 0.0234375,5.9375 L0.0234375,5.97265625 L0.0234375,5.97265625 C0.296875,6.59765625 0.64453125,7.15234375 1.06640625,7.63671875 C1.48828125,8.12109375 1.9609375,8.52929688 2.484375,8.86132812 C3.0078125,9.19335938 3.56835938,9.44726562 4.16601562,9.62304688 C4.76367188,9.79882812 5.375,9.88671875 6,9.88671875 Z M6,9.13671875 C5.46875,9.13671875 4.9453125,9.06640625 4.4296875,8.92578125 C3.9140625,8.78515625 3.42773438,8.57421875 2.97070312,8.29296875 C2.51367188,8.01171875 2.09375,7.66015625 1.7109375,7.23828125 C1.328125,6.81640625 1.01171875,6.32421875 0.76171875,5.76171875 C1.01171875,5.19921875 1.328125,4.70703125 1.7109375,4.28515625 C2.09375,3.86328125 2.515625,3.50976562 2.9765625,3.22460938 C3.4375,2.93945312 3.92773437,2.72460938 4.44726562,2.58007812 C4.96679688,2.43554688 5.4921875,2.36328125 6.0234375,2.36328125 C6.5546875,2.36328125 7.078125,2.43554688 7.59375,2.58007812 C8.109375,2.72460938 8.59570312,2.93945312 9.05273438,3.22460938 C9.50976562,3.50976562 9.92578125,3.86328125 10.3007812,4.28515625 C10.6757812,4.70703125 10.9882812,5.19921875 11.2382812,5.76171875 C10.9882812,6.32421875 10.6738281,6.81640625 10.2949219,7.23828125 C9.91601562,7.66015625 9.49804688,8.01171875 9.04101562,8.29296875 C8.58398438,8.57421875 8.09570312,8.78515625 7.57617188,8.92578125 C7.05664063,9.06640625 6.53125,9.13671875 6,9.13671875 Z M6.03515625,8.01171875 C6.66015625,8.01171875 7.19140625,7.79296875 7.62890625,7.35546875 C8.06640625,6.91796875 8.28515625,6.38671875 8.28515625,5.76171875 C8.28515625,5.14453125 8.06640625,4.61523438 7.62890625,4.17382812 C7.19140625,3.73242188 6.66015625,3.51171875 6.03515625,3.51171875 C5.41796875,3.51171875 4.88867188,3.73242188 4.44726562,4.17382812 C4.00585938,4.61523438 3.78515625,5.14453125 3.78515625,5.76171875 C3.78515625,6.38671875 4.00585938,6.91796875 4.44726562,7.35546875 C4.88867188,7.79296875 5.41796875,8.01171875 6.03515625,8.01171875 Z M6.03515625,7.26171875 C5.62890625,7.26171875 5.27539062,7.11328125 4.97460938,6.81640625 C4.67382812,6.51953125 4.5234375,6.1640625 4.5234375,5.75 C4.5234375,5.3359375 4.66992188,4.98242188 4.96289062,4.68945312 C5.25585938,4.39648438 5.609375,4.25 6.0234375,4.25 C6.4375,4.25 6.79101562,4.39648438 7.08398438,4.68945312 C7.37695312,4.98242188 7.5234375,5.3359375 7.5234375,5.75 C7.5234375,6.1640625 7.37890625,6.51953125 7.08984375,6.81640625 C6.80078125,7.11328125 6.44921875,7.26171875 6.03515625,7.26171875 Z" id="" fill="#8D91A6"></path>
    </g>
</svg>