<?xml version="1.0" encoding="UTF-8"?>
<svg width="12px" height="12px" viewBox="0 0 12 12" version="1.1" xmlns="http://www.w3.org/2000/svg" xmlns:xlink="http://www.w3.org/1999/xlink">
    <!-- Generator: Sketch 62 (91390) - https://sketch.com -->
    <title>icon/12px/like_normal</title>
    <desc>Created with Sketch.</desc>
    <g id="icon/12px/like_normal" stroke="none" stroke-width="1" fill="none" fill-rule="evenodd">
        <path d="M8.6484375,10.75 C8.9765625,10.75 9.2578125,10.7109375 9.4921875,10.6328125 C9.8046875,10.53125 10.0566406,10.359375 10.2480469,10.1171875 C10.4394531,9.875 10.5507812,9.58984375 10.5820312,9.26171875 C10.5976562,9.08203125 10.5859375,8.90625 10.546875,8.734375 C10.7421875,8.421875 10.8320312,8.09375 10.8164062,7.75 C10.8085938,7.65625 10.7890625,7.5625 10.7578125,7.46875 C10.9453125,7.1875 11.0351562,6.890625 11.0273438,6.578125 C11.0273438,6.4609375 11.0078125,6.34375 10.96875,6.2265625 C11.078125,6.0625 11.15625,5.88671875 11.203125,5.69921875 L11.25,5.640625 L11.25,5.125 L11.2265625,5.06640625 L11.2265625,5.03125 C11.2109375,5.0078125 11.203125,4.9921875 11.203125,4.984375 C11.0859375,4.53125 10.828125,4.23046875 10.4296875,4.08203125 C10.2421875,4.01953125 10.046875,3.98828125 9.84375,3.98828125 L7.8046875,3.98828125 C7.8359375,3.77734375 7.86328125,3.6171875 7.88671875,3.5078125 C7.98828125,2.984375 7.96875,2.51953125 7.828125,2.11328125 C7.7734375,1.95703125 7.6796875,1.69921875 7.546875,1.33984375 C7.5,1.21484375 7.46484375,1.12109375 7.44140625,1.05859375 C7.31640625,0.74609375 7.10546875,0.52734375 6.80859375,0.40234375 C6.58203125,0.30078125 6.3515625,0.25 6.1171875,0.25 C5.8515625,0.25 5.59375,0.31640625 5.34375,0.44921875 C4.9453125,0.65234375 4.75,0.9765625 4.7578125,1.421875 C4.765625,1.6015625 4.76953125,1.7421875 4.76953125,1.84375 C4.77734375,2.1640625 4.78515625,2.40625 4.79296875,2.5703125 C4.79296875,2.609375 4.78515625,2.64453125 4.76953125,2.67578125 C4.74609375,2.72265625 4.70507812,2.796875 4.64648438,2.8984375 C4.58789062,3 4.54296875,3.078125 4.51171875,3.1328125 C4.23828125,3.609375 4.03125,3.9609375 3.890625,4.1875 C3.796875,4.328125 3.66992188,4.4453125 3.50976563,4.5390625 C3.34960938,4.6328125 3.2109375,4.69140625 3.09375,4.71484375 L2.91796875,4.75 L1.59375,4.75 C1.359375,4.75 1.16015625,4.83203125 0.99609375,4.99609375 C0.83203125,5.16015625 0.75,5.359375 0.75,5.59375 L0.75,9.90625 C0.75,10.140625 0.83203125,10.3398438 0.99609375,10.5039062 C1.16015625,10.6679688 1.359375,10.75 1.59375,10.75 L8.6484375,10.75 Z M8.6484375,9.90625 L3.75,9.90625 L3.76171875,5.359375 C4.12109375,5.1875 4.40234375,4.9453125 4.60546875,4.6328125 L4.60546875,4.62109375 C4.75390625,4.38671875 4.9609375,4.03125 5.2265625,3.5546875 L5.23828125,3.54296875 C5.25390625,3.51953125 5.30859375,3.42578125 5.40234375,3.26171875 C5.41015625,3.25390625 5.42578125,3.23046875 5.44921875,3.19140625 C5.47265625,3.15234375 5.48828125,3.125 5.49609375,3.109375 C5.60546875,2.921875 5.65234375,2.72265625 5.63671875,2.51171875 C5.62890625,2.33984375 5.62109375,2.1171875 5.61328125,1.84375 L5.61328125,1.3984375 L5.61328125,1.3984375 C5.60546875,1.3515625 5.61328125,1.3125 5.63671875,1.28125 C5.65234375,1.25 5.6875,1.21875 5.7421875,1.1875 C5.8671875,1.125 5.9921875,1.09375 6.1171875,1.09375 C6.234375,1.09375 6.35546875,1.12109375 6.48046875,1.17578125 C6.55859375,1.20703125 6.6171875,1.265625 6.65625,1.3515625 C6.7109375,1.515625 6.74609375,1.609375 6.76171875,1.6328125 C6.87890625,1.953125 6.96875,2.203125 7.03125,2.3828125 C7.125,2.65625 7.1328125,2.9765625 7.0546875,3.34375 C7.03125,3.4765625 7.00390625,3.64453125 6.97265625,3.84765625 L6.80859375,4.83203125 L9.84375,4.83203125 C9.9453125,4.83203125 10.046875,4.84765625 10.1484375,4.87890625 C10.265625,4.92578125 10.34375,5.03125 10.3828125,5.1953125 C10.390625,5.1953125 10.3964844,5.203125 10.4003906,5.21875 C10.4042969,5.234375 10.40625,5.24609375 10.40625,5.25390625 L10.40625,5.41796875 L10.3828125,5.51171875 C10.359375,5.59765625 10.3242188,5.6796875 10.2773438,5.7578125 L10.0546875,6.0859375 L10.1601562,6.4609375 C10.1757812,6.5078125 10.1835938,6.55859375 10.1835938,6.61328125 C10.1914062,6.74609375 10.1484375,6.875 10.0546875,7 L9.84375,7.328125 L9.94921875,7.703125 C9.95703125,7.7421875 9.96484375,7.77734375 9.97265625,7.80859375 C9.98046875,7.96484375 9.93359375,8.12109375 9.83203125,8.27734375 L9.64453125,8.5703125 L9.71484375,8.86328125 L9.71484375,8.8984375 C9.73828125,9 9.74609375,9.09765625 9.73828125,9.19140625 L9.73828125,9.203125 C9.72265625,9.359375 9.671875,9.48828125 9.5859375,9.58984375 C9.5,9.69921875 9.3828125,9.78125 9.234375,9.8359375 C9.0859375,9.8828125 8.890625,9.90625 8.6484375,9.90625 Z M2.90625,9.90625 L1.59375,9.90625 L1.59375,5.59375 L2.90625,5.59375 L2.90625,9.90625 Z" id="îš" fill="#8D91A6"></path>
    </g>
</svg>