<?xml version="1.0" encoding="UTF-8"?>
<svg width="12px" height="12px" viewBox="0 0 12 12" version="1.1" xmlns="http://www.w3.org/2000/svg" xmlns:xlink="http://www.w3.org/1999/xlink">
    <!-- Generator: Sketch 62 (91390) - https://sketch.com -->
    <title>icon/12px/筛选</title>
    <desc>Created with Sketch.</desc>
    <g id="icon/12px/筛选" stroke="none" stroke-width="1" fill="none" fill-rule="evenodd">
        <g id="筛选" fill="#999999">
            <path d="M8.94098301,0 C9.47297158,0 9.95930107,0.300568156 10.1972136,0.776393202 C10.4303999,1.24276587 10.404073,1.79688124 10.1277207,2.23904493 L10.1277207,2.23904493 L8.07600085,5.52179676 C8.02633472,5.60126256 8,5.69308637 8,5.78679623 L8,5.78679623 L8,11.5 C8,11.7761424 7.77614237,12 7.5,12 C7.22385763,12 7,11.7761424 7,11.5 L7,11.5 L7,5.78679623 C7,5.50566665 7.07900417,5.23019522 7.22800254,4.99179782 L7.22800254,4.99179782 L9.27972243,1.70904599 C9.37144095,1.56229637 9.38017857,1.37839113 9.3027864,1.2236068 C9.2342659,1.08656578 9.09419952,1 8.94098301,1 L8.94098301,1 L2.05901699,1 C1.90580048,1 1.7657341,1.08656578 1.6972136,1.2236068 C1.61982143,1.37839113 1.62855905,1.56229637 1.72027757,1.70904599 L1.72027757,1.70904599 L3.77199746,4.99179782 C3.92099583,5.23019522 4,5.50566665 4,5.78679623 L4,5.78679623 L4,10.5 C4,10.7761424 3.77614237,11 3.5,11 C3.22385763,11 3,10.7761424 3,10.5 L3,10.5 L3,5.78679623 C3,5.69308637 2.97366528,5.60126256 2.92399915,5.52179676 L2.92399915,5.52179676 L0.872279262,2.23904493 C0.595926954,1.79688124 0.569600071,1.24276587 0.802786405,0.776393202 C1.04069893,0.300568156 1.52702842,0 2.05901699,0 L2.05901699,0 Z M11.5,10 C11.7761424,10 12,10.2238576 12,10.5 C12,10.7761424 11.7761424,11 11.5,11 L9.5,11 C9.22385763,11 9,10.7761424 9,10.5 C9,10.2238576 9.22385763,10 9.5,10 L11.5,10 Z M11.5,8 C11.7761424,8 12,8.22385763 12,8.5 C12,8.77614237 11.7761424,9 11.5,9 L9.5,9 C9.22385763,9 9,8.77614237 9,8.5 C9,8.22385763 9.22385763,8 9.5,8 L11.5,8 Z M11.5,6 C11.7761424,6 12,6.22385763 12,6.5 C12,6.77614237 11.7761424,7 11.5,7 L9.5,7 C9.22385763,7 9,6.77614237 9,6.5 C9,6.22385763 9.22385763,6 9.5,6 L11.5,6 Z" id="Combined-Shape"></path>
        </g>
    </g>
</svg>