<?xml version="1.0" encoding="UTF-8"?>
<svg width="12px" height="12px" viewBox="0 0 12 12" version="1.1" xmlns="http://www.w3.org/2000/svg" xmlns:xlink="http://www.w3.org/1999/xlink">
    <title>icon/12px/search</title>
    <g id="icon/12px/search" stroke="none" stroke-width="1" fill="none" fill-rule="evenodd">
        <path d="M6,2 C8.209139,2 10,3.790861 10,6 C10,6.92454548 9.68633046,7.77582951 9.15960442,8.45323904 L10.8535534,10.1464466 C11.0488155,10.3417088 11.0488155,10.6582912 10.8535534,10.8535534 C10.6582912,11.0488155 10.3417088,11.0488155 10.1464466,10.8535534 L10.1464466,10.8535534 L8.45323904,9.15960442 C7.77582951,9.68633046 6.92454548,10 6,10 C3.790861,10 2,8.209139 2,6 C2,3.790861 3.790861,2 6,2 Z M6,3 C4.34314575,3 3,4.34314575 3,6 C3,7.65685425 4.34314575,9 6,9 C7.65685425,9 9,7.65685425 9,6 C9,4.34314575 7.65685425,3 6,3 Z" id="形状结合" fill="#C3C7D9"></path>
    </g>
</svg>