<?xml version="1.0" encoding="UTF-8"?>
<svg width="12px" height="12px" viewBox="0 0 12 12" version="1.1" xmlns="http://www.w3.org/2000/svg" xmlns:xlink="http://www.w3.org/1999/xlink">
    <!-- Generator: Sketch 62 (91390) - https://sketch.com -->
    <title>icon/12px/搜索</title>
    <desc>Created with Sketch.</desc>
    <g id="icon/12px/搜索" stroke="none" stroke-width="1" fill="none" fill-rule="evenodd">
        <path d="M5,0 C7.76142375,0 10,2.23857625 10,5 C10,6.20019641 9.57712654,7.30162543 8.87224571,8.16342098 L11.8552107,11.1459712 C12.0482631,11.3390237 12.0482631,11.6520235 11.8552107,11.8450759 L11.8450759,11.8552107 C11.6520235,12.0482631 11.3390237,12.0482631 11.1459712,11.8552107 L8.16342098,8.87224571 C7.30162543,9.57712654 6.20019641,10 5,10 C2.23857625,10 0,7.76142375 0,5 C0,2.23857625 2.23857625,0 5,0 Z M5,1 C2.790861,1 1,2.790861 1,5 C1,7.209139 2.790861,9 5,9 C7.209139,9 9,7.209139 9,5 C9,2.790861 7.209139,1 5,1 Z" id="形状结合" fill="#999999"></path>
    </g>
</svg>