<?xml version="1.0" encoding="UTF-8"?>
<svg width="12px" height="12px" viewBox="0 0 12 12" version="1.1" xmlns="http://www.w3.org/2000/svg" xmlns:xlink="http://www.w3.org/1999/xlink">
    <!-- Generator: Sketch 62 (91390) - https://sketch.com -->
    <title>icon/12px/eye</title>
    <desc>Created with Sketch.</desc>
    <g id="icon/12px/eye" stroke="none" stroke-width="1" fill="none" fill-rule="evenodd">
        <path d="M6.03515625,3.51171875 C6.66015938,3.51171875 7.19140406,3.73241967 7.62890625,4.17382812 C8.06640844,4.61523658 8.28515625,5.14452816 8.28515625,5.76171875 C8.28515625,6.38672187 8.06640844,6.91796656 7.62890625,7.35546875 C7.19140406,7.79297094 6.66015938,8.01171875 6.03515625,8.01171875 C5.41796566,8.01171875 4.88867408,7.79297094 4.44726562,7.35546875 C4.00585717,6.91796656 3.78515625,6.38672187 3.78515625,5.76171875 C3.78515625,5.14452816 4.00585717,4.61523658 4.44726562,4.17382812 C4.88867408,3.73241967 5.41796566,3.51171875 6.03515625,3.51171875 Z M6.03515625,7.26171875 C6.44922082,7.26171875 6.8007798,7.11328273 7.08984375,6.81640625 C7.3789077,6.51952977 7.5234375,6.16406457 7.5234375,5.75 C7.5234375,5.33593543 7.37695459,4.98242334 7.08398438,4.68945312 C6.79101416,4.39648291 6.43750207,4.25 6.0234375,4.25 C5.60937293,4.25 5.25586084,4.39648291 4.96289062,4.68945312 C4.66992041,4.98242334 4.5234375,5.33593543 4.5234375,5.75 C4.5234375,6.16406457 4.67382662,6.51952977 4.97460938,6.81640625 C5.27539213,7.11328273 5.62890422,7.26171875 6.03515625,7.26171875 Z M12,5.66796875 C12,5.68359383 12.0019531,5.69921867 12.0058594,5.71484375 C12.0097656,5.73046883 12.0117188,5.74609367 12.0117188,5.76171875 C12.0117188,5.77734383 12.0097656,5.79492178 12.0058594,5.81445312 C12.0019531,5.83398447 12,5.85156242 12,5.8671875 C11.9921875,5.87500004 11.9882812,5.88281246 11.9882812,5.890625 L11.9882812,5.92578125 L11.9765625,5.9375 L11.9765625,5.95507812 C11.9765625,5.95898439 11.9726563,5.96484371 11.9648438,5.97265625 C11.6992174,6.59765937 11.3554709,7.15234133 10.9335938,7.63671875 C10.5117166,8.12109617 10.0390651,8.52929521 9.515625,8.86132812 C8.99218488,9.19336104 8.43164361,9.44726475 7.83398438,9.62304688 C7.23632514,9.798829 6.62500313,9.88671875 6,9.88671875 C5.37499687,9.88671875 4.76367486,9.798829 4.16601562,9.62304688 C3.56835639,9.44726475 3.00781512,9.19336104 2.484375,8.86132812 C1.96093488,8.52929521 1.48828125,8.12109617 1.06640625,7.63671875 C0.644529141,7.15234133 0.296876367,6.59765937 0.0234375,5.97265625 L0.0234375,5.9375 L0.017578125,5.93164062 C0.0136718555,5.92773436 0.01171875,5.92187504 0.01171875,5.9140625 L0.01171875,5.890625 C0.01171875,5.88281246 0.00781253906,5.87109383 0,5.85546875 C0,5.83984367 -0.00195310547,5.82421883 -0.005859375,5.80859375 C-0.00976564453,5.79296867 -0.01171875,5.77734383 -0.01171875,5.76171875 C-0.01171875,5.74609367 -0.00976564453,5.72851572 -0.005859375,5.70898438 C-0.00195310547,5.68945303 0,5.67187508 0,5.65625 C0.00781253906,5.64843746 0.01171875,5.64062504 0.01171875,5.6328125 L0.01171875,5.59765625 L0.0234375,5.5859375 L0.0234375,5.55078125 C0.296876367,4.92577812 0.646482246,4.36914307 1.07226562,3.88085938 C1.498049,3.39257568 1.97265363,2.98047043 2.49609375,2.64453125 C3.01953387,2.30859207 3.58202824,2.05273525 4.18359375,1.87695312 C4.78515926,1.701171 5.39843437,1.61328125 6.0234375,1.61328125 C6.64844062,1.61328125 7.25976264,1.701171 7.85742187,1.87695312 C8.45508111,2.05273525 9.01171617,2.30859207 9.52734375,2.64453125 C10.0429713,2.98047043 10.5117166,3.39257568 10.9335938,3.88085938 C11.3554709,4.36914307 11.6992174,4.92577812 11.9648438,5.55078125 C11.9726563,5.55859379 11.9765625,5.56445311 11.9765625,5.56835938 L11.9765625,5.5859375 L11.9824219,5.59179688 C11.9863281,5.59570314 11.9882812,5.60156246 11.9882812,5.609375 L11.9882812,5.6328125 C11.9882812,5.64062504 11.9921875,5.65234367 12,5.66796875 Z M6,9.13671875 C6.53125266,9.13671875 7.05663803,9.06640695 7.57617188,8.92578125 C8.09570572,8.78515555 8.58398209,8.57422016 9.04101562,8.29296875 C9.49804916,8.01171734 9.91601373,7.66015836 10.2949219,7.23828125 C10.67383,6.81640414 10.98828,6.32422156 11.2382812,5.76171875 C10.98828,5.19921594 10.6757831,4.70703336 10.3007812,4.28515625 C9.92577937,3.86328125 9.50976791,3.50976705 9.05273438,3.22460938 C8.59570084,2.9394517 8.10937758,2.7246101 7.59375,2.58007812 C7.07812242,2.43554615 6.55469016,2.36328125 6.0234375,2.36328125 C5.49218484,2.36328125 4.96679947,2.43554615 4.44726562,2.58007812 C3.92773178,2.7246101 3.4375023,2.9394517 2.9765625,3.22460938 C2.5156227,3.50976705 2.09375191,3.86328125 1.7109375,4.28515625 C1.32812309,4.70703336 1.01172,5.19921594 0.76171875,5.76171875 C1.01172,6.32422156 1.32812309,6.81640414 1.7109375,7.23828125 C2.09375191,7.66015836 2.51366959,8.01171734 2.97070312,8.29296875 C3.42773666,8.57422016 3.91405992,8.78515555 4.4296875,8.92578125 C4.94531508,9.06640695 5.46874734,9.13671875 6,9.13671875 Z" id="" fill="#999999"></path>
    </g>
</svg>