<?xml version="1.0" encoding="UTF-8"?>
<svg width="12px" height="12px" viewBox="0 0 12 12" version="1.1" xmlns="http://www.w3.org/2000/svg" xmlns:xlink="http://www.w3.org/1999/xlink">
    <!-- Generator: Sketch 62 (91390) - https://sketch.com -->
    <title>icon/12px/dislike_normal</title>
    <desc>Created with Sketch.</desc>
    <g id="icon/12px/dislike_normal" stroke="none" stroke-width="1" fill="none" fill-rule="evenodd">
        <path d="M6.1171875,10.75 C6.3515625,10.75 6.58203125,10.703125 6.80859375,10.609375 C7.10546875,10.4765625 7.31640625,10.2539062 7.44140625,9.94140625 C7.48828125,9.81640625 7.5234375,9.72265625 7.546875,9.66015625 C7.6640625,9.33984375 7.7578125,9.0859375 7.828125,8.8984375 C7.96875,8.484375 7.98828125,8.015625 7.88671875,7.4921875 C7.85546875,7.34375 7.828125,7.18359375 7.8046875,7.01171875 L9.84375,7.01171875 C10.046875,7.01171875 10.2421875,6.98046875 10.4296875,6.91796875 C10.8359375,6.76953125 11.09375,6.46875 11.203125,6.015625 C11.21875,5.984375 11.2265625,5.96875 11.2265625,5.96875 L11.2265625,5.93359375 L11.25,5.875 L11.25,5.359375 L11.203125,5.2890625 C11.15625,5.1015625 11.078125,4.9296875 10.96875,4.7734375 C11.0078125,4.6640625 11.0273438,4.546875 11.0273438,4.421875 C11.0429688,4.109375 10.953125,3.8125 10.7578125,3.53125 C10.7890625,3.4375 10.8085938,3.33984375 10.8164062,3.23828125 C10.8320312,2.90234375 10.7421875,2.578125 10.546875,2.265625 C10.5859375,2.09375 10.59375,1.9140625 10.5703125,1.7265625 C10.546875,1.40625 10.4394531,1.125 10.2480469,0.8828125 C10.0566406,0.640625 9.8046875,0.46875 9.4921875,0.3671875 C9.2578125,0.2890625 8.9765625,0.25 8.6484375,0.25 L1.59375,0.25 C1.359375,0.25 1.16015625,0.33203125 0.99609375,0.49609375 C0.83203125,0.66015625 0.75,0.859375 0.75,1.09375 L0.75,5.40625 C0.75,5.640625 0.83203125,5.83984375 0.99609375,6.00390625 C1.16015625,6.16796875 1.359375,6.25 1.59375,6.25 L2.91796875,6.25 C2.96484375,6.2578125 3.02734375,6.26953125 3.10546875,6.28515625 C3.18359375,6.30078125 3.31054688,6.35742188 3.48632812,6.45507812 C3.66210938,6.55273438 3.796875,6.671875 3.890625,6.8125 C4.03125,7.0390625 4.23828125,7.390625 4.51171875,7.8671875 C4.54296875,7.921875 4.58789062,8 4.64648438,8.1015625 C4.70507812,8.203125 4.74609375,8.2734375 4.76953125,8.3125 C4.78515625,8.3515625 4.79296875,8.390625 4.79296875,8.4296875 C4.78515625,8.5859375 4.77734375,8.828125 4.76953125,9.15625 C4.76953125,9.2578125 4.765625,9.3984375 4.7578125,9.578125 C4.75,10.015625 4.9453125,10.3398438 5.34375,10.5507812 C5.59375,10.6835938 5.8515625,10.75 6.1171875,10.75 Z M2.90625,5.40625 L1.59375,5.40625 L1.59375,1.09375 L2.90625,1.09375 L2.90625,5.40625 Z M6.1171875,9.90625 C5.9921875,9.90625 5.8671875,9.875 5.7421875,9.8125 C5.6875,9.78125 5.6484375,9.75 5.625,9.71875 C5.609375,9.6953125 5.6015625,9.65625 5.6015625,9.6015625 C5.609375,9.421875 5.61328125,9.27734375 5.61328125,9.16796875 L5.61328125,9.15625 C5.62109375,8.8515625 5.62890625,8.62890625 5.63671875,8.48828125 C5.65234375,8.27734375 5.60546875,8.078125 5.49609375,7.890625 C5.49088542,7.88020833 5.48220486,7.86545139 5.47005208,7.84635417 L5.44921875,7.81445312 C5.42578125,7.77929688 5.41015625,7.75390625 5.40234375,7.73828125 C5.30078125,7.55859375 5.24609375,7.46484375 5.23828125,7.45703125 L5.2265625,7.43359375 C4.9609375,6.96484375 4.75390625,6.609375 4.60546875,6.3671875 L4.59375,6.3671875 C4.3984375,6.0546875 4.12109375,5.8125 3.76171875,5.640625 L3.75,1.09375 L8.6484375,1.09375 C8.890625,1.09375 9.0859375,1.1171875 9.234375,1.1640625 C9.3828125,1.2109375 9.5,1.29296875 9.5859375,1.41015625 C9.671875,1.51171875 9.72265625,1.640625 9.73828125,1.796875 L9.73828125,1.80859375 C9.74609375,1.90234375 9.73828125,1.99609375 9.71484375,2.08984375 L9.71484375,2.13671875 L9.64453125,2.4296875 L9.83203125,2.72265625 C9.93359375,2.87890625 9.98046875,3.03125 9.97265625,3.1796875 C9.97265625,3.21875 9.96484375,3.25390625 9.94921875,3.28515625 L9.84375,3.671875 L10.0546875,4 C10.1484375,4.125 10.1914062,4.25390625 10.1835938,4.38671875 C10.1835938,4.44140625 10.1757812,4.4921875 10.1601562,4.5390625 L10.0546875,4.9140625 L10.2773438,5.2421875 C10.3242188,5.3203125 10.359375,5.40234375 10.3828125,5.48828125 L10.40625,5.58203125 L10.40625,5.74609375 C10.40625,5.75390625 10.4023438,5.765625 10.3945312,5.78125 C10.3945312,5.796875 10.390625,5.8046875 10.3828125,5.8046875 C10.34375,5.96875 10.265625,6.07421875 10.1484375,6.12109375 C10.046875,6.15234375 9.9453125,6.16796875 9.84375,6.16796875 L6.80859375,6.16796875 L6.97265625,7.15234375 C7.00390625,7.35546875 7.03125,7.5234375 7.0546875,7.65625 C7.1328125,8.03125 7.125,8.3515625 7.03125,8.6171875 C6.96875,8.796875 6.875,9.04296875 6.75,9.35546875 C6.7421875,9.39453125 6.72460938,9.44921875 6.69726562,9.51953125 C6.66992188,9.58984375 6.65234375,9.62890625 6.64453125,9.63671875 C6.61328125,9.73046875 6.55859375,9.79296875 6.48046875,9.82421875 C6.35546875,9.87890625 6.234375,9.90625 6.1171875,9.90625 Z" id="" fill="#8D91A6"></path>
    </g>
</svg>