<?xml version="1.0" encoding="UTF-8"?>
<svg width="12px" height="12px" viewBox="0 0 12 12" version="1.1" xmlns="http://www.w3.org/2000/svg" xmlns:xlink="http://www.w3.org/1999/xlink">
    <!-- Generator: Sketch 62 (91390) - https://sketch.com -->
    <title>icon/12px/close</title>
    <desc>Created with Sketch.</desc>
    <g id="icon/12px/close" stroke="none" stroke-width="1" fill="none" fill-rule="evenodd">
        <path d="M7.42615824,6 L11.704633,10.2784747 C12.0984557,10.6722974 12.0984557,11.3108102 11.704633,11.704633 C11.3108102,12.0984557 10.6722974,12.0984557 10.2784747,11.704633 L6,7.42615824 L1.72152528,11.704633 C1.32770256,12.0984557 0.689189766,12.0984557 0.295367042,11.704633 C-0.0984556808,11.3108102 -0.0984556808,10.6722974 0.295367042,10.2784747 L4.57384176,6 L0.295367042,1.72152528 C-0.0984556808,1.32770256 -0.0984556808,0.689189766 0.295367042,0.295367042 C0.689189766,-0.0984556808 1.32770256,-0.0984556808 1.72152528,0.295367042 L6,4.57384176 L10.2784747,0.295367042 C10.6722974,-0.0984556808 11.3108102,-0.0984556808 11.704633,0.295367042 C12.0984557,0.689189766 12.0984557,1.32770256 11.704633,1.72152528 L7.42615824,6 Z" id="路径" fill="#999999"></path>
    </g>
</svg>