<?xml version="1.0" encoding="UTF-8"?>
<svg width="12px" height="12px" viewBox="0 0 12 12" version="1.1" xmlns="http://www.w3.org/2000/svg" xmlns:xlink="http://www.w3.org/1999/xlink">
    <title>icon/12px/编辑</title>
    <g id="icon/12px/编辑" stroke="none" stroke-width="1" fill="none" fill-rule="evenodd">
        <path d="M6,2.75 C6.13807119,2.75 6.25,2.86192881 6.25,3 C6.25,3.11834673 6.16776659,3.21748682 6.05732271,3.24339732 L6,3.25 L3,3.25 C2.62030423,3.25 2.30650904,3.53215388 2.25684662,3.89822944 L2.25,4 L2.25,9 C2.25,9.37969577 2.53215388,9.69349096 2.89822944,9.74315338 L3,9.75 L8,9.75 C8.37969577,9.75 8.69349096,9.46784612 8.74315338,9.10177056 L8.75,9 L8.75,6 C8.75,5.86192881 8.86192881,5.75 9,5.75 C9.11834673,5.75 9.21748682,5.83223341 9.24339732,5.94267729 L9.25,6 L9.25,9 C9.25,9.64720869 8.75812534,10.1795339 8.12780524,10.2435464 L8,10.25 L3,10.25 C2.35279131,10.25 1.8204661,9.75812534 1.75645361,9.12780524 L1.75,9 L1.75,4 C1.75,3.35279131 2.24187466,2.8204661 2.87219476,2.75645361 L3,2.75 L6,2.75 Z M9.1767767,2.8232233 C9.25813592,2.90458253 9.27169579,3.02806688 9.21745631,3.12346781 L9.1767767,3.1767767 L5.1767767,7.1767767 C5.07914562,7.27440777 4.92085438,7.27440777 4.8232233,7.1767767 C4.74186408,7.09541747 4.72830421,6.97193312 4.78254369,6.87653219 L4.8232233,6.8232233 L8.8232233,2.8232233 C8.92085438,2.72559223 9.07914562,2.72559223 9.1767767,2.8232233 Z" id="形状结合" fill="#5063C2" fill-rule="nonzero"></path>
    </g>
</svg>