<?xml version="1.0" encoding="UTF-8"?>
<svg width="12px" height="12px" viewBox="0 0 12 12" version="1.1" xmlns="http://www.w3.org/2000/svg" xmlns:xlink="http://www.w3.org/1999/xlink">
    <!-- Generator: Sketch 62 (91390) - https://sketch.com -->
    <title>icon/12px/dislike_active copy</title>
    <desc>Created with Sketch.</desc>
    <g id="icon/12px/dislike_active-copy" stroke="none" stroke-width="1" fill="none" fill-rule="evenodd">
        <path d="M3,5.40625 C3,5.64062617 2.91796957,5.83984293 2.75390625,6.00390625 C2.58984293,6.16796957 2.39062617,6.25 2.15625,6.25 L1.59375,6.25 C1.35937383,6.25 1.16015707,6.16796957 0.99609375,6.00390625 C0.83203043,5.83984293 0.75,5.64062617 0.75,5.40625 L0.75,1.09375 C0.75,0.859373828 0.83203043,0.66015707 0.99609375,0.49609375 C1.16015707,0.33203043 1.35937383,0.25 1.59375,0.25 L2.15625,0.25 C2.39062617,0.25 2.58984293,0.33203043 2.75390625,0.49609375 C2.91796957,0.66015707 3,0.859373828 3,1.09375 L3,5.40625 Z M11.2148438,5.9453125 C11.1289058,6.28125168 10.9453139,6.49999949 10.6640625,6.6015625 C10.4999992,6.64843773 10.3359383,6.671875 10.171875,6.671875 L7.5234375,6.671875 C7.46875,6.671875 7.43750004,6.67773432 7.4296875,6.68945312 C7.42187496,6.70117193 7.42187496,6.73437473 7.4296875,6.7890625 C7.44531258,6.86718789 7.46289053,6.97070248 7.48242188,7.09960937 C7.50195322,7.22851627 7.52148428,7.3476557 7.54101562,7.45703125 C7.56054697,7.5664068 7.57812492,7.66796828 7.59375,7.76171875 C7.68750047,8.24609617 7.67187563,8.67187316 7.546875,9.0390625 C7.49999977,9.17187566 7.35937617,9.55077812 7.125,10.1757812 C7.04687461,10.3945323 6.90625102,10.5468746 6.703125,10.6328125 C6.28906043,10.8046884 5.89062691,10.7929697 5.5078125,10.5976562 C5.24218617,10.4570305 5.11328121,10.2460952 5.12109375,9.96484375 C5.12109375,9.88671836 5.12499996,9.69922023 5.1328125,9.40234375 C5.14062504,9.10546727 5.14843746,8.87890703 5.15625,8.72265625 C5.16406254,8.58203055 5.13281285,8.45312559 5.0625,8.3359375 C4.49218465,7.35937012 4.19531262,6.8515627 4.171875,6.8125 C4.14062484,6.76562477 4.03125094,6.64062602 3.84375,6.4375 C3.71093684,6.2968743 3.61718777,6.17968797 3.5625,6.0859375 C3.50781223,5.99218703 3.48046875,5.87890691 3.48046875,5.74609375 C3.48046875,3.52733266 3.47656254,1.97656691 3.46875,1.09375 C3.46875,0.859373828 3.55273354,0.66015707 3.72070312,0.49609375 C3.88867271,0.33203043 4.08984258,0.25 4.32421875,0.25 L8.89453125,0.25 C9.20703281,0.25 9.46484273,0.285155898 9.66796875,0.35546875 C9.91797,0.433594141 10.1171868,0.566405313 10.265625,0.75390625 C10.4140632,0.941407187 10.4999999,1.16796742 10.5234375,1.43359375 C10.5390626,1.66015738 10.5156253,1.85546793 10.453125,2.01953125 C10.4453125,2.05078141 10.4531249,2.0859373 10.4765625,2.125 C10.6953136,2.41406395 10.7968751,2.71093598 10.78125,3.015625 C10.7734375,3.09375039 10.746094,3.20703051 10.6992188,3.35546875 C10.6757811,3.41015652 10.6835936,3.46093727 10.7226562,3.5078125 C10.9257823,3.76562629 11.0234375,4.03515484 11.015625,4.31640625 C11.015625,4.37109402 11.0019533,4.45312445 10.9746094,4.5625 C10.9472655,4.67187555 10.9335938,4.73046871 10.9335938,4.73828125 C10.9179687,4.79296902 10.9179687,4.82812492 10.9335938,4.84375 C11.082032,5.01562586 11.1835935,5.22656125 11.2382812,5.4765625 C11.2382812,5.48437504 11.2421875,5.49218746 11.25,5.5 L11.25,5.828125 C11.2343749,5.88281277 11.2226563,5.92187488 11.2148438,5.9453125 Z" id="" fill="#5063C2" fill-rule="nonzero"></path>
    </g>
</svg>