<?xml version="1.0" encoding="UTF-8"?>
<svg width="16px" height="16px" viewBox="0 0 16 16" version="1.1" xmlns="http://www.w3.org/2000/svg" xmlns:xlink="http://www.w3.org/1999/xlink">
    <!-- Generator: Sketch 62 (91390) - https://sketch.com -->
    <title>icon/16px/email备份 5</title>
    <desc>Created with Sketch.</desc>
    <g id="icon/16px/email备份-5" stroke="none" stroke-width="1" fill="none" fill-rule="evenodd">
        <path d="M12,0 C12.5522847,-1.01453063e-16 13,0.44771525 13,1 L13,15 C13,15.5522847 12.5522847,16 12,16 L4,16 C3.44771525,16 3,15.5522847 3,15 L3,1 C3,0.44771525 3.44771525,1.01453063e-16 4,0 L12,0 Z M8,13 C7.44771525,13 7,13.4477153 7,14 C7,14.5522847 7.44771525,15 8,15 C8.55228475,15 9,14.5522847 9,14 C9,13.4477153 8.55228475,13 8,13 Z M12,1 L4,1 L4,12 L12,12 L12,1 Z" id="形状结合" fill="#C3C7D9"></path>
    </g>
</svg>