<?xml version="1.0" encoding="UTF-8"?>
<svg width="16px" height="16px" viewBox="0 0 16 16" version="1.1" xmlns="http://www.w3.org/2000/svg" xmlns:xlink="http://www.w3.org/1999/xlink">
    <!-- Generator: Sketch 62 (91390) - https://sketch.com -->
    <title>icon/16px/email备份 4</title>
    <desc>Created with Sketch.</desc>
    <g id="icon/16px/email备份-4" stroke="none" stroke-width="1" fill="none" fill-rule="evenodd">
        <path d="M12.0626083,13.9078547 C10.9926968,14.8986261 9.56219121,15.5 8,15.5 C6.43780879,15.5 5.00730316,14.8986261 3.93739167,13.9078547 C2.86748018,12.9170834 2.15816285,11.5369146 2.03834825,9.97932484 L1.60834608,4.38929658 C1.58372148,4.06917685 1.66234433,3.75897321 1.82089975,3.49718104 C1.97945517,3.23538886 2.21794316,3.02200815 2.51304886,2.89553428 L7.40912105,0.797217628 C7.78644425,0.635507688 8.21355575,0.635507688 8.59087895,0.797217628 L13.4869511,2.89553428 C13.7820568,3.02200815 14.0205448,3.23538886 14.1791002,3.49718104 C14.3376557,3.75897321 14.4162785,4.06917685 14.3916539,4.38929658 L13.9616518,9.97932484 C13.8418372,11.5369146 13.1325198,12.9170834 12.0626083,13.9078547 Z" id="矩形" stroke="#C3C7D9"></path>
        <polyline id="路径-29" stroke="#C3C7D9" stroke-linecap="round" stroke-linejoin="round" points="5 8 7.5 10.5 12 6"></polyline>
    </g>
</svg>