<?xml version="1.0" encoding="UTF-8"?>
<svg width="16px" height="16px" viewBox="0 0 16 16" version="1.1" xmlns="http://www.w3.org/2000/svg" xmlns:xlink="http://www.w3.org/1999/xlink">
    <title>icon/16px/search</title>
    <g id="icon/16px/search" stroke="none" stroke-width="1" fill="none" fill-rule="evenodd">
        <path d="M7,1 C10.3137085,1 13,3.6862915 13,7 C13,8.47704791 12.4662797,9.82943877 11.5811745,10.8748373 L14.7781746,14.0710678 C14.9734367,14.26633 14.9734367,14.5829124 14.7781746,14.7781746 C14.5829124,14.9734367 14.26633,14.9734367 14.0710678,14.7781746 L10.8748373,11.5811745 C9.82943877,12.4662797 8.47704791,13 7,13 C3.6862915,13 1,10.3137085 1,7 C1,3.6862915 3.6862915,1 7,1 Z M7,2 C4.23857625,2 2,4.23857625 2,7 C2,9.76142375 4.23857625,12 7,12 C9.76142375,12 12,9.76142375 12,7 C12,4.23857625 9.76142375,2 7,2 Z" id="形状结合" fill="#C3C7D9"></path>
    </g>
</svg>