<?xml version="1.0" encoding="UTF-8"?>
<svg width="16px" height="16px" viewBox="0 0 16 16" version="1.1" xmlns="http://www.w3.org/2000/svg" xmlns:xlink="http://www.w3.org/1999/xlink">
    <!-- Generator: Sketch 62 (91390) - https://sketch.com -->
    <title>icon/16px/email备份</title>
    <desc>Created with Sketch.</desc>
    <g id="icon/16px/email备份" stroke="none" stroke-width="1" fill="none" fill-rule="evenodd">
        <path d="M15,2 C15.5522847,2 16,2.44771525 16,3 L16,13 C16,13.5522847 15.5522847,14 15,14 L1,14 C0.44771525,14 0,13.5522847 0,13 L0,3 C0,2.44771525 0.44771525,2 1,2 L15,2 Z M15,6.339 L8.23668164,8.95604559 C8.08520539,9.01465147 7.91479461,9.01465147 7.76331836,8.95604559 L7.76331836,8.95604559 L1,6.34 L1,13 L15,13 L15,6.339 Z M15,3 L1,3 L1,5.101 L8,7.80956817 L15,5.101 L15,3 Z" id="形状结合" fill="#C3C7D9"></path>
    </g>
</svg>