<?xml version="1.0" encoding="UTF-8"?>
<svg width="16px" height="16px" viewBox="0 0 16 16" version="1.1" xmlns="http://www.w3.org/2000/svg" xmlns:xlink="http://www.w3.org/1999/xlink">
    <!-- Generator: Sketch 62 (91390) - https://sketch.com -->
    <title>icon/16px/edit</title>
    <desc>Created with Sketch.</desc>
    <g id="icon/16px/edit" stroke="none" stroke-width="1" fill="none" fill-rule="evenodd">
        <path d="M8.5,3 C8.77614237,3 9,3.22385763 9,3.5 C9,3.77614237 8.77614237,4 8.5,4 L8.5,4 L4.5,4 C3.67157288,4 3,4.67157288 3,5.5 L3,5.5 L3,11.5 C3,12.3284271 3.67157288,13 4.5,13 L4.5,13 L10.5,13 C11.3284271,13 12,12.3284271 12,11.5 L12,11.5 L12,7.5 C12,7.22385763 12.2238576,7 12.5,7 C12.7761424,7 13,7.22385763 13,7.5 L13,7.5 L13,11.5 C13,12.8807119 11.8807119,14 10.5,14 L10.5,14 L4.5,14 C3.11928813,14 2,12.8807119 2,11.5 L2,11.5 L2,5.5 C2,4.11928813 3.11928813,3 4.5,3 L4.5,3 Z M12.1464466,3.14644661 C12.3417088,2.95118446 12.6582912,2.95118446 12.8535534,3.14644661 C13.0488155,3.34170876 13.0488155,3.65829124 12.8535534,3.85355339 L12.8535534,3.85355339 L6.85355339,9.85355339 C6.65829124,10.0488155 6.34170876,10.0488155 6.14644661,9.85355339 C5.95118446,9.65829124 5.95118446,9.34170876 6.14644661,9.14644661 L6.14644661,9.14644661 Z" id="形状结合" fill="#999999"></path>
    </g>
</svg>