<?xml version="1.0" encoding="UTF-8"?>
<svg width="22px" height="22px" viewBox="0 0 22 22" version="1.1" xmlns="http://www.w3.org/2000/svg" xmlns:xlink="http://www.w3.org/1999/xlink">
    <!-- Generator: Sketch 62 (91390) - https://sketch.com -->
    <title>icon/22px/share copy</title>
    <desc>Created with Sketch.</desc>
    <g id="icon/22px/share-copy" stroke="none" stroke-width="1" fill="none" fill-rule="evenodd">
        <path d="M9,1 C9.55228475,1 10,1.44771525 10,2 C10,2.55228475 9.55228475,3 9,3 L3,3 L3,19 L19,19 L19,13 C19,12.4477153 19.4477153,12 20,12 C20.5522847,12 21,12.4477153 21,13 L21,19 C21,20.1045695 20.1045695,21 19,21 L3,21 C1.8954305,21 1,20.1045695 1,19 L1,3 C1,1.8954305 1.8954305,1 3,1 L9,1 Z M19,1 C20.1045695,1 21,1.8954305 21,3 L21,9 C21,9.55228475 20.5522847,10 20,10 C19.4477153,10 19,9.55228475 19,9 L19,4.413 L8.51471863,14.8994949 C8.12419433,15.2900192 7.49102936,15.2900192 7.10050506,14.8994949 C6.70998077,14.5089706 6.70998077,13.8758057 7.10050506,13.4852814 L17.585,3 L13,3 C12.4477153,3 12,2.55228475 12,2 C12,1.44771525 12.4477153,1 13,1 L19,1 Z" id="Combined-Shape" fill="#5063C2" fill-rule="nonzero"></path>
    </g>
</svg>