<?xml version="1.0" encoding="UTF-8"?>
<svg width="22px" height="22px" viewBox="0 0 22 22" version="1.1" xmlns="http://www.w3.org/2000/svg" xmlns:xlink="http://www.w3.org/1999/xlink">
    <!-- Generator: Sketch 62 (91390) - https://sketch.com -->
    <title>icon/22px/home copy</title>
    <desc>Created with Sketch.</desc>
    <g id="icon/22px/home-copy" stroke="none" stroke-width="1" fill="none" fill-rule="evenodd">
        <path d="M12.2664756,1.44240197 L21.2664756,8.64831303 C21.7307464,9.02003465 22,9.57605467 22,10.1630721 L22,18.042839 C22,19.1237492 21.1045695,20 20,20 L2,20 C0.8954305,20 0,19.1237492 0,18.042839 L0,10.1630721 C0,9.57605467 0.269253553,9.02003465 0.733524419,8.64831303 L9.73352442,1.44240197 C10.4702562,0.852532678 11.5297438,0.852532678 12.2664756,1.44240197 Z M11,2.95716103 L2,10.1630721 L2,18.042839 L20,18.042839 L20,10.1630721 L11,2.95716103 Z M15.0214195,14.1285169 C15.5618746,14.1285169 16,14.5666423 16,15.1070974 C16,15.6475525 15.5618746,16.0856779 15.0214195,16.0856779 L6.97858052,16.0856779 C6.43812542,16.0856779 6,15.6475525 6,15.1070974 C6,14.5666423 6.43812542,14.1285169 6.97858052,14.1285169 L15.0214195,14.1285169 Z" id="Combined-Shape" fill="#5063C2" fill-rule="nonzero"></path>
    </g>
</svg>