<?xml version="1.0" encoding="UTF-8"?>
<svg width="22px" height="22px" viewBox="0 0 22 22" version="1.1" xmlns="http://www.w3.org/2000/svg" xmlns:xlink="http://www.w3.org/1999/xlink">
    <!-- Generator: Sketch 62 (91390) - https://sketch.com -->
    <title>icon/22px/me备份 copy</title>
    <desc>Created with Sketch.</desc>
    <g id="icon/22px/me备份-copy" stroke="none" stroke-width="1" fill="none" fill-rule="evenodd">
        <path d="M11.0576995,12.9998966 C16.3781557,12.9998966 22,15.197135 22,18.5655833 C22,20.404341 21.2403526,20.9852471 19.6681197,20.9852471 C19.4164719,20.9852471 19.1539783,20.9845683 18.8260114,20.9831846 C18.6232172,20.982329 18.3780626,20.9811273 17.878825,20.9786642 C15.8156369,20.9688229 13.9979236,20.9688229 11.0800406,20.9852313 C7.83522815,21.0034781 5.68137741,21.0034781 3.7776405,20.9925208 C3.56189269,20.991279 3.32897345,20.9897819 2.97629098,20.9875063 C2.82337201,20.9865644 2.70464268,20.9859395 2.60445985,20.9855902 L2.42418783,20.9852471 C0.743178093,20.9852471 0,20.4790432 0,18.6989358 C0,15.2653894 5.68331515,12.9998966 11.0576995,12.9998966 Z M11.0576995,14.9998793 C6.69810289,14.9998793 2,16.8726451 2,18.6989358 C2,18.8140313 2.00451093,18.9080681 2.01187273,18.9814834 C2.09336605,18.9820513 2.22656515,18.9852643 2.42418783,18.9852643 C2.56669455,18.9852643 2.72991233,18.9859681 2.98860977,18.9875615 C3.34214194,18.9898424 3.57420574,18.991334 3.7891518,18.9925712 C5.68525817,19.0034846 7.83152381,19.0034846 11.0687939,18.9852802 C13.9939118,18.9688311 15.8185069,18.9688311 17.8883649,18.9787042 C18.388138,18.9811698 18.6324562,18.9823674 18.8344495,18.9832197 C19.1598287,18.9845924 19.4196607,18.9852643 19.6681197,18.9852643 C19.81662,18.9852643 19.9151432,18.9829533 19.973838,18.9840361 C19.9899884,18.8840877 20,18.7450176 20,18.5655833 C20,16.8149298 15.3560201,14.9998793 11.0576995,14.9998793 Z M11,1 C13.7614237,1 16,3.23855696 16,5.9999569 C16,8.76135685 13.7614237,10.9999138 11,10.9999138 C8.23857625,10.9999138 6,8.76135685 6,5.9999569 C6,3.23855696 8.23857625,1 11,1 Z M11,2.99998276 C9.34314575,2.99998276 8,4.34311693 8,5.9999569 C8,7.65679687 9.34314575,8.99993104 11,8.99993104 C12.6568542,8.99993104 14,7.65679687 14,5.9999569 C14,4.34311693 12.6568542,2.99998276 11,2.99998276 Z" id="Combined-Shape" fill="#5063C2" fill-rule="nonzero"></path>
    </g>
</svg>