<?xml version="1.0" encoding="UTF-8"?>
<svg width="22px" height="22px" viewBox="0 0 22 22" version="1.1" xmlns="http://www.w3.org/2000/svg" xmlns:xlink="http://www.w3.org/1999/xlink">
    <!-- Generator: Sketch 62 (91390) - https://sketch.com -->
    <title>icon/22px/收藏 copy</title>
    <desc>Created with Sketch.</desc>
    <g id="icon/22px/收藏-copy" stroke="none" stroke-width="1" fill="none" fill-rule="evenodd">
        <path d="M0,7.61580242 C0,12.6130638 3.59845691,16.7091877 10.5839331,19.9092255 C10.8481395,20.0302582 11.1518605,20.0302582 11.4160669,19.9092255 C18.4015431,16.7091877 22,12.6130638 22,7.61580242 C22,1.16725941 14.7555881,-1.34975042 11,3.62986272 C7.24441189,-1.34975042 0,1.16725941 0,7.61580242 Z M2,7.61580242 C2,2.66510414 7.72606108,1.08632813 10.1002196,5.98792405 C10.4646756,6.74036587 11.5353244,6.74036587 11.8997804,5.98792405 C14.2739389,1.08632813 20,2.66510414 20,7.61580242 C20,11.597898 17.0659089,15.0257801 11,17.8947249 C4.93409112,15.0257801 2,11.597898 2,7.61580242 Z" id="椭圆形" fill="#5063C2" fill-rule="nonzero"></path>
    </g>
</svg>