<?xml version="1.0" encoding="UTF-8"?>
<svg width="24px" height="24px" viewBox="0 0 24 24" version="1.1" xmlns="http://www.w3.org/2000/svg" xmlns:xlink="http://www.w3.org/1999/xlink">
    <title>icon/24px/关联</title>
    <g id="icon/24px/关联" stroke="none" stroke-width="1" fill="none" fill-rule="evenodd">
        <path d="M13.3254174,14.0434763 L13.4393398,14.1464466 L12.732233,14.8535534 C12.5586667,14.679987 12.2892423,14.6607019 12.0943742,14.7956979 L12.0251263,14.8535534 L9.19669914,17.6819805 C9.02313279,17.8555469 9.00384764,18.1249713 9.13884369,18.3198394 L9.19669914,18.3890873 L10.6109127,19.8033009 C10.7844791,19.9768672 11.0539035,19.9961524 11.2487716,19.8611563 L11.3180195,19.8033009 L14.1464466,16.9748737 C14.320013,16.8013074 14.3392981,16.531883 14.2043021,16.3370148 L14.1464466,16.267767 L14.8535534,15.5606602 C15.4027282,16.109835 15.4370516,16.9788974 14.9565237,17.5680581 L14.8535534,17.6819805 L12.0251263,20.5104076 C11.4759515,21.0595824 10.6068891,21.0939058 10.0177283,20.6133779 L9.90380592,20.5104076 L8.48959236,19.0961941 C7.94041757,18.5470193 7.90609415,17.6779569 8.38662209,17.0887961 L8.48959236,16.9748737 L11.3180195,14.1464466 C11.8671943,13.5972718 12.7362567,13.5629484 13.3254174,14.0434763 Z M14.5,3 C15.8807119,3 17,4.11928813 17,5.5 L17,5.5 L17,6.5 C17,6.77614237 16.7761424,7 16.5,7 C16.2238576,7 16,6.77614237 16,6.5 L16,6.5 L16,5.5 C16,4.67157288 15.3284271,4 14.5,4 L14.5,4 L6.5,4 C5.67157288,4 5,4.67157288 5,5.5 L5,5.5 L5,17.5 C5,18.3284271 5.67157288,19 6.5,19 C6.77614237,19 7,19.2238576 7,19.5 C7,19.7761424 6.77614237,20 6.5,20 C5.11928813,20 4,18.8807119 4,17.5 L4,17.5 L4,5.5 C4,4.11928813 5.11928813,3 6.5,3 L6.5,3 Z M16.5,17 C16.7761424,17 17,17.2238576 17,17.5 C17,18.8807119 15.8807119,20 14.5,20 C14.2238576,20 14,19.7761424 14,19.5 C14,19.2238576 14.2238576,19 14.5,19 C15.3284271,19 16,18.3284271 16,17.5 C16,17.2238576 16.2238576,17 16.5,17 Z M18.3890873,10.6109127 C18.5626536,10.7844791 18.5819388,11.0539035 18.4469427,11.2487716 L18.3890873,11.3180195 L11.3180195,18.3890873 C11.1227573,18.5843494 10.8061748,18.5843494 10.6109127,18.3890873 C10.4373464,18.2155209 10.4180612,17.9460965 10.5530573,17.7512284 L10.6109127,17.6819805 L17.6819805,10.6109127 C17.8772427,10.4156506 18.1938252,10.4156506 18.3890873,10.6109127 Z M8.5,15 C8.77614237,15 9,15.2238576 9,15.5 C9,15.7761424 8.77614237,16 8.5,16 L8.5,16 L7.5,16 C7.22385763,16 7,15.7761424 7,15.5 C7,15.2238576 7.22385763,15 7.5,15 L7.5,15 Z M18.9822717,8.38662209 L19.0961941,8.48959236 L20.5104076,9.90380592 C21.0595824,10.4529807 21.0939058,11.3220431 20.6133779,11.9112039 L20.5104076,12.0251263 L17.6819805,14.8535534 C17.1328057,15.4027282 16.2637433,15.4370516 15.6745826,14.9565237 L15.5606602,14.8535534 L16.267767,14.1464466 C16.4413333,14.320013 16.7107577,14.3392981 16.9056258,14.2043021 L16.9748737,14.1464466 L19.8033009,11.3180195 C19.9768672,11.1444531 19.9961524,10.8750287 19.8611563,10.6801606 L19.8033009,10.6109127 L18.3890873,9.19669914 C18.2155209,9.02313279 17.9460965,9.00384764 17.7512284,9.13884369 L17.6819805,9.19669914 L14.8535534,12.0251263 C14.679987,12.1986926 14.6607019,12.468117 14.7956979,12.6629852 L14.8535534,12.732233 L14.1464466,13.4393398 C13.5972718,12.890165 13.5629484,12.0211026 14.0434763,11.4319419 L14.1464466,11.3180195 L16.9748737,8.48959236 C17.5240485,7.94041757 18.3931109,7.90609415 18.9822717,8.38662209 Z M10.5,11 C10.7761424,11 11,11.2238576 11,11.5 C11,11.7761424 10.7761424,12 10.5,12 L10.5,12 L7.5,12 C7.22385763,12 7,11.7761424 7,11.5 C7,11.2238576 7.22385763,11 7.5,11 L7.5,11 Z M12.5,7 C12.7761424,7 13,7.22385763 13,7.5 C13,7.77614237 12.7761424,8 12.5,8 L12.5,8 L7.5,8 C7.22385763,8 7,7.77614237 7,7.5 C7,7.22385763 7.22385763,7 7.5,7 L7.5,7 Z" id="形状结合" fill="#5063C2" fill-rule="nonzero"></path>
    </g>
</svg>