<?xml version="1.0" encoding="UTF-8"?>
<svg width="24px" height="24px" viewBox="0 0 24 24" version="1.1" xmlns="http://www.w3.org/2000/svg" xmlns:xlink="http://www.w3.org/1999/xlink">
    <title>icon/24px/远程连接备份</title>
    <g id="icon/24px/远程连接备份" stroke="none" stroke-width="1" fill="none" fill-rule="evenodd">
        <path d="M15,17 C15.5522847,17 16,17.4477153 16,18 C16,18.5522847 15.5522847,19 15,19 L9,19 C8.44771525,19 8,18.5522847 8,18 C8,17.4477153 8.44771525,17 9,17 L15,17 Z M18.5,6 C19.3284271,6 20,6.67157288 20,7.5 L20,14.5 C20,15.3284271 19.3284271,16 18.5,16 L5.5,16 C4.67157288,16 4,15.3284271 4,14.5 L4,7.5 C4,6.67157288 4.67157288,6 5.5,6 L18.5,6 Z M18,8 L6,8 L6,14 L18,14 L18,8 Z M10,10 L10,12 L8,12 L8,10 L10,10 Z M13,10 L13,12 L11,12 L11,10 L13,10 Z M16,10 L16,12 L14,12 L14,10 L16,10 Z" id="形状结合" fill="#69BDFA" fill-rule="nonzero"></path>
    </g>
</svg>