<?xml version="1.0" encoding="UTF-8"?>
<svg width="24px" height="24px" viewBox="0 0 24 24" version="1.1" xmlns="http://www.w3.org/2000/svg" xmlns:xlink="http://www.w3.org/1999/xlink">
    <title>icon/24px/编辑</title>
    <g id="icon/24px/编辑" stroke="none" stroke-width="1" fill="none" fill-rule="evenodd">
        <path d="M13.5,5 C13.7761424,5 14,5.22385763 14,5.5 C14,5.77614237 13.7761424,6 13.5,6 L13.5,6 L7.5,6 C6.67157288,6 6,6.67157288 6,7.5 L6,7.5 L6,17.5 C6,18.3284271 6.67157288,19 7.5,19 L7.5,19 L17.5,19 C18.3284271,19 19,18.3284271 19,17.5 L19,17.5 L19,11.5 C19,11.2238576 19.2238576,11 19.5,11 C19.7761424,11 20,11.2238576 20,11.5 L20,11.5 L20,17.5 C20,18.8807119 18.8807119,20 17.5,20 L17.5,20 L7.5,20 C6.11928813,20 5,18.8807119 5,17.5 L5,17.5 L5,7.5 C5,6.11928813 6.11928813,5 7.5,5 L7.5,5 Z M19.1464466,5.14644661 C19.3417088,4.95118446 19.6582912,4.95118446 19.8535534,5.14644661 C20.0488155,5.34170876 20.0488155,5.65829124 19.8535534,5.85355339 L19.8535534,5.85355339 L11.8535534,13.8535534 C11.6582912,14.0488155 11.3417088,14.0488155 11.1464466,13.8535534 C10.9511845,13.6582912 10.9511845,13.3417088 11.1464466,13.1464466 L11.1464466,13.1464466 Z" id="形状结合" fill="#5063C2" fill-rule="nonzero"></path>
    </g>
</svg>