<?xml version="1.0" encoding="UTF-8"?>
<svg width="24px" height="24px" viewBox="0 0 24 24" version="1.1" xmlns="http://www.w3.org/2000/svg" xmlns:xlink="http://www.w3.org/1999/xlink">
    <!-- Generator: Sketch 62 (91390) - https://sketch.com -->
    <title>icon/24px/搜索_mini</title>
    <desc>Created with Sketch.</desc>
    <g id="icon/24px/搜索_mini" stroke="none" stroke-width="1" fill="none" fill-rule="evenodd">
        <path d="M11,6 C13.7614237,6 16,8.23857625 16,11 C16,12.1978821 15.5787558,13.2973774 14.8763202,14.158433 L18.0265497,17.3091922 C18.2218118,17.5044543 18.2218118,17.8210368 18.0265497,18.016299 L18.016299,18.0265497 C17.8210368,18.2218118 17.5044543,18.2218118 17.3091922,18.0265497 L14.158433,14.8763202 C13.2973774,15.5787558 12.1978821,16 11,16 C8.23857625,16 6,13.7614237 6,11 C6,8.23857625 8.23857625,6 11,6 Z M11,7 C8.790861,7 7,8.790861 7,11 C7,13.209139 8.790861,15 11,15 C13.209139,15 15,13.209139 15,11 C15,8.790861 13.209139,7 11,7 Z" id="形状结合" fill="#999999"></path>
    </g>
</svg>