<?xml version="1.0" encoding="UTF-8"?>
<svg width="24px" height="24px" viewBox="0 0 24 24" version="1.1" xmlns="http://www.w3.org/2000/svg" xmlns:xlink="http://www.w3.org/1999/xlink">
    <!-- Generator: Sketch 62 (91390) - https://sketch.com -->
    <title>icon/24px/搜索</title>
    <desc>Created with Sketch.</desc>
    <g id="icon/24px/搜索" stroke="none" stroke-width="1" fill="none" fill-rule="evenodd">
        <path d="M10.854834,4 C14.6406543,4 17.709668,7.06901372 17.709668,10.854834 C17.709668,12.5715826 17.0785766,14.1409319 16.0357328,15.343543 L19.8565904,19.1641476 C20.0478032,19.3553604 20.0478032,19.6653776 19.8565904,19.8565904 C19.6653776,20.0478032 19.3553604,20.0478032 19.1641476,19.8565904 L15.343543,16.0357328 C14.1409319,17.0785766 12.5715826,17.709668 10.854834,17.709668 C7.06901372,17.709668 4,14.6406543 4,10.854834 C4,7.06901372 7.06901372,4 10.854834,4 Z M10.854834,4.979262 C7.60984519,4.979262 4.979262,7.60984519 4.979262,10.854834 C4.979262,14.0998228 7.60984519,16.730406 10.854834,16.730406 C14.0998228,16.730406 16.730406,14.0998228 16.730406,10.854834 C16.730406,7.60984519 14.0998228,4.979262 10.854834,4.979262 Z" id="形状结合" fill="#999999"></path>
    </g>
</svg>