<?xml version="1.0" encoding="UTF-8"?>
<svg width="24px" height="24px" viewBox="0 0 24 24" version="1.1" xmlns="http://www.w3.org/2000/svg" xmlns:xlink="http://www.w3.org/1999/xlink">
    <title>icon/24px/远程连接/dis</title>
    <g id="icon/24px/远程连接/dis" stroke="none" stroke-width="1" fill="none" fill-rule="evenodd">
        <rect id="矩形" stroke="#E6E6E6" stroke-width="0.5" fill="#F3F3F3" x="1.25" y="1.25" width="21.5" height="21.5" rx="4"></rect>
        <rect id="矩形" stroke="#C3C7D9" stroke-width="2" stroke-linecap="round" stroke-linejoin="round" x="5" y="7" width="14" height="8" rx="0.5"></rect>
        <path d="M15,17 C15.5522847,17 16,17.4477153 16,18 C16,18.5522847 15.5522847,19 15,19 L9,19 C8.44771525,19 8,18.5522847 8,18 C8,17.4477153 8.44771525,17 9,17 L15,17 Z M10,10 L10,12 L8,12 L8,10 L10,10 Z M13,10 L13,12 L11,12 L11,10 L13,10 Z M16,10 L16,12 L14,12 L14,10 L16,10 Z" id="形状结合" fill="#C3C7D9"></path>
    </g>
</svg>