<?xml version="1.0" encoding="UTF-8"?>
<svg width="24px" height="24px" viewBox="0 0 24 24" version="1.1" xmlns="http://www.w3.org/2000/svg" xmlns:xlink="http://www.w3.org/1999/xlink">
    <!-- Generator: Sketch 62 (91390) - https://sketch.com -->
    <title>icon/24px/share</title>
    <desc>Created with Sketch.</desc>
    <g id="icon/24px/share" stroke="none" stroke-width="1" fill="none" fill-rule="evenodd">
        <path d="M10.0555556,5.3 C10.4421549,5.3 10.7555556,5.61340068 10.7555556,6 C10.7555556,6.38659932 10.4421549,6.7 10.0555556,6.7 L5.72222222,6.7 C5.70994923,6.7 5.7,6.70994923 5.7,6.72222222 L5.7,18.2777778 C5.7,18.2900508 5.70994923,18.3 5.72222222,18.3 L17.2777778,18.3 C17.2900508,18.3 17.3,18.2900508 17.3,18.2777778 L17.3,13.9444444 C17.3,13.5578451 17.6134007,13.2444444 18,13.2444444 C18.3865993,13.2444444 18.7,13.5578451 18.7,13.9444444 L18.7,18.2777778 C18.7,19.0632494 18.0632494,19.7 17.2777778,19.7 L5.72222222,19.7 C4.93675058,19.7 4.3,19.0632494 4.3,18.2777778 L4.3,6.72222222 C4.3,5.93675058 4.93675058,5.3 5.72222222,5.3 L10.0555556,5.3 Z M17.2777778,5.3 C18.0632494,5.3 18.7,5.93675058 18.7,6.72222222 L18.7,11.0555556 C18.7,11.4421549 18.3865993,11.7555556 18,11.7555556 C17.6134007,11.7555556 17.3,11.4421549 17.3,11.0555556 L17.3,7.889 L10.0937554,15.0961941 C9.82038841,15.3695611 9.37717293,15.3695611 9.10380592,15.0961941 C8.83043892,14.8228271 8.83043892,14.3796116 9.10380592,14.1062446 L16.509,6.7 L12.9444444,6.7 C12.5578451,6.7 12.2444444,6.38659932 12.2444444,6 C12.2444444,5.61340068 12.5578451,5.3 12.9444444,5.3 L17.2777778,5.3 Z" id="Combined-Shape" fill="#999999"></path>
    </g>
</svg>