<?xml version="1.0" encoding="UTF-8"?>
<svg width="24px" height="24px" viewBox="0 0 24 24" version="1.1" xmlns="http://www.w3.org/2000/svg" xmlns:xlink="http://www.w3.org/1999/xlink">
    <title>icon/24px/home备份</title>
    <g id="icon/24px/home备份" stroke="none" stroke-width="1" fill="none" fill-rule="evenodd">
        <g>
            <g id="编组-9">
                <rect id="矩形" x="0" y="0" width="24" height="24"></rect>
            </g>
            <g id="九宫格" transform="translate(4.000000, 4.000000)" fill="#5C6280" fill-rule="nonzero">
                <path d="M3.5,12 C3.77614237,12 4,12.2238576 4,12.5 L4,15.5 C4,15.7761424 3.77614237,16 3.5,16 L0.5,16 C0.223857625,16 0,15.7761424 0,15.5 L0,12.5 C0,12.2238576 0.223857625,12 0.5,12 L3.5,12 Z M9.5,12 C9.77614237,12 10,12.2238576 10,12.5 L10,15.5 C10,15.7761424 9.77614237,16 9.5,16 L6.5,16 C6.22385763,16 6,15.7761424 6,15.5 L6,12.5 C6,12.2238576 6.22385763,12 6.5,12 L9.5,12 Z M15.5,12 C15.7761424,12 16,12.2238576 16,12.5 L16,15.5 C16,15.7761424 15.7761424,16 15.5,16 L12.5,16 C12.2238576,16 12,15.7761424 12,15.5 L12,12.5 C12,12.2238576 12.2238576,12 12.5,12 L15.5,12 Z M3,13 L1,13 L1,15 L3,15 L3,13 Z M9,13 L7,13 L7,15 L9,15 L9,13 Z M15,13 L13,13 L13,15 L15,15 L15,13 Z M3.5,6 C3.77614237,6 4,6.22385763 4,6.5 L4,9.5 C4,9.77614237 3.77614237,10 3.5,10 L0.5,10 C0.223857625,10 0,9.77614237 0,9.5 L0,6.5 C0,6.22385763 0.223857625,6 0.5,6 L3.5,6 Z M9.5,6 C9.77614237,6 10,6.22385763 10,6.5 L10,9.5 C10,9.77614237 9.77614237,10 9.5,10 L6.5,10 C6.22385763,10 6,9.77614237 6,9.5 L6,6.5 C6,6.22385763 6.22385763,6 6.5,6 L9.5,6 Z M15.5,6 C15.7761424,6 16,6.22385763 16,6.5 L16,9.5 C16,9.77614237 15.7761424,10 15.5,10 L12.5,10 C12.2238576,10 12,9.77614237 12,9.5 L12,6.5 C12,6.22385763 12.2238576,6 12.5,6 L15.5,6 Z M3,7 L1,7 L1,9 L3,9 L3,7 Z M9,7 L7,7 L7,9 L9,9 L9,7 Z M15,7 L13,7 L13,9 L15,9 L15,7 Z M3.5,0 C3.77614237,0 4,0.223857625 4,0.5 L4,3.5 C4,3.77614237 3.77614237,4 3.5,4 L0.5,4 C0.223857625,4 0,3.77614237 0,3.5 L0,0.5 C0,0.223857625 0.223857625,0 0.5,0 L3.5,0 Z M9.5,0 C9.77614237,0 10,0.223857625 10,0.5 L10,3.5 C10,3.77614237 9.77614237,4 9.5,4 L6.5,4 C6.22385763,4 6,3.77614237 6,3.5 L6,0.5 C6,0.223857625 6.22385763,0 6.5,0 L9.5,0 Z M15.5,0 C15.7761424,0 16,0.223857625 16,0.5 L16,3.5 C16,3.77614237 15.7761424,4 15.5,4 L12.5,4 C12.2238576,4 12,3.77614237 12,3.5 L12,0.5 C12,0.223857625 12.2238576,0 12.5,0 L15.5,0 Z M3,1 L1,1 L1,3 L3,3 L3,1 Z M9,1 L7,1 L7,3 L9,3 L9,1 Z M15,1 L13,1 L13,3 L15,3 L15,1 Z" id="形状"></path>
            </g>
        </g>
    </g>
</svg>