<?xml version="1.0" encoding="UTF-8"?>
<svg width="24px" height="24px" viewBox="0 0 24 24" version="1.1" xmlns="http://www.w3.org/2000/svg" xmlns:xlink="http://www.w3.org/1999/xlink">
    <title>icon/24px/获取key备份</title>
    <g id="icon/24px/获取key备份" stroke="none" stroke-width="1" fill="none" fill-rule="evenodd">
        <path d="M15,15 C15,15.5522847 14.5522847,16 14,16 C13.4477153,16 13,15.5522847 13,15 L13,15 L13,12.999 L11,13 C10.9577582,13 10.9161282,12.9973809 10.8752635,12.9922961 C10.4343432,14.7216399 8.86646011,16 7,16 C4.790861,16 3,14.209139 3,12 C3,9.790861 4.790861,8 7,8 C8.86646011,8 10.4343432,9.27836013 10.8758489,11.00728 L10.8833789,11.0067277 L11,11 L19,11 C19.5522847,11 20,11.4477153 20,12 C20,12.5522847 19.5522847,13 19,13 L19,13 L18,12.999 L18,15 C18,15.5128358 17.6139598,15.9355072 17.1166211,15.9932723 L17,16 C16.4477153,16 16,15.5522847 16,15 L16,15 L16,12.999 L15,12.999 Z M7,10 C5.8954305,10 5,10.8954305 5,12 C5,13.1045695 5.8954305,14 7,14 C8.1045695,14 9,13.1045695 9,12 C9,10.8954305 8.1045695,10 7,10 Z" id="形状结合" fill="#F79D3E" fill-rule="nonzero" transform="translate(11.500000, 12.000000) scale(-1, 1) rotate(-315.000000) translate(-11.500000, -12.000000) "></path>
    </g>
</svg>