<?xml version="1.0" encoding="UTF-8"?>
<svg width="24px" height="24px" viewBox="0 0 24 24" version="1.1" xmlns="http://www.w3.org/2000/svg" xmlns:xlink="http://www.w3.org/1999/xlink">
    <title>icon/24px/编辑监控设备备份</title>
    <g id="icon/24px/编辑监控设备备份" stroke="none" stroke-width="1" fill="none" fill-rule="evenodd">
        <path d="M12,6 C12.5522847,6 13,6.44771525 13,7 C13,7.55228475 12.5522847,8 12,8 L12,8 L8,8 L8,16 L16,16 L16,12 C16,11.4477153 16.4477153,11 17,11 C17.5522847,11 18,11.4477153 18,12 L18,12 L18,16 C18,17.1045695 17.1045695,18 16,18 L16,18 L8,18 C6.8954305,18 6,17.1045695 6,16 L6,16 L6,8 C6,6.8954305 6.8954305,6 8,6 L8,6 Z M17.2928932,5.29289322 C17.6834175,4.90236893 18.3165825,4.90236893 18.7071068,5.29289322 C19.0976311,5.68341751 19.0976311,6.31658249 18.7071068,6.70710678 L18.7071068,6.70710678 L13.7071068,11.7071068 C13.3165825,12.0976311 12.6834175,12.0976311 12.2928932,11.7071068 C11.9023689,11.3165825 11.9023689,10.6834175 12.2928932,10.2928932 L12.2928932,10.2928932 Z" id="形状结合" fill="#69BDFA" fill-rule="nonzero"></path>
    </g>
</svg>