<?xml version="1.0" encoding="UTF-8"?>
<svg width="24px" height="24px" viewBox="0 0 24 24" version="1.1" xmlns="http://www.w3.org/2000/svg" xmlns:xlink="http://www.w3.org/1999/xlink">
    <!-- Generator: Sketch 62 (91390) - https://sketch.com -->
    <title>icon/24px/dislike_active_copy</title>
    <desc>Created with Sketch.</desc>
    <g id="icon/24px/dislike_active_copy" stroke="none" stroke-width="1" fill="none" fill-rule="evenodd">
        <path d="M7.5,12.109375 C7.5,12.4609393 7.37695436,12.7597644 7.13085938,13.0058594 C6.88476439,13.2519544 6.58593926,13.375 6.234375,13.375 L5.390625,13.375 C5.03906074,13.375 4.74023561,13.2519544 4.49414062,13.0058594 C4.24804564,12.7597644 4.125,12.4609393 4.125,12.109375 L4.125,5.640625 C4.125,5.28906074 4.24804564,4.99023561 4.49414062,4.74414062 C4.74023561,4.49804564 5.03906074,4.375 5.390625,4.375 L6.234375,4.375 C6.58593926,4.375 6.88476439,4.49804564 7.13085938,4.74414062 C7.37695436,4.99023561 7.5,5.28906074 7.5,5.640625 L7.5,12.109375 Z M19.8222656,12.9179688 C19.6933587,13.4218775 19.4179709,13.7499992 18.9960938,13.9023438 C18.7499988,13.9726566 18.5039075,14.0078125 18.2578125,14.0078125 L14.2851562,14.0078125 C14.203125,14.0078125 14.1562501,14.0166015 14.1445312,14.0341797 C14.1328124,14.0517579 14.1328124,14.1015621 14.1445312,14.1835938 C14.1679689,14.3007818 14.1943358,14.4560537 14.2236328,14.6494141 C14.2529298,14.8427744 14.2822264,15.0214836 14.3115234,15.1855469 C14.3408205,15.3496102 14.3671874,15.5019524 14.390625,15.6425781 C14.5312507,16.3691443 14.5078134,17.0078097 14.3203125,17.5585938 C14.2499996,17.7578135 14.0390643,18.3261672 13.6875,19.2636719 C13.5703119,19.5917985 13.3593765,19.8203119 13.0546875,19.9492188 C12.4335906,20.2070325 11.8359404,20.1894546 11.2617188,19.8964844 C10.8632793,19.6855458 10.6699218,19.3691427 10.6816406,18.9472656 C10.6816406,18.8300775 10.6874999,18.5488304 10.6992188,18.1035156 C10.7109376,17.6582009 10.7226562,17.3183605 10.734375,17.0839844 C10.7460938,16.8730458 10.6992193,16.6796884 10.59375,16.5039063 C9.73827697,15.0390552 9.29296893,14.277344 9.2578125,14.21875 C9.21093727,14.1484371 9.04687641,13.960939 8.765625,13.65625 C8.56640525,13.4453114 8.42578166,13.269532 8.34375,13.1289063 C8.26171834,12.9882805 8.22070312,12.8183604 8.22070312,12.6191406 C8.22070312,9.29099898 8.21484381,6.96485037 8.203125,5.640625 C8.203125,5.28906074 8.3291003,4.99023561 8.58105469,4.74414062 C8.83300907,4.49804564 9.13476387,4.375 9.48632812,4.375 L16.3417969,4.375 C16.8105492,4.375 17.1972641,4.42773385 17.5019531,4.53320312 C17.876955,4.65039121 18.1757801,4.84960797 18.3984375,5.13085938 C18.6210949,5.41211078 18.7499998,5.75195113 18.7851562,6.15039062 C18.8085939,6.49023607 18.773438,6.78320189 18.6796875,7.02929688 C18.6679687,7.07617211 18.6796873,7.12890596 18.7148438,7.1875 C19.0429704,7.62109592 19.1953126,8.06640396 19.171875,8.5234375 C19.1601562,8.64062559 19.119141,8.81054576 19.0488281,9.03320312 C19.0136717,9.11523479 19.0253903,9.1914059 19.0839844,9.26171875 C19.3886734,9.64843943 19.5351563,10.0527323 19.5234375,10.4746094 C19.5234375,10.556641 19.5029299,10.6796867 19.4619141,10.84375 C19.4208982,11.0078133 19.4003906,11.0957031 19.4003906,11.1074219 C19.376953,11.1894535 19.376953,11.2421874 19.4003906,11.265625 C19.623048,11.5234388 19.7753902,11.8398419 19.8574219,12.2148438 C19.8574219,12.2265626 19.8632812,12.2382812 19.875,12.25 L19.875,12.7421875 C19.8515624,12.8242192 19.8339844,12.8828123 19.8222656,12.9179688 Z" id="" fill="#5063C2" fill-rule="nonzero"></path>
    </g>
</svg>