<?xml version="1.0" encoding="UTF-8"?>
<svg width="24px" height="24px" viewBox="0 0 24 24" version="1.1" xmlns="http://www.w3.org/2000/svg" xmlns:xlink="http://www.w3.org/1999/xlink">
    <title>icon/24px/工作台备份</title>
    <g id="icon/24px/工作台备份" stroke="none" stroke-width="1" fill="none" fill-rule="evenodd">
        <path d="M16,18 C16.5522847,18 17,18.4477153 17,19 C17,19.5522847 16.5522847,20 16,20 L8,20 C7.44771525,20 7,19.5522847 7,19 C7,18.4477153 7.44771525,18 8,18 L16,18 Z M17,6 C18.1045695,6 19,6.8954305 19,8 L19,8 L19,14 C19,15.1045695 18.1045695,16 17,16 L17,16 L7,16 C5.8954305,16 5,15.1045695 5,14 L5,14 L5,8 C5,6.8954305 5.8954305,6 7,6 L7,6 Z M17,8 L7,8 L7,14 L17,14 L17,8 Z" id="形状结合" fill="#69BDFA" fill-rule="nonzero"></path>
    </g>
</svg>