<?xml version="1.0" encoding="UTF-8"?>
<svg width="24px" height="24px" viewBox="0 0 24 24" version="1.1" xmlns="http://www.w3.org/2000/svg" xmlns:xlink="http://www.w3.org/1999/xlink">
    <title>icon/24px/设置告警备份</title>
    <g id="icon/24px/设置告警备份" stroke="none" stroke-width="1" fill="none" fill-rule="evenodd">
        <path d="M12,4 C16.418278,4 20,7.581722 20,12 C20,16.418278 16.418278,20 12,20 C7.581722,20 4,16.418278 4,12 C4,7.581722 7.581722,4 12,4 Z M12,6 C8.6862915,6 6,8.6862915 6,12 C6,15.3137085 8.6862915,18 12,18 C15.3137085,18 18,15.3137085 18,12 C18,8.6862915 15.3137085,6 12,6 Z M11.1055728,7.5527864 C11.3525621,7.05880791 11.9532351,6.85858356 12.4472136,7.10557281 C12.9411921,7.35256206 13.1414164,7.9532351 12.8944272,8.4472136 L12.8944272,8.4472136 L11.618034,11 L14,11 C14.743382,11 15.2268777,11.7823125 14.8944272,12.4472136 L14.8944272,12.4472136 L12.8944272,16.4472136 C12.6474379,16.9411921 12.0467649,17.1414164 11.5527864,16.8944272 C11.0588079,16.6474379 10.8585836,16.0467649 11.1055728,15.5527864 L11.1055728,15.5527864 L12.381966,13 L10,13 C9.25661798,13 8.77312226,12.2176875 9.10557281,11.5527864 L9.10557281,11.5527864 Z" id="形状结合" fill="#F79D3E" fill-rule="nonzero"></path>
    </g>
</svg>