<?xml version="1.0" encoding="UTF-8"?>
<svg width="24px" height="24px" viewBox="0 0 24 24" version="1.1" xmlns="http://www.w3.org/2000/svg" xmlns:xlink="http://www.w3.org/1999/xlink">
    <title>icon/24px/home备份</title>
    <g id="icon/24px/home备份" stroke="none" stroke-width="1" fill="none" fill-rule="evenodd">
        <g>
            <rect id="矩形" x="0" y="0" width="24" height="24"></rect>
            <g id="编组-2" transform="translate(4.000000, 4.000000)">
                <path d="M1,0 L3.75494385,0 C4.3072286,-1.01453063e-16 4.75494385,0.44771525 4.75494385,1 L4.75494385,15 C4.75494385,15.5522847 4.3072286,16 3.75494385,16 L1,16 C0.44771525,16 -5.64147706e-13,15.5522847 -5.64437386e-13,15 L-5.64437386e-13,1 C-5.64505021e-13,0.44771525 0.44771525,1.01453063e-16 1,0 Z" id="矩形" fill="#FFFFFF"></path>
                <line x1="1.90002441" y1="2.28571429" x2="2.86755371" y2="2.28571429" id="直线-2" stroke="#3F50B4" stroke-width="0.8" stroke-linecap="round"></line>
                <line x1="1.90002441" y1="4.19047619" x2="2.86755371" y2="4.19047619" id="直线-2" stroke="#3F50B4" stroke-width="0.8" stroke-linecap="round"></line>
                <line x1="1.90002441" y1="6.0952381" x2="2.86755371" y2="6.0952381" id="直线-2" stroke="#3F50B4" stroke-width="0.8" stroke-linecap="round"></line>
            </g>
            <g id="编组-2" transform="translate(10.000000, 4.000000)">
                <path d="M1,0 L3.75494385,0 C4.3072286,-1.01453063e-16 4.75494385,0.44771525 4.75494385,1 L4.75494385,15 C4.75494385,15.5522847 4.3072286,16 3.75494385,16 L1,16 C0.44771525,16 -5.64147706e-13,15.5522847 -5.64437386e-13,15 L-5.64437386e-13,1 C-5.64505021e-13,0.44771525 0.44771525,1.01453063e-16 1,0 Z" id="矩形" fill="#FFFFFF"></path>
                <line x1="1.90002441" y1="2.28571429" x2="2.86755371" y2="2.28571429" id="直线-2" stroke="#3F50B4" stroke-width="0.8" stroke-linecap="round"></line>
                <line x1="1.90002441" y1="4.19047619" x2="2.86755371" y2="4.19047619" id="直线-2" stroke="#3F50B4" stroke-width="0.8" stroke-linecap="round"></line>
                <line x1="1.90002441" y1="6.0952381" x2="2.86755371" y2="6.0952381" id="直线-2" stroke="#3F50B4" stroke-width="0.8" stroke-linecap="round"></line>
            </g>
            <g id="编组-2" transform="translate(16.000000, 4.000000)">
                <path d="M1,0 L3.75494385,0 C4.3072286,-1.01453063e-16 4.75494385,0.44771525 4.75494385,1 L4.75494385,15 C4.75494385,15.5522847 4.3072286,16 3.75494385,16 L1,16 C0.44771525,16 -5.64147706e-13,15.5522847 -5.64437386e-13,15 L-5.64437386e-13,1 C-5.64505021e-13,0.44771525 0.44771525,1.01453063e-16 1,0 Z" id="矩形" fill="#FFFFFF"></path>
                <line x1="1.90002441" y1="2.28571429" x2="2.86755371" y2="2.28571429" id="直线-2" stroke="#3F50B4" stroke-width="0.8" stroke-linecap="round"></line>
                <line x1="1.90002441" y1="4.19047619" x2="2.86755371" y2="4.19047619" id="直线-2" stroke="#3F50B4" stroke-width="0.8" stroke-linecap="round"></line>
                <line x1="1.90002441" y1="6.0952381" x2="2.86755371" y2="6.0952381" id="直线-2" stroke="#3F50B4" stroke-width="0.8" stroke-linecap="round"></line>
            </g>
        </g>
    </g>
</svg>