<?xml version="1.0" encoding="UTF-8"?>
<svg width="24px" height="24px" viewBox="0 0 24 24" version="1.1" xmlns="http://www.w3.org/2000/svg" xmlns:xlink="http://www.w3.org/1999/xlink">
    <title>icon/24px/查看剖视图</title>
    <g id="icon/24px/查看剖视图" stroke="none" stroke-width="1" fill="none" fill-rule="evenodd">
        <path d="M15,11 C17.209139,11 19,12.790861 19,15 C19,15.7418188 18.798065,16.4364732 18.4461664,17.031992 L19.9497475,18.5355339 C20.3402718,18.9260582 20.3402718,19.5592232 19.9497475,19.9497475 C19.5592232,20.3402718 18.9260582,20.3402718 18.5355339,19.9497475 L17.031992,18.4461664 C16.4364732,18.798065 15.7418188,19 15,19 C12.790861,19 11,17.209139 11,15 C11,12.790861 12.790861,11 15,11 Z M16,5 C17.0543618,5 17.9181651,5.81587779 17.9945143,6.85073766 L18,7 L18,9 C18,9.55228475 17.5522847,10 17,10 C16.4871642,10 16.0644928,9.61395981 16.0067277,9.11662113 L16,9 L16,7 L7,7 L7,16 L9,16 C9.55228475,16 10,16.4477153 10,17 C10,17.5128358 9.61395981,17.9355072 9.11662113,17.9932723 L9,18 L7,18 C5.9456382,18 5.08183488,17.1841222 5.00548574,16.1492623 L5,16 L5,7 C5,5.9456382 5.81587779,5.08183488 6.85073766,5.00548574 L7,5 L16,5 Z M15,13 C13.8954305,13 13,13.8954305 13,15 C13,16.1045695 13.8954305,17 15,17 C16.1045695,17 17,16.1045695 17,15 C17,13.8954305 16.1045695,13 15,13 Z" id="形状结合" fill="#69BDFA" fill-rule="nonzero"></path>
    </g>
</svg>