<?xml version="1.0" encoding="UTF-8"?>
<svg width="24px" height="24px" viewBox="0 0 24 24" version="1.1" xmlns="http://www.w3.org/2000/svg" xmlns:xlink="http://www.w3.org/1999/xlink">
    <!-- Generator: Sketch 62 (91390) - https://sketch.com -->
    <title>icon/24px/like_active_copy</title>
    <desc>Created with Sketch.</desc>
    <g id="icon/24px/like_active_copy" stroke="none" stroke-width="1" fill="none" fill-rule="evenodd">
        <path d="M6.234375,11.125 C6.58593926,11.125 6.88476439,11.2480456 7.13085938,11.4941406 C7.37695436,11.7402356 7.5,12.0390607 7.5,12.390625 L7.5,18.859375 C7.5,19.2109393 7.37695436,19.5097644 7.13085938,19.7558594 C6.88476439,20.0019544 6.58593926,20.125 6.234375,20.125 L5.390625,20.125 C5.03906074,20.125 4.74023561,20.0019544 4.49414062,19.7558594 C4.24804564,19.5097644 4.125,19.2109393 4.125,18.859375 L4.125,12.390625 C4.125,12.0390607 4.24804564,11.7402356 4.49414062,11.4941406 C4.74023561,11.2480456 5.03906074,11.125 5.390625,11.125 L6.234375,11.125 Z M19.8222656,11.5820312 C19.8339844,11.6171877 19.8515624,11.6699215 19.875,11.7402344 L19.875,12.25 C19.8632812,12.2617188 19.8574219,12.2734374 19.8574219,12.2851562 C19.7753902,12.6601581 19.623048,12.9707019 19.4003906,13.2167969 C19.376953,13.2519533 19.376953,13.3046871 19.4003906,13.375 C19.4003906,13.3984376 19.4208982,13.4921867 19.4619141,13.65625 C19.5029299,13.8203133 19.5234375,13.943359 19.5234375,14.0253906 C19.5351563,14.4472677 19.3886734,14.8515606 19.0839844,15.2382812 C19.0253903,15.3085941 19.0136717,15.3847652 19.0488281,15.4667969 C19.119141,15.6894542 19.1601562,15.8593744 19.171875,15.9765625 C19.1953126,16.433596 19.0429704,16.8789041 18.7148438,17.3125 C18.6796873,17.371094 18.6679687,17.4238279 18.6796875,17.4707031 C18.773438,17.7167981 18.8085939,18.0097639 18.7851562,18.3496094 C18.7499998,18.7480489 18.6210949,19.0878892 18.3984375,19.3691406 C18.1757801,19.650392 17.876955,19.8496088 17.5019531,19.9667969 C17.1972641,20.0722662 16.8105492,20.125 16.3417969,20.125 C15.4628862,20.125 13.1777528,20.125 9.48632812,20.125 C9.13476387,20.125 8.83300907,20.0019544 8.58105469,19.7558594 C8.3291003,19.5097644 8.203125,19.2109393 8.203125,18.859375 C8.21484381,17.5351496 8.22070312,15.209001 8.22070312,11.8808594 C8.22070312,11.6816396 8.26171834,11.5117195 8.34375,11.3710937 C8.42578166,11.230468 8.56640525,11.0546886 8.765625,10.84375 C9.04687641,10.539061 9.21093727,10.3515629 9.2578125,10.28125 C9.29296893,10.222656 9.73827697,9.46094482 10.59375,7.99609375 C10.6992193,7.82031162 10.7460938,7.62695418 10.734375,7.41601562 C10.7226562,7.18163945 10.7109376,6.8417991 10.6992188,6.39648438 C10.6874999,5.95116965 10.6816406,5.66992246 10.6816406,5.55273438 C10.6699218,5.13085727 10.8632793,4.81445418 11.2617188,4.60351562 C11.8359404,4.31054541 12.4335906,4.29296746 13.0546875,4.55078125 C13.3593765,4.67968814 13.5703119,4.90820148 13.6875,5.23632812 C14.0390643,6.17383281 14.2499996,6.7421865 14.3203125,6.94140625 C14.5078134,7.49219025 14.5312507,8.13085574 14.390625,8.85742188 C14.3671874,8.99804758 14.3408205,9.1503898 14.3115234,9.31445312 C14.2822264,9.47851645 14.2529298,9.6572256 14.2236328,9.85058594 C14.1943358,10.0439463 14.1679689,10.1992182 14.1445312,10.3164062 C14.1328124,10.3984379 14.1328124,10.4482421 14.1445312,10.4658203 C14.1562501,10.4833985 14.203125,10.4921875 14.2851562,10.4921875 C16.6406368,10.4921875 17.9648423,10.4921875 18.2578125,10.4921875 C18.5039075,10.4921875 18.7499988,10.5273434 18.9960938,10.5976562 C19.4179709,10.7500008 19.6933587,11.0781225 19.8222656,11.5820312 Z" id="" fill="#F26861" fill-rule="nonzero"></path>
    </g>
</svg>