<?xml version="1.0" encoding="UTF-8"?>
<svg width="32px" height="32px" viewBox="0 0 32 32" version="1.1" xmlns="http://www.w3.org/2000/svg" xmlns:xlink="http://www.w3.org/1999/xlink">
    <!-- Generator: Sketch 62 (91390) - https://sketch.com -->
    <title>icon/32px/收藏</title>
    <desc>Created with Sketch.</desc>
    <g id="icon/32px/收藏" stroke="none" stroke-width="1" fill="none" fill-rule="evenodd">
        <path d="M5,13.6306019 C5,18.6218914 8.59845691,22.7131204 15.5839331,25.909334 C15.8481395,26.030222 16.1518605,26.030222 16.4160669,25.909334 C23.4015431,22.7131204 27,18.6218914 27,13.6306019 C27,7.18976508 19.7555881,4.67576314 16,9.6494255 C12.2444119,4.67576314 5,7.18976508 5,13.6306019 Z M7,13.6306019 C7,8.68581983 12.7260611,7.10893051 15.1002196,12.0046689 C15.4646756,12.7562115 16.5353244,12.7562115 16.8997804,12.0046689 C19.2739389,7.10893051 25,8.68581983 25,13.6306019 C25,17.6079387 22.0659089,21.0317244 16,23.8972408 C9.93409112,21.0317244 7,17.6079387 7,13.6306019 Z" id="椭圆形" fill="#5063C2" fill-rule="nonzero"></path>
    </g>
</svg>