<?xml version="1.0" encoding="UTF-8"?>
<svg width="32px" height="32px" viewBox="0 0 32 32" version="1.1" xmlns="http://www.w3.org/2000/svg" xmlns:xlink="http://www.w3.org/1999/xlink">
    <!-- Generator: Sketch 62 (91390) - https://sketch.com -->
    <title>icon/32px/me备份</title>
    <desc>Created with Sketch.</desc>
    <g id="icon/32px/me备份" stroke="none" stroke-width="1" fill="none" fill-rule="evenodd">
        <path d="M16.0576995,18 C21.3781557,18 27,20.1972573 27,23.5657347 C27,25.4045083 26.2403526,25.9854194 24.6681197,25.9854194 C24.4164719,25.9854194 24.1539783,25.9847406 23.8260114,25.9833569 C23.6232172,25.9825013 23.3780626,25.9812995 22.878825,25.9788365 C20.8156369,25.968995 18.9979236,25.968995 16.0800406,25.9854036 C12.8352281,26.0036506 10.6813774,26.0036506 8.7776405,25.9926931 C8.56189269,25.9914513 8.32897345,25.9899542 7.97629098,25.9876786 C7.82337201,25.9867367 7.70464268,25.9861118 7.60445985,25.9857625 L7.42418783,25.9854194 C5.74317809,25.9854194 5,25.4792111 5,23.6990884 C5,20.2655123 10.6833152,18 16.0576995,18 Z M16.0576995,20 C11.6981029,20 7,21.872782 7,23.6990884 C7,23.8141848 7.00451093,23.9082224 7.01187273,23.9816384 C7.09336605,23.9822063 7.22656515,23.9854194 7.42418783,23.9854194 L7.60992239,23.9857691 C7.71254552,23.9861247 7.8333913,23.9867605 7.98860977,23.9877166 C8.34214194,23.9899974 8.57420574,23.9914891 8.7891518,23.9927263 C10.6852582,24.0036398 12.8315238,24.0036398 16.0687939,23.9854352 C18.9939118,23.968986 20.8185069,23.968986 22.8883649,23.9788592 C23.388138,23.9813248 23.6324562,23.9825224 23.8344495,23.9833747 C24.1598287,23.9847475 24.4196607,23.9854194 24.6681197,23.9854194 L24.7702828,23.9850752 C24.8633924,23.984476 24.9298169,23.983379 24.973838,23.9841911 C24.9899884,23.8842418 25,23.7451705 25,23.5657347 C25,21.8150661 20.3560201,20 16.0576995,20 Z M16,6 C18.7614237,6 21,8.23857625 21,11 C21,13.7614237 18.7614237,16 16,16 C13.2385763,16 11,13.7614237 11,11 C11,8.23857625 13.2385763,6 16,6 Z M16,8 C14.3431458,8 13,9.34314575 13,11 C13,12.6568542 14.3431458,14 16,14 C17.6568542,14 19,12.6568542 19,11 C19,9.34314575 17.6568542,8 16,8 Z" id="Combined-Shape" fill="#5063C2" fill-rule="nonzero"></path>
    </g>
</svg>