<?xml version="1.0" encoding="UTF-8"?>
<svg width="28px" height="28px" viewBox="0 0 28 28" version="1.1" xmlns="http://www.w3.org/2000/svg" xmlns:xlink="http://www.w3.org/1999/xlink">
    <!-- Generator: Sketch 62 (91390) - https://sketch.com -->
    <title>icon/32px/收藏</title>
    <desc>Created with Sketch.</desc>
    <g id="icon/32px/收藏" stroke="none" stroke-width="1" fill="none" fill-rule="evenodd">
        <g id="编组-4" transform="translate(-2.000000, -2.000000)" fill="#F1F1F1" fill-opacity="0">
            <rect id="矩形" x="0" y="0" width="32" height="32"></rect>
        </g>
        <path d="M3,11.6158024 C3,16.6130638 6.59845691,20.7091877 13.5839331,23.9092255 C13.8481395,24.0302582 14.1518605,24.0302582 14.4160669,23.9092255 C21.4015431,20.7091877 25,16.6130638 25,11.6158024 C25,5.16725941 17.7555881,2.65024958 14,7.62986272 C10.2444119,2.65024958 3,5.16725941 3,11.6158024 Z M5,11.6158024 C5,6.66510414 10.7260611,5.08632813 13.1002196,9.98792405 C13.4646756,10.7403659 14.5353244,10.7403659 14.8997804,9.98792405 C17.2739389,5.08632813 23,6.66510414 23,11.6158024 C23,15.597898 20.0659089,19.0257801 14,21.8947249 C7.93409112,19.0257801 5,15.597898 5,11.6158024 Z" id="椭圆形" fill="#5063C2" fill-rule="nonzero"></path>
    </g>
</svg>