<?xml version="1.0" encoding="UTF-8"?>
<svg width="32px" height="32px" viewBox="0 0 32 32" version="1.1" xmlns="http://www.w3.org/2000/svg" xmlns:xlink="http://www.w3.org/1999/xlink">
    <!-- Generator: Sketch 62 (91390) - https://sketch.com -->
    <title>icon/32px/share</title>
    <desc>Created with Sketch.</desc>
    <g id="icon/32px/share" stroke="none" stroke-width="1" fill="none" fill-rule="evenodd">
        <path d="M14,6 C14.5522847,6 15,6.44771525 15,7 C15,7.55228475 14.5522847,8 14,8 L8,8 L8,24 L24,24 L24,18 C24,17.4477153 24.4477153,17 25,17 C25.5522847,17 26,17.4477153 26,18 L26,24 C26,25.1045695 25.1045695,26 24,26 L8,26 C6.8954305,26 6,25.1045695 6,24 L6,8 C6,6.8954305 6.8954305,6 8,6 L14,6 Z M24,6 C25.1045695,6 26,6.8954305 26,8 L26,14 C26,14.5522847 25.5522847,15 25,15 C24.4477153,15 24,14.5522847 24,14 L24,9.413 L13.5147186,19.8994949 C13.1241943,20.2900192 12.4910294,20.2900192 12.1005051,19.8994949 C11.7099808,19.5089706 11.7099808,18.8758057 12.1005051,18.4852814 L22.585,8 L18,8 C17.4477153,8 17,7.55228475 17,7 C17,6.44771525 17.4477153,6 18,6 L24,6 Z" id="Combined-Shape" fill="#5063C2" fill-rule="nonzero"></path>
    </g>
</svg>