<?xml version="1.0" encoding="UTF-8"?>
<svg width="12px" height="12px" viewBox="0 0 12 12" version="1.1" xmlns="http://www.w3.org/2000/svg" xmlns:xlink="http://www.w3.org/1999/xlink">
    <!-- Generator: Sketch 62 (91390) - https://sketch.com -->
    <title>icon/12px/新建</title>
    <desc>Created with Sketch.</desc>
    <g id="icon/12px/新建" stroke="none" stroke-width="1" fill="none" fill-rule="evenodd">
        <path d="M6,1.75 C8.34721019,1.75 10.25,3.65278981 10.25,6 C10.25,8.34721019 8.34721019,10.25 6,10.25 C3.65278981,10.25 1.75,8.34721019 1.75,6 C1.75,3.65278981 3.65278981,1.75 6,1.75 Z M6,2.25 C3.92893219,2.25 2.25,3.92893219 2.25,6 C2.25,8.07106781 3.92893219,9.75 6,9.75 C8.07106781,9.75 9.75,8.07106781 9.75,6 C9.75,3.92893219 8.07106781,2.25 6,2.25 Z M6,3.75 C6.13807119,3.75 6.25,3.86192881 6.25,4 L6.25,4 L6.25,5.75 L8,5.75 C8.11834673,5.75 8.21748682,5.83223341 8.24339732,5.94267729 L8.25,6 C8.25,6.13807119 8.13807119,6.25 8,6.25 L8,6.25 L6.25,6.25 L6.25,8 C6.25,8.11834673 6.16776659,8.21748682 6.05732271,8.24339732 L6,8.25 C5.86192881,8.25 5.75,8.13807119 5.75,8 L5.75,8 L5.75,6.25 L4,6.25 C3.88165327,6.25 3.78251318,6.16776659 3.75660268,6.05732271 L3.75,6 C3.75,5.86192881 3.86192881,5.75 4,5.75 L4,5.75 L5.75,5.75 L5.75,4 C5.75,3.88165327 5.83223341,3.78251318 5.94267729,3.75660268 Z" id="形状结合" fill="#5C6280"></path>
    </g>
</svg>