<?xml version="1.0" encoding="UTF-8"?>
<svg width="20px" height="20px" viewBox="0 0 20 20" version="1.1" xmlns="http://www.w3.org/2000/svg" xmlns:xlink="http://www.w3.org/1999/xlink">
    <!-- Generator: Sketch 62 (91390) - https://sketch.com -->
    <title>icon/输入框后提示/正确</title>
    <desc>Created with Sketch.</desc>
    <g id="icon/输入框后提示/正确" stroke="none" stroke-width="1" fill="none" fill-rule="evenodd">
        <path d="M19.7719318,4.27093556 C19.4552849,3.92479653 18.9270105,3.90693992 18.5936773,4.23684741 L7.72542644,14.9394547 L1.40713465,8.71545246 C1.07217399,8.38720827 0.545487908,8.40179563 0.228821358,8.74795378 C-0.087845192,9.09409281 -0.0744922557,9.64497102 0.260527229,9.97327256 L7.15213253,16.7627021 C7.20544624,16.8147616 7.26711288,16.8439554 7.32875992,16.8781201 C7.35707363,16.8960149 7.38048539,16.9203909 7.41046577,16.9316708 C7.5121324,16.975624 7.61879903,17 7.72542644,17 C7.83205385,17 7.9387793,16.975624 8.03874005,16.9333532 C8.06705376,16.9220351 8.0904067,16.8976591 8.11707335,16.8814084 C8.1787596,16.8472438 8.24375958,16.8164058 8.29713211,16.7643463 L19.7386181,5.49625434 C20.0736376,5.16634685 20.088618,4.61869965 19.7719318,4.27093556 Z" id="路径" fill="#00C653"></path>
    </g>
</svg>