<?xml version="1.0" encoding="UTF-8"?>
<svg width="12px" height="12px" viewBox="0 0 12 12" version="1.1" xmlns="http://www.w3.org/2000/svg" xmlns:xlink="http://www.w3.org/1999/xlink">
    <!-- Generator: Sketch 62 (91390) - https://sketch.com -->
    <title>icon/12px/关联</title>
    <desc>Created with Sketch.</desc>
    <g id="icon/12px/关联" stroke="none" stroke-width="1" fill="none" fill-rule="evenodd" stroke-linejoin="round">
        <path d="M4,10 C3.44771525,10 3,9.55228475 3,9 L3,3 C3,2.44771525 3.44771525,2 4,2 L8,2 C8.55228475,2 9,2.44771525 9,3 L9,3.5" id="路径" stroke="#5063C2" stroke-width="0.5" stroke-linecap="round"></path>
        <g id="编组" transform="translate(8.000000, 7.500000) rotate(-315.000000) translate(-8.000000, -7.500000) translate(7.000000, 4.000000)" stroke="#5063C2" stroke-width="0.5">
            <path d="M1.5,4 C1.77614237,4 2,4.22385763 2,4.5 L2,6.5 C2,6.77614237 1.77614237,7 1.5,7 L0.5,7 C0.223857625,7 0,6.77614237 0,6.5 L0,4.5 C0,4.22385763 0.223857625,4 0.5,4 L0.5,4 L0.5,4" id="路径"></path>
            <path d="M0.5,3 C0.223857625,3 0,2.77614237 0,2.5 L0,0.5 C0,0.223857625 0.223857625,0 0.5,0 L1.5,0 C1.77614237,0 2,0.223857625 2,0.5 L2,2.5 C2,2.77614237 1.77614237,3 1.5,3 L1.5,3 L1.5,3" id="路径"></path>
            <line x1="1" y1="1" x2="1" y2="6" id="路径-10" stroke-linecap="round"></line>
        </g>
        <line x1="4.5" y1="4" x2="7" y2="4" id="路径-11" stroke="#5063C2" stroke-width="0.5" stroke-linecap="round"></line>
        <line x1="4.5" y1="6" x2="6" y2="6" id="路径-11" stroke="#5063C2" stroke-width="0.5" stroke-linecap="round"></line>
        <line x1="4.5" y1="8" x2="5" y2="8" id="路径-11" stroke="#5063C2" stroke-width="0.5" stroke-linecap="round"></line>
        <path d="M8,10 C8.55228475,10 9,9.55228475 9,9 L9,9 L9,9" id="路径-12" stroke="#5063C2" stroke-width="0.5" stroke-linecap="round"></path>
    </g>
</svg>