<?xml version="1.0" encoding="UTF-8"?>
<svg width="100px" height="100px" viewBox="0 0 100 100" version="1.1" xmlns="http://www.w3.org/2000/svg" xmlns:xlink="http://www.w3.org/1999/xlink">
    <!-- Generator: Sketch 62 (91390) - https://sketch.com -->
    <title>icon/默认头像@2x</title>
    <desc>Created with Sketch.</desc>
    <defs>
        <rect id="path-1" x="0.000451605527" y="0" width="100" height="100" rx="50"></rect>
        <linearGradient x1="38.7811634%" y1="8.14485647%" x2="50%" y2="100%" id="linearGradient-3">
            <stop stop-color="#777777" offset="0%"></stop>
            <stop stop-color="#5B5B5B" offset="100%"></stop>
        </linearGradient>
        <linearGradient x1="54.5150578%" y1="8.24239775%" x2="42.0274807%" y2="100%" id="linearGradient-4">
            <stop stop-color="#333333" offset="0%"></stop>
            <stop stop-color="#696969" offset="100%"></stop>
        </linearGradient>
        <linearGradient x1="5.64016796%" y1="37.5685366%" x2="77.3708821%" y2="66.9525706%" id="linearGradient-5">
            <stop stop-color="#707070" offset="0%"></stop>
            <stop stop-color="#494949" offset="100%"></stop>
        </linearGradient>
    </defs>
    <g id="icon/默认头像" stroke="none" stroke-width="1" fill="none" fill-rule="evenodd">
        <g id="patient-active">
            <mask id="mask-2" fill="white">
                <use xlink:href="#path-1"></use>
            </mask>
            <rect stroke="#F5F5F5" x="-0.499548394" y="-0.5" width="101" height="101" rx="50.5"></rect>
            <g id="Group-2" mask="url(#mask-2)">
                <g transform="translate(11.000000, 18.000000)">
                    <rect id="Rectangle-3-Copy" fill="#EDEDED" x="27.0004516" y="32" width="24" height="46"></rect>
                    <path d="M23,36 C24.5002258,36 25,33.1703545 25,30.6920417 C25,28.2137289 25.1076239,27.7976825 22,26.2046594 C20,25.179424 20,28.2137289 20,30.6920417 C20,33.1703545 21.4997742,36 23,36 Z" id="Oval-2" fill="#E9E9E9"></path>
                    <path d="M56.0004516,36 C57.5006774,36 58,33.1703545 58,30.6920417 C58,28.2137289 58.1076239,27.7976825 55,26.2046594 C53,25.179424 53,28.2137289 53,30.6920417 C53,33.1703545 54.5002258,36 56.0004516,36 Z" id="Oval-2" fill="#E9E9E9" transform="translate(55.500226, 31.000000) scale(-1, 1) translate(-55.500226, -31.000000) "></path>
                    <path d="M39.0009483,7.01084559 L39.0004395,51.9954266 C35.6232442,51.9472939 33.4798173,51.3925933 28.0004516,45 C23.8741277,40.1859555 23.0004516,36 23.0004516,25 C23.0004516,11.5957826 28.0918023,7.25288903 39.0009483,7.01084559 Z" id="Combined-Shape-Copy" fill="#FCFCFC"></path>
                    <path d="M55.0009483,7.01084559 L55.0004395,51.9954266 C51.6232442,51.9472939 49.4798173,51.3925933 44.0004516,45 C39.8741277,40.1859555 39.0004516,36 39.0004516,25 C39.0004516,11.5957826 44.0918023,7.25288903 55.0009483,7.01084559 Z" id="Combined-Shape-Copy-2" fill="#F7F7F7" transform="translate(47.000452, 29.503142) scale(-1, 1) translate(-47.000452, -29.503142) "></path>
                    <path d="M23.0004516,27 C22,27 21.0004516,20.25 21.0004516,18.25 C21.0004516,16.25 21.0004516,8 25.8655763,8 C30.7307011,8 30.7307011,11 28.7846512,13 C26.8386013,15 23.0004516,21 23.0004516,27 Z" id="Path-2-Copy" fill="url(#linearGradient-3)"></path>
                    <path d="M49.762187,27 C48.8210471,27 47.8494533,18.9856361 47.8210471,17 C47.7352119,11 49.762187,4 53.8210471,4 C57.8799072,4 57.4924364,11 55.762187,13 C53.6003366,15 49.7082369,21 49.762187,27 Z" id="Path-2-Copy-2" fill="url(#linearGradient-4)" transform="translate(52.410524, 15.500000) scale(-1, 1) translate(-52.410524, -15.500000) "></path>
                    <path d="M39,18 C45,17 48,16 51,13 C53.5772903,10.4227097 55,8 55,3 C51,4 43.7932827,0 39.0004516,0 C28.0004516,0 23,5.25451609 23,9.25428417 C23,18.2542842 28.6132805,19.7311199 39,18 Z" id="Oval-3-Copy" fill="url(#linearGradient-5)"></path>
                    <polygon id="Path-5" fill="#EDEDED" points="27 53 0 65 0 83 32 84"></polygon>
                    <polygon id="Path-5" fill="#EDEDED" transform="translate(62.000000, 68.500000) scale(-1, 1) translate(-62.000000, -68.500000) " points="73 53 46 65 46 83 78 84"></polygon>
                    <path d="M55.5624225,59.1993265 L55.5624971,87 L22.4375029,87 L22.437532,59.1992949 C26.7195906,62.1706358 32.5609413,64 39,64 C45.4390359,64 51.280368,62.1706488 55.5624225,59.1993265 Z" id="Combined-Shape" fill="#FFFFFF"></path>
                    <polygon id="Path-5" fill="#BFBFBF" points="23.91161 54.3726178 0 65 0 83 32 84"></polygon>
                    <polygon id="Path-5" fill="#BFBFBF" transform="translate(62.000000, 69.186309) scale(-1, 1) translate(-62.000000, -69.186309) " points="69.91161 54.3726178 46 65 46 83 78 84"></polygon>
                </g>
            </g>
        </g>
    </g>
</svg>