<?xml version="1.0" encoding="UTF-8"?>
<svg width="12px" height="12px" viewBox="0 0 12 12" version="1.1" xmlns="http://www.w3.org/2000/svg" xmlns:xlink="http://www.w3.org/1999/xlink">
    <!-- Generator: Sketch 62 (91390) - https://sketch.com -->
    <title>icon/12px/delete_item</title>
    <desc>Created with Sketch.</desc>
    <g id="icon/12px/delete_item" stroke="none" stroke-width="1" fill="none" fill-rule="evenodd">
        <path d="M6,0 C9.3137085,0 12,2.6862915 12,6 C12,9.3137085 9.3137085,12 6,12 C2.6862915,12 0,9.3137085 0,6 C0,2.6862915 2.6862915,0 6,0 Z M3.97699378,3.16752191 C3.75342749,2.9441067 3.3910943,2.94416708 3.16760249,3.16765681 L3.16760249,3.16765681 L3.10130283,3.24703811 C2.94693088,3.47003224 2.96909738,3.77826507 3.16773735,3.97677081 L3.16773735,3.97677081 L5.19155283,5.99921869 L3.16760249,8.02315017 C2.9441325,8.24661808 2.9441325,8.60893116 3.16760249,8.83239907 C3.39107249,9.05586698 3.75338893,9.05586698 3.97685892,8.83239907 L3.97685892,8.83239907 L6,6.80927683 L8.02314108,8.83239907 C8.24661107,9.05586698 8.60892751,9.05586698 8.83239751,8.83239907 C9.0558675,8.60893116 9.0558675,8.24661808 8.83239751,8.02315017 L8.83239751,8.02315017 L6.80925643,6.00002794 L8.83239751,3.9769057 C9.0558675,3.75343779 9.0558675,3.39112472 8.83239751,3.16765681 C8.60892751,2.9441889 8.24661107,2.9441889 8.02314108,3.16765681 L8.02314108,3.16765681 L6.00080926,5.1899698 Z" id="形状结合" fill="#C3C7D9"></path>
    </g>
</svg>