<?xml version="1.0" encoding="UTF-8"?>
<svg width="24px" height="24px" viewBox="0 0 24 24" version="1.1" xmlns="http://www.w3.org/2000/svg" xmlns:xlink="http://www.w3.org/1999/xlink">
    <!-- Generator: Sketch 62 (91390) - https://sketch.com -->
    <title>icon/24px/删除</title>
    <desc>Created with Sketch.</desc>
    <g id="icon/24px/删除" stroke="none" stroke-width="1" fill="none" fill-rule="evenodd">
        <path d="M14.5,4 C15.7096818,4 16.7186941,4.85916789 16.9501074,6.00057405 L20.5,6 C20.7761424,6 21,6.22385763 21,6.5 C21,6.77614237 20.7761424,7 20.5,7 L20.5,7 L19,7 L19,18.5 C19,19.8807119 17.8807119,21 16.5,21 L16.5,21 L8.5,21 C7.11928813,21 6,19.8807119 6,18.5 L6,18.5 L6,7 L6,7 L4.5,7 C4.22385763,7 4,6.77614237 4,6.5 C4,6.22385763 4.22385763,6 4.5,6 L4.5,6 L8.0498926,6.00057405 C8.2813059,4.85916789 9.29031824,4 10.5,4 L10.5,4 Z M18,7 L7,7 L7,18.5 C7,19.3284271 7.67157288,20 8.5,20 L8.5,20 L16.5,20 C17.3284271,20 18,19.3284271 18,18.5 L18,18.5 L18,7 L18,7 Z M10.5,10 C10.7761424,10 11,10.2238576 11,10.5 L11,10.5 L11,16.5 C11,16.7761424 10.7761424,17 10.5,17 C10.2238576,17 10,16.7761424 10,16.5 L10,16.5 L10,10.5 C10,10.2238576 10.2238576,10 10.5,10 Z M14.5,10 C14.7761424,10 15,10.2238576 15,10.5 L15,10.5 L15,16.5 C15,16.7761424 14.7761424,17 14.5,17 C14.2238576,17 14,16.7761424 14,16.5 L14,16.5 L14,10.5 C14,10.2238576 14.2238576,10 14.5,10 Z M14.5,5 L10.5,5 C9.84678131,5 9.29108512,5.41754351 9.08524952,6.00029246 L15.9147505,6.00029246 C15.7089149,5.41754351 15.1532187,5 14.5,5 L14.5,5 Z" id="形状结合" fill="#F56C6C" fill-rule="nonzero"></path>
    </g>
</svg>