<?xml version="1.0" encoding="UTF-8"?>
<svg width="16px" height="17px" viewBox="0 0 16 17" version="1.1" xmlns="http://www.w3.org/2000/svg" xmlns:xlink="http://www.w3.org/1999/xlink">
    <!-- Generator: Sketch 62 (91390) - https://sketch.com -->
    <title>icon/delete</title>
    <desc>Created with Sketch.</desc>
    <g id="icon/delete" stroke="none" stroke-width="1" fill="none" fill-rule="evenodd">
        <path d="M10,0 C11.1045695,0 12,0.8954305 12,2 L12,3 L15.5,3 C15.7761424,3 16,3.22385763 16,3.5 C16,3.77614237 15.7761424,4 15.5,4 L14,4 L14,15 C14,16.1045695 13.1045695,17 12,17 L4,17 C2.8954305,17 2,16.1045695 2,15 L2,4 L0.5,4 C0.223857625,4 3.38176876e-17,3.77614237 0,3.5 C-3.38176876e-17,3.22385763 0.223857625,3 0.5,3 L4,3 L4,2 C4,0.8954305 4.8954305,0 6,0 L10,0 Z M13,4 L3,4 L3,15 C3,15.5522847 3.44771525,16 4,16 L12,16 C12.5522847,16 13,15.5522847 13,15 L13,4 Z M6.5,7 C6.77614237,7 7,7.22385763 7,7.5 L7,12.5 C7,12.7761424 6.77614237,13 6.5,13 C6.22385763,13 6,12.7761424 6,12.5 L6,7.5 C6,7.22385763 6.22385763,7 6.5,7 Z M9.5,7 C9.77614237,7 10,7.22385763 10,7.5 L10,12.5 C10,12.7761424 9.77614237,13 9.5,13 C9.22385763,13 9,12.7761424 9,12.5 L9,7.5 C9,7.22385763 9.22385763,7 9.5,7 Z M10,1 L6,1 C5.44771525,1 5,1.44771525 5,2 L5,3 L11,3 L11,2 C11,1.44771525 10.5522847,1 10,1 Z" id="形状结合" fill="#FF5C5A"></path>
    </g>
</svg>