<?xml version="1.0" encoding="UTF-8"?>
<svg width="24px" height="24px" viewBox="0 0 24 24" version="1.1" xmlns="http://www.w3.org/2000/svg" xmlns:xlink="http://www.w3.org/1999/xlink">
    <!-- Generator: Sketch 62 (91390) - https://sketch.com -->
    <title>icon/24px/词库</title>
    <desc>Created with Sketch.</desc>
    <g id="icon/24px/词库" stroke="none" stroke-width="1" fill="none" fill-rule="evenodd">
        <g transform="translate(5.000000, 4.000000)" fill="#5C6280" id="形状结合">
            <path d="M13,0 L13,12 L2,12 C1.48716416,12 1.06449284,12.3860402 1.00672773,12.8833789 L1,13 L1,14 C1,14.5128358 1.38604019,14.9355072 1.88337887,14.9932723 L2,15 L13,15 L13,16 L2,16 C0.8954305,16 1.3527075e-16,15.1045695 0,14 L0,2 C-1.3527075e-16,0.8954305 0.8954305,2.02906125e-16 2,0 L13,0 Z M15,2 L15,16 L14,16 L14,2 L15,2 Z M12,13 L12,14 L2.5,14 C2.22385763,14 2,13.7761424 2,13.5 C2,13.2238576 2.22385763,13 2.5,13 L12,13 Z M12,1 L2,1 C1.48716416,1 1.06449284,1.38604019 1.00672773,1.88337887 L1,2 L0.999927519,11.2676063 C1.29411727,11.0974103 1.63568294,11 2,11 L12,11 L12,1 Z M6.99,1.86 L9.74,9 L8.57,9 L7.9,7.16 L4.83,7.16 L4.16,9 L3,9 L5.75,1.86 L6.99,1.86 Z M6.39,3.03 L6.35,3.03 L5.16,6.26 L7.57,6.26 L6.39,3.03 Z"></path>
        </g>
    </g>
</svg>