<?xml version="1.0" encoding="UTF-8"?>
<svg width="132px" height="27px" viewBox="0 0 132 27" version="1.1" xmlns="http://www.w3.org/2000/svg" xmlns:xlink="http://www.w3.org/1999/xlink">
    <!-- Generator: Sketch 62 (91390) - https://sketch.com -->
    <title>icon/dvdviewer/uih_logo_1</title>
    <desc>Created with Sketch.</desc>
    <defs>
        <polygon id="path-1" points="0.8159 0.47 10.0709 0.47 10.0709 23.9277 0.8159 23.9277"></polygon>
        <polygon id="path-3" points="0.1276 0.47 10.5386 0.47 10.5386 11.0757 0.1276 11.0757"></polygon>
        <polygon id="path-5" points="0 0.47 11.345 0.47 11.345 11.0757 0 11.0757"></polygon>
        <polygon id="path-7" points="0 25.53 131.579 25.53 131.579 0 0 0"></polygon>
    </defs>
    <g id="icon/dvdviewer/uih_logo_1" stroke="none" stroke-width="1" fill="none" fill-rule="evenodd">
        <g id="分组">
            <polygon id="Fill-1" fill="#FFFFFF" points="122.343 8.8324 131.578 8.8324 131.578 0.9994 122.343 0.9994"></polygon>
            <g transform="translate(0.000000, 0.530400)">
                <path d="M122.3433,23.9273 C124.9593,23.6963 127.2693,22.6963 128.9423,21.2153 C130.5773,19.7523 131.5783,17.8273 131.5783,15.7113 L131.5783,10.5923 L122.3433,10.5923 L122.3433,23.9273 Z" id="Fill-2" fill="#FFFFFF"></path>
                <g transform="translate(110.000000, 0.000000)">
                    <mask id="mask-2" fill="white">
                        <use xlink:href="#path-1"></use>
                    </mask>
                    <g id="Clip-5"></g>
                    <path d="M0.8159,0.4697 L0.8159,15.7107 C0.8159,17.8267 1.8159,19.7517 3.4529,21.2147 C5.1079,22.6967 7.4359,23.6957 10.0709,23.9277 L10.0709,0.4697 L0.8159,0.4697 Z" id="Fill-4" fill="#FFFFFF" mask="url(#mask-2)"></path>
                </g>
                <g transform="translate(31.000000, 0.000000)">
                    <mask id="mask-4" fill="white">
                        <use xlink:href="#path-3"></use>
                    </mask>
                    <g id="Clip-7"></g>
                    <polygon id="Fill-6" fill="#FFFFFF" mask="url(#mask-4)" points="3.6616 11.0757 6.9596 11.0757 6.9596 2.1397 10.5386 2.1397 10.5386 0.4697 0.1276 0.4697 0.1276 2.1397 3.6616 2.1397"></polygon>
                </g>
                <g>
                    <mask id="mask-6" fill="white">
                        <use xlink:href="#path-5"></use>
                    </mask>
                    <g id="Clip-9"></g>
                    <path d="M7.396,11.0757 C11.345,11.0757 11.345,8.7127 11.345,7.6927 L11.345,0.4697 L8.07,0.4697 L8.07,7.9097 C8.07,8.6687 7.917,9.3847 7.005,9.3847 L4.316,9.3847 C3.427,9.3847 3.275,8.6687 3.275,7.9097 L3.275,0.4697 L0,0.4697 L0,7.6927 C0,8.7127 0,11.0757 3.948,11.0757 L7.396,11.0757 Z" id="Fill-8" fill="#FFFFFF" mask="url(#mask-6)"></path>
                </g>
                <mask id="mask-8" fill="white">
                    <use xlink:href="#path-7"></use>
                </mask>
                <g id="Clip-11"></g>
                <polygon id="Fill-10" fill="#FFFFFF" mask="url(#mask-8)" points="26.464 11.076 29.652 11.076 29.652 0.47 26.464 0.47"></polygon>
                <path d="M62.6802,7.9097 C62.6802,8.6687 62.5292,9.3847 61.6402,9.3847 L57.8872,9.3847 L57.8872,2.1397 L61.6402,2.1397 C62.5292,2.1397 62.6802,2.8767 62.6802,3.6367 L62.6802,7.9097 Z M62.0302,0.4697 L54.6172,0.4697 L54.6172,11.0757 L62.0302,11.0757 C65.9542,11.0757 65.9762,8.7127 65.9762,7.6927 L65.9762,3.8527 C65.9762,2.8337 65.9542,0.4697 62.0302,0.4697 L62.0302,0.4697 Z" id="Fill-12" fill="#FFFFFF" mask="url(#mask-8)"></path>
                <polygon id="Fill-13" fill="#FFFFFF" mask="url(#mask-8)" points="52.6216 11.0757 52.6216 9.3847 46.4836 9.3847 46.4836 6.6077 51.9716 6.6077 51.9716 4.9167 46.4836 4.9167 46.4836 2.1397 52.3396 2.1397 52.3396 0.4697 43.1866 0.4697 43.1866 11.0757"></polygon>
                <polygon id="Fill-14" fill="#FFFFFF" mask="url(#mask-8)" points="17.4614 0.4697 21.7334 7.3447 21.7334 0.4697 24.2724 0.4697 24.2724 11.0757 20.3464 11.0757 15.9644 4.0057 15.9644 11.0757 13.4264 11.0757 13.4264 0.4697"></polygon>
                <path d="M58.5874,15.3623 C54.6454,15.3623 54.6454,17.7273 54.6454,18.7473 L54.6454,22.5943 C54.6454,23.6123 54.6454,26.0003 58.5874,26.0003 L65.7664,26.0003 L65.7664,19.6223 L60.3224,19.6223 L60.3224,21.3153 L62.4904,21.3153 L62.4904,24.3083 L58.9774,24.3083 C58.0664,24.3083 57.9374,23.5703 57.9374,22.8103 L57.9374,18.5293 C57.9374,17.7713 58.0664,17.0333 58.9774,17.0333 L65.7664,17.0333 L65.7664,15.3623 L58.5874,15.3623 Z" id="Fill-15" fill="#FFFFFF" mask="url(#mask-8)"></path>
                <path d="M90.4673,15.3623 C86.5253,15.3623 86.5253,17.7273 86.5253,18.7473 L86.5253,22.5943 C86.5253,23.6123 86.5253,26.0003 90.4673,26.0003 L97.6463,26.0003 L97.6463,19.6223 L92.2023,19.6223 L92.2023,21.3153 L94.3703,21.3153 L94.3703,24.3083 L90.8573,24.3083 C89.9463,24.3083 89.8163,23.5703 89.8163,22.8103 L89.8163,18.5293 C89.8163,17.7713 89.9463,17.0333 90.8573,17.0333 L97.6463,17.0333 L97.6463,15.3623 L90.4673,15.3623 Z" id="Fill-16" fill="#FFFFFF" mask="url(#mask-8)"></path>
                <polygon id="Fill-17" fill="#FFFFFF" mask="url(#mask-8)" points="45.7085 15.3711 41.6745 26.0001 44.1695 26.0001 47.1415 18.1041 50.1985 26.0001 54.1465 26.0001 50.1115 15.3711"></polygon>
                <polygon id="Fill-18" fill="#FFFFFF" mask="url(#mask-8)" points="26.4907 15.3711 30.4587 15.3711 33.3877 22.1381 36.5767 15.3711 40.4807 15.3711 40.4807 26.0001 37.2707 26.0001 37.2707 18.9291 33.9527 26.0001 31.7187 26.0001 28.6807 18.9081 28.6807 26.0001 26.4907 26.0001"></polygon>
                <polygon id="Fill-19" fill="#FFFFFF" mask="url(#mask-8)" points="77.7417 15.3711 82.0327 22.2691 82.0327 15.3711 84.5727 15.3711 84.5727 26.0001 80.6447 26.0001 76.2427 18.9081 76.2427 26.0001 73.7267 26.0001 73.7267 15.3711"></polygon>
                <polygon id="Fill-20" fill="#FFFFFF" mask="url(#mask-8)" points="21.112 26 24.3 26 24.3 15.371 21.112 15.371"></polygon>
                <polygon id="Fill-21" fill="#FFFFFF" mask="url(#mask-8)" points="68.087 26 71.254 26 71.254 15.371 68.087 15.371"></polygon>
                <polygon id="Fill-22" fill="#FFFFFF" mask="url(#mask-8)" points="82.853 5.6968 80.249 5.6968 80.249 2.8768 82.787 2.8768 82.787 1.9438 82.266 1.9438 82.679 0.4698 80.858 0.4698 80.466 1.9438 78.429 1.9438 78.017 0.4698 76.325 0.4698 76.715 1.9438 76.042 1.9438 76.042 2.8768 78.559 2.8768 78.559 5.6968 75.977 5.6968 75.977 6.6518 77.95 6.6518 75.912 11.0758 77.735 11.0758 79.337 7.6708 80.965 11.0758 82.787 11.0758 80.792 6.6518 82.853 6.6518"></polygon>
                <path d="M72.008,3.506 L73.744,3.506 L73.744,1.402 L72.008,1.402 L72.008,3.506 Z M72.008,6.327 L73.744,6.327 L73.744,4.331 L72.008,4.331 L72.008,6.327 Z M73.744,9.21 L72.007,9.428 L72.007,7.151 L73.744,7.151 L73.744,9.21 Z M69.926,0.47 L69.926,1.402 L70.359,1.402 L70.359,9.645 L69.968,9.688 L69.968,10.664 L73.744,10.186 L73.744,11.076 L75.39,11.076 L75.39,1.402 L75.759,1.402 L75.759,0.47 L69.926,0.47 Z" id="Fill-23" fill="#FFFFFF" mask="url(#mask-8)"></path>
                <polygon id="Fill-24" fill="#FFFFFF" mask="url(#mask-8)" points="84.7837 11.0757 86.5837 11.0757 87.1697 9.2547 85.3457 9.2547"></polygon>
                <polygon id="Fill-25" fill="#FFFFFF" mask="url(#mask-8)" points="90.7495 9.2544 91.3555 11.0754 93.1125 11.0754 92.5705 9.2544"></polygon>
                <polygon id="Fill-26" fill="#FFFFFF" mask="url(#mask-8)" points="93.7632 1.9458 93.7632 3.7678 97.6462 2.2918 97.6462 0.4698"></polygon>
                <polygon id="Fill-27" fill="#FFFFFF" mask="url(#mask-8)" points="93.7632 7.4487 97.6462 5.9737 97.6462 4.1077 93.7632 5.6047"></polygon>
                <path d="M86.886,3.419 L91.05,3.419 L91.05,2.704 L86.886,2.704 L86.886,3.419 Z M86.866,1.945 L91.051,1.945 L91.051,1.251 L86.866,1.251 L86.866,1.945 Z M89.816,4.157 L92.981,4.157 L92.982,0.47 L84.934,0.47 L84.934,4.157 L88.08,4.157 L88.08,4.895 L84.784,4.895 L84.784,5.783 L93.113,5.783 L93.113,4.895 L89.816,4.895 L89.816,4.157 Z" id="Fill-28" fill="#FFFFFF" mask="url(#mask-8)"></path>
                <polygon id="Fill-29" fill="#FFFFFF" mask="url(#mask-8)" points="93.7632 11.0757 97.6462 9.6227 97.6462 7.8017 93.7632 9.2977"></polygon>
                <path d="M84.9341,6.3482 L84.9341,8.8642 L88.0801,8.8642 L88.0801,11.0762 L89.8101,11.0762 L89.8101,8.8642 L92.9811,8.8642 L92.9811,6.3482 L84.9341,6.3482 Z M86.8861,8.0182 L91.0501,8.0182 L91.0501,7.1502 L86.8861,7.1502 L86.8861,8.0182 Z" id="Fill-30" fill="#FFFFFF" mask="url(#mask-8)"></path>
            </g>
        </g>
    </g>
</svg>