<?xml version="1.0" encoding="UTF-8"?>
<svg width="12px" height="12px" viewBox="0 0 12 12" version="1.1" xmlns="http://www.w3.org/2000/svg" xmlns:xlink="http://www.w3.org/1999/xlink">
    <!-- Generator: Sketch 62 (91390) - https://sketch.com -->
    <title>icon/edit</title>
    <desc>Created with Sketch.</desc>
    <g id="icon/edit" stroke="none" stroke-width="1" fill="none" fill-rule="evenodd">
        <path d="M6.5,1 C6.77614237,1 7,1.22385763 7,1.5 C7,1.77614237 6.77614237,2 6.5,2 L6.5,2 L2.5,2 C1.67157288,2 1,2.67157288 1,3.5 L1,3.5 L1,9.5 C1,10.3284271 1.67157288,11 2.5,11 L2.5,11 L8.5,11 C9.32842712,11 10,10.3284271 10,9.5 L10,9.5 L10,5.5 C10,5.22385763 10.2238576,5 10.5,5 C10.7761424,5 11,5.22385763 11,5.5 L11,5.5 L11,9.5 C11,10.8807119 9.88071187,12 8.5,12 L8.5,12 L2.5,12 C1.11928813,12 0,10.8807119 0,9.5 L0,9.5 L0,3.5 C0,2.11928813 1.11928813,1 2.5,1 L2.5,1 Z M10.1464466,1.14644661 C10.3417088,0.951184464 10.6582912,0.951184464 10.8535534,1.14644661 C11.0488155,1.34170876 11.0488155,1.65829124 10.8535534,1.85355339 L10.8535534,1.85355339 L4.85355339,7.85355339 C4.65829124,8.04881554 4.34170876,8.04881554 4.14644661,7.85355339 C3.95118446,7.65829124 3.95118446,7.34170876 4.14644661,7.14644661 L4.14644661,7.14644661 Z" id="形状结合" fill="#999999"></path>
    </g>
</svg>