<?xml version="1.0" encoding="UTF-8"?>
<svg width="26px" height="26px" viewBox="0 0 26 26" version="1.1" xmlns="http://www.w3.org/2000/svg" xmlns:xlink="http://www.w3.org/1999/xlink">
    <!-- Generator: Sketch 62 (91390) - https://sketch.com -->
    <title>icon/emoji</title>
    <desc>Created with Sketch.</desc>
    <g id="icon/emoji" stroke="none" stroke-width="1" fill="none" fill-rule="evenodd">
        <path d="M13,0 C20.1797017,0 26,5.82029825 26,13 C26,20.1797017 20.1797017,26 13,26 C5.82029825,26 0,20.1797017 0,13 C0,5.82029825 5.82029825,0 13,0 Z M13,1 C6.372583,1 1,6.372583 1,13 C1,19.627417 6.372583,25 13,25 C19.627417,25 25,19.627417 25,13 C25,6.372583 19.627417,1 13,1 Z M20,14 C20,17.8659932 16.8659932,21 13,21 C9.13400675,21 6,17.8659932 6,14 L6,14 Z M18.9170416,15 L7.08295844,15 C7.55903653,17.8377133 10.0270037,20 13,20 C15.9729963,20 18.4409635,17.8377133 18.9170416,15 L18.9170416,15 Z M8.5,8 C9.32842712,8 10,8.67157288 10,9.5 C10,10.3284271 9.32842712,11 8.5,11 C7.67157288,11 7,10.3284271 7,9.5 C7,8.67157288 7.67157288,8 8.5,8 Z M17.5,8 C18.3284271,8 19,8.67157288 19,9.5 C19,10.3284271 18.3284271,11 17.5,11 C16.6715729,11 16,10.3284271 16,9.5 C16,8.67157288 16.6715729,8 17.5,8 Z" id="Combined-Shape" fill="#000000" fill-rule="nonzero"></path>
    </g>
</svg>