<?xml version="1.0" encoding="UTF-8"?>
<svg width="20px" height="20px" viewBox="0 0 20 20" version="1.1" xmlns="http://www.w3.org/2000/svg" xmlns:xlink="http://www.w3.org/1999/xlink">
    <!-- Generator: Sketch 62 (91390) - https://sketch.com -->
    <title>icon/输入框后提示/错误</title>
    <desc>Created with Sketch.</desc>
    <g id="icon/输入框后提示/错误" stroke="none" stroke-width="1" fill="none" fill-rule="evenodd">
        <path d="M10,-1 C10.5522847,-1 11,-0.55228475 11,-1.50812696e-12 L10.999,9 L20,9 C20.5522847,9 21,9.44771525 21,10 C21,10.5522847 20.5522847,11 20,11 L10.999,11 L11,20 C11,20.5522847 10.5522847,21 10,21 C9.44771525,21 9,20.5522847 9,20 L8.999,11 L-1.06403775e-12,11 C-0.55228475,11 -1,10.5522847 -1,10 C-1,9.44771525 -0.55228475,9 -1.06403775e-12,9 L8.999,9 L9,-1.50812696e-12 C9,-0.55228475 9.44771525,-1 10,-1 Z" id="形状结合" fill="#F26255" transform="translate(10.000000, 10.000000) rotate(-315.000000) translate(-10.000000, -10.000000) "></path>
    </g>
</svg>