<?xml version="1.0" encoding="UTF-8"?>
<svg width="12px" height="12px" viewBox="0 0 12 12" version="1.1" xmlns="http://www.w3.org/2000/svg" xmlns:xlink="http://www.w3.org/1999/xlink">
    <!-- Generator: Sketch 62 (91390) - https://sketch.com -->
    <title>icon/12px/eye</title>
    <desc>Created with Sketch.</desc>
    <g id="icon/12px/eye" stroke="none" stroke-width="1" fill="none" fill-rule="evenodd">
        <path d="M6,2 C9.3137085,2 12,5 12,6 C12,7 9.3137085,10 6,10 C2.6862915,10 0,7 0,6 C0,5 2.6862915,2 6,2 Z M6,3 C4.34314575,3 3,4.34314575 3,6 C3,7.65685425 4.34314575,9 6,9 C7.65685425,9 9,7.65685425 9,6 C9,4.34314575 7.65685425,3 6,3 Z M6,4 C7.1045695,4 8,4.8954305 8,6 C8,7.1045695 7.1045695,8 6,8 C4.8954305,8 4,7.1045695 4,6 C4,4.8954305 4.8954305,4 6,4 Z" id="形状结合" fill="#C3C7D9"></path>
    </g>
</svg>