<?xml version="1.0" encoding="UTF-8"?>
<svg width="56px" height="56px" viewBox="0 0 56 56" version="1.1" xmlns="http://www.w3.org/2000/svg" xmlns:xlink="http://www.w3.org/1999/xlink">
    <!-- Generator: Sketch 62 (91390) - https://sketch.com -->
    <title>icon/fab/robot@2x</title>
    <desc>Created with Sketch.</desc>
    <defs>
        <linearGradient x1="0%" y1="0%" x2="100%" y2="100%" id="linearGradient-1">
            <stop stop-color="#5777D9" offset="0%"></stop>
            <stop stop-color="#394BAB" offset="100%"></stop>
        </linearGradient>
        <circle id="path-2" cx="28" cy="28" r="28"></circle>
        <filter x="-22.3%" y="-13.4%" width="144.6%" height="153.6%" filterUnits="objectBoundingBox" id="filter-3">
            <feMorphology radius="5" operator="erode" in="SourceAlpha" result="shadowSpreadOuter1"></feMorphology>
            <feOffset dx="0" dy="10" in="shadowSpreadOuter1" result="shadowOffsetOuter1"></feOffset>
            <feGaussianBlur stdDeviation="7.5" in="shadowOffsetOuter1" result="shadowBlurOuter1"></feGaussianBlur>
            <feColorMatrix values="0 0 0 0 0.160784314   0 0 0 0 0.266666667   0 0 0 0 0.8  0 0 0 0.8 0" type="matrix" in="shadowBlurOuter1"></feColorMatrix>
        </filter>
    </defs>
    <g id="icon/fab/robot" stroke="none" stroke-width="1" fill="none" fill-rule="evenodd">
        <g>
            <g id="椭圆形">
                <use fill="black" fill-opacity="1" filter="url(#filter-3)" xlink:href="#path-2"></use>
                <use fill="url(#linearGradient-1)" fill-rule="evenodd" xlink:href="#path-2"></use>
            </g>
            <g id="编组" transform="translate(10.550725, 17.000000)">
                <rect id="矩形" stroke="#FFFFFF" stroke-width="2" x="5.44927536" y="1" width="24" height="21" rx="7"></rect>
                <circle id="椭圆形" fill="#FFFFFF" cx="11.4492754" cy="11" r="2"></circle>
                <circle id="椭圆形" fill="#FFFFFF" cx="23.4492754" cy="11" r="2"></circle>
                <path d="M32.9523982,10.7598689 L34.0869565,13.0289855 L34.0869565,13.0289855 L30.0289855,13.0289855 L31.1635438,10.7598689 C31.4105331,10.2658904 32.0112061,10.065666 32.5051846,10.3126553 C32.698712,10.409419 32.8556345,10.5663415 32.9523982,10.7598689 Z" id="三角形" fill="#FFFFFF" transform="translate(32.057971, 11.000000) rotate(-270.000000) translate(-32.057971, -11.000000) "></path>
                <path d="M3.7350069,10.7598689 L4.86956522,13.0289855 L4.86956522,13.0289855 L0.811594203,13.0289855 L1.94615252,10.7598689 C2.19314177,10.2658904 2.79381481,10.065666 3.28779331,10.3126553 C3.48132071,10.409419 3.6382432,10.5663415 3.7350069,10.7598689 Z" id="三角形" fill="#FFFFFF" transform="translate(2.840580, 11.000000) scale(-1, 1) rotate(-270.000000) translate(-2.840580, -11.000000) "></path>
                <circle id="椭圆形" stroke="#FFFFFF" fill="#FFFFFF" cx="34.4927536" cy="11" r="1"></circle>
                <circle id="椭圆形" stroke="#FFFFFF" fill="#FFFFFF" cx="0.405797101" cy="11" r="1"></circle>
            </g>
        </g>
    </g>
</svg>