<?xml version="1.0" encoding="UTF-8"?>
<svg width="56px" height="56px" viewBox="0 0 56 56" version="1.1" xmlns="http://www.w3.org/2000/svg" xmlns:xlink="http://www.w3.org/1999/xlink">
    <!-- Generator: Sketch 62 (91390) - https://sketch.com -->
    <title>icon/fab/phone@2x</title>
    <desc>Created with Sketch.</desc>
    <defs>
        <linearGradient x1="0%" y1="0%" x2="100%" y2="100%" id="linearGradient-1">
            <stop stop-color="#6BD149" offset="0%"></stop>
            <stop stop-color="#4BBC4B" offset="100%"></stop>
        </linearGradient>
        <circle id="path-2" cx="28" cy="28" r="28"></circle>
        <filter x="-22.3%" y="-13.4%" width="144.6%" height="153.6%" filterUnits="objectBoundingBox" id="filter-3">
            <feMorphology radius="5" operator="erode" in="SourceAlpha" result="shadowSpreadOuter1"></feMorphology>
            <feOffset dx="0" dy="10" in="shadowSpreadOuter1" result="shadowOffsetOuter1"></feOffset>
            <feGaussianBlur stdDeviation="7.5" in="shadowOffsetOuter1" result="shadowBlurOuter1"></feGaussianBlur>
            <feColorMatrix values="0 0 0 0 0.12   0 0 0 0 0.6   0 0 0 0 0.12  0 0 0 0.8 0" type="matrix" in="shadowBlurOuter1"></feColorMatrix>
        </filter>
    </defs>
    <g id="icon/fab/phone" stroke="none" stroke-width="1" fill="none" fill-rule="evenodd">
        <g>
            <g id="编组-3">
                <g id="椭圆形">
                    <use fill="black" fill-opacity="1" filter="url(#filter-3)" xlink:href="#path-2"></use>
                    <use fill="url(#linearGradient-1)" fill-rule="evenodd" xlink:href="#path-2"></use>
                </g>
            </g>
            <g id="phone" transform="translate(23.000000, 14.000000)" opacity="0.5">
                <path d="M13,14 C13,9.581722 9.418278,6 5,6" id="形状" stroke="#FFFFFF" stroke-width="2" stroke-linecap="round" stroke-linejoin="round"></path>
                <path d="M18,14 C18,6.82029825 12.1797017,1 5,1" id="形状" stroke="#FFFFFF" stroke-width="2" stroke-linecap="round"></path>
                <circle id="椭圆形" fill="#FFFFFF" cx="18" cy="18" r="1"></circle>
                <circle id="椭圆形备份-3" fill="#FFFFFF" cx="1" cy="1" r="1"></circle>
            </g>
        </g>
        <path d="M37.1159489,20.2284084 C38.003434,21.6089502 38.5201172,23.1633453 38.5201172,24.8565674 C38.5201172,28.4781251 36.2455304,32.6440587 33.1980751,35.5682204 C29.8749089,38.7569382 26.4391734,40.6568359 22.7138672,40.6568359 C18.900679,40.6568359 15.3247829,37.85021 15.6944582,35.8459682 C15.9648229,34.3801511 19.1314266,31.7012573 20.9343872,31.7012573 C21.8776755,31.7012573 22.4486564,32.1005834 23.4140921,33.1476088 L23.9076098,33.6894724 L24.1356351,33.92506 C24.4872173,34.273612 24.7013727,34.4071289 24.8511963,34.4071289 C25.7454993,34.4071289 27.4660311,33.1309809 29.5997881,30.9479373 L29.8015103,30.7391858 C31.5174846,28.9426492 32.3911368,27.4816413 32.195701,26.8890713 C32.1265306,26.6793434 31.9289133,26.435069 31.4494621,25.976132 L30.8461563,25.4112937 C29.9059531,24.517762 29.5293213,23.9723579 29.5293213,23.1364746 C29.5293213,21.4182348 31.9187768,18.1882338 33.6218426,17.8940766 C34.8083088,17.6891475 36.107506,18.6597088 37.1159489,20.2284084 Z M35.6018246,21.2017674 C34.9434627,20.1776418 34.1985083,19.6211259 33.9282063,19.6678131 C33.1389635,19.8041328 31.3293213,22.2503579 31.3293213,23.1364746 C31.3293213,23.3107222 31.5796042,23.6384426 32.2660165,24.2752809 L32.5630085,24.5511719 C33.37559,25.313383 33.7019066,25.7091045 33.905129,26.3252842 C34.3819168,27.7709263 33.3843246,29.5489389 31.3407833,31.7320736 L30.8870283,32.2061155 C28.3753351,34.7758251 26.4456189,36.2071289 24.8511963,36.2071289 C24.0118293,36.2071289 23.4445445,35.8269612 22.6271315,34.9558247 L22.4479527,34.7615974 L22.1243458,34.4045413 L21.8754996,34.1410623 C21.4133784,33.6668613 21.155397,33.5012573 20.9343872,33.5012573 C20.0057007,33.5012573 17.5785677,35.5545713 17.4645995,36.1724644 C17.4533365,36.2335282 17.9016692,36.9236177 18.641624,37.5043886 C19.7114765,38.3440874 21.1174537,38.8568359 22.7138672,38.8568359 C25.8764383,38.8568359 28.9317794,37.1672892 31.9518273,34.2694261 C34.6775998,31.6539326 36.7201172,27.9130371 36.7201172,24.8565674 C36.7201172,23.5328906 36.3129536,22.3079757 35.6018246,21.2017674 Z" id="路径-17" fill="#FFFFFF" fill-rule="nonzero" transform="translate(27.094102, 29.261861) scale(-1, 1) translate(-27.094102, -29.261861) "></path>
    </g>
</svg>