<?xml version="1.0" encoding="UTF-8"?>
<svg width="56px" height="56px" viewBox="0 0 56 56" version="1.1" xmlns="http://www.w3.org/2000/svg" xmlns:xlink="http://www.w3.org/1999/xlink">
    <!-- Generator: Sketch 62 (91390) - https://sketch.com -->
    <title>icon/fab/phone@2x</title>
    <desc>Created with Sketch.</desc>
    <defs>
        <linearGradient x1="0%" y1="0%" x2="100%" y2="100%" id="linearGradient-1">
            <stop stop-color="#6BD149" offset="0%"></stop>
            <stop stop-color="#4BBC4B" offset="100%"></stop>
        </linearGradient>
        <circle id="path-2" cx="28" cy="28" r="28"></circle>
        <filter x="-22.3%" y="-13.4%" width="144.6%" height="153.6%" filterUnits="objectBoundingBox" id="filter-3">
            <feMorphology radius="5" operator="erode" in="SourceAlpha" result="shadowSpreadOuter1"></feMorphology>
            <feOffset dx="0" dy="10" in="shadowSpreadOuter1" result="shadowOffsetOuter1"></feOffset>
            <feGaussianBlur stdDeviation="7.5" in="shadowOffsetOuter1" result="shadowBlurOuter1"></feGaussianBlur>
            <feColorMatrix values="0 0 0 0 0.12   0 0 0 0 0.6   0 0 0 0 0.12  0 0 0 0.8 0" type="matrix" in="shadowBlurOuter1"></feColorMatrix>
        </filter>
    </defs>
    <g id="icon/fab/phone" stroke="none" stroke-width="1" fill="none" fill-rule="evenodd">
        <g>
            <g id="编组-3">
                <g id="椭圆形">
                    <use fill="black" fill-opacity="1" filter="url(#filter-3)" xlink:href="#path-2"></use>
                    <use fill="url(#linearGradient-1)" fill-rule="evenodd" xlink:href="#path-2"></use>
                </g>
            </g>
            <g id="phone" transform="translate(14.000000, 14.000000)">
                <path d="M8.68359375,26.6503906 C10.3932292,26.6503906 12.1748047,26.1975911 14.0283203,25.2919922 C15.8818359,24.3863932 17.6295573,23.1041667 19.2714844,21.4453125 C20.422526,20.2942708 21.4127604,19.0755208 22.2421875,17.7890625 C23.0546875,16.5026042 23.6471354,15.2076823 24.0195312,13.9042969 C24.8489583,11.0266927 24.578125,8.52148438 23.2070312,6.38867188 C22.0898437,4.67903646 21.0065104,3.82421875 19.9570312,3.82421875 C19.3476562,3.82421875 18.8059896,4.06119792 18.3320312,4.53515625 C17.5195312,5.34765625 16.8678385,6.13476562 16.3769531,6.89648438 C15.6321615,8.04752604 15.3867188,9.02083333 15.640625,9.81640625 C15.7083333,10.0703125 15.8564453,10.3326823 16.0849609,10.6035156 C16.3134766,10.874349 16.6901042,11.2721354 17.2148437,11.796875 C17.7565104,12.3385417 18.078125,12.6855469 18.1796875,12.8378906 C18.3489583,13.0748698 18.188151,13.5826823 17.6972656,14.3613281 C17.2402344,15.0891927 16.4023438,16.0878906 15.1835938,17.3574219 C14.1510417,18.3391927 13.313151,19.0585938 12.6699219,19.515625 C11.8574219,20.1080729 11.2565104,20.4042969 10.8671875,20.4042969 C10.7825521,20.4042969 10.7148438,20.3873698 10.6640625,20.3535156 C10.5117188,20.235026 10.1647135,19.9134115 9.62304688,19.3886719 C9.08138021,18.8470052 8.67936198,18.4661458 8.41699219,18.2460938 C8.1546224,18.0260417 7.89648438,17.8821615 7.64257812,17.8144531 C7.43945313,17.7467448 7.22786458,17.7128906 7.0078125,17.7128906 C6.27994792,17.7128906 5.43359375,18.0514323 4.46875,18.7285156 C3.79166667,19.1855469 3.09765625,19.7779948 2.38671875,20.5058594 C1.828125,21.047526 1.59114583,21.6653646 1.67578125,22.359375 C1.77734375,23.3242188 2.62369792,24.3313802 4.21484375,25.3808594 C5.53515625,26.2272135 7.02473958,26.6503906 8.68359375,26.6503906 Z M8.68359375,24.8476562 C7.38020833,24.8476562 6.22070312,24.5175781 5.20507812,23.8574219 C4.61263021,23.468099 4.17252604,23.1295573 3.88476562,22.8417969 C3.61393229,22.5709635 3.47005208,22.3424479 3.453125,22.15625 C3.43619792,22.0377604 3.50390625,21.9108073 3.65625,21.7753906 C4.31640625,21.1152344 4.92578125,20.5904948 5.484375,20.2011719 C6.14453125,19.7441406 6.65234375,19.515625 7.0078125,19.515625 C7.04166667,19.515625 7.06705729,19.5240885 7.08398438,19.5410156 C7.16861979,19.5748698 7.27018229,19.6510417 7.38867188,19.7695312 C7.57486979,19.921875 7.89648438,20.218099 8.35351562,20.6582031 C8.94596354,21.2675781 9.36067708,21.656901 9.59765625,21.8261719 L9.6484375,21.8515625 C10.0039062,22.0885417 10.4101562,22.2070312 10.8671875,22.2070312 C11.2734375,22.2070312 11.7135417,22.1054688 12.1875,21.9023438 C12.6445312,21.7161458 13.1608073,21.4114583 13.7363281,20.9882812 C14.4303385,20.4804688 15.327474,19.7102865 16.4277344,18.6777344 L16.453125,18.6523438 L16.5039062,18.6015625 C17.7903646,17.2473958 18.6959635,16.155599 19.2207031,15.3261719 C19.4915365,14.9029948 19.6946615,14.5052083 19.8300781,14.1328125 C19.9485677,13.7942708 20.016276,13.4811198 20.0332031,13.1933594 C20.0670573,12.6686198 19.9401042,12.203125 19.6523437,11.796875 C19.4830729,11.5598958 19.1106771,11.1536458 18.5351562,10.578125 L18.484375,10.5273438 C18.0442708,10.0872396 17.7480469,9.77408854 17.5957031,9.58789062 C17.4772135,9.43554688 17.4010417,9.32552083 17.3671875,9.2578125 C17.2994792,8.98697917 17.4772135,8.52148438 17.9003906,7.86132812 C18.3066406,7.23502604 18.8736979,6.55794271 19.6015625,5.83007812 C19.7369792,5.69466146 19.8554687,5.62695312 19.9570312,5.62695312 C20.1263021,5.62695312 20.3463542,5.75390625 20.6171875,6.0078125 C20.921875,6.29557292 21.2773437,6.75260417 21.6835937,7.37890625 C22.2083333,8.19140625 22.5299479,9.08854167 22.6484375,10.0703125 C22.75,11.1197917 22.6315104,12.2285156 22.2929687,13.3964844 C21.9544271,14.530599 21.421224,15.6731771 20.6933594,16.8242188 C19.9654948,17.9921875 19.0683594,19.109375 18.0019531,20.1757812 C17.2571615,20.9205729 16.4785156,21.5976562 15.6660156,22.2070312 C14.8704427,22.7825521 14.0664063,23.2734375 13.2539062,23.6796875 C12.4583333,24.0520833 11.671224,24.3398438 10.8925781,24.5429688 C10.1308594,24.7460938 9.39453125,24.8476562 8.68359375,24.8476562 Z" id="" fill="#FFFFFF" fill-rule="nonzero" transform="translate(13.073777, 15.237305) scale(-1, 1) translate(-13.073777, -15.237305) "></path>
                <path d="M22,14 C22,9.581722 18.418278,6 14,6" id="形状" stroke="#FFFFFF" stroke-width="2" opacity="0.5" stroke-linecap="round" stroke-linejoin="round"></path>
                <path d="M27,14 C27,6.82029825 21.1797017,1 14,1" id="形状" stroke="#FFFFFF" stroke-width="2" opacity="0.5" stroke-linecap="round"></path>
                <circle id="椭圆形" fill="#FFFFFF" opacity="0.5" cx="27" cy="18" r="1"></circle>
                <circle id="椭圆形备份-3" fill="#FFFFFF" opacity="0.5" cx="10" cy="1" r="1"></circle>
            </g>
        </g>
    </g>
</svg>