<?xml version="1.0" encoding="UTF-8"?>
<svg width="20px" height="24px" viewBox="0 0 20 24" version="1.1" xmlns="http://www.w3.org/2000/svg" xmlns:xlink="http://www.w3.org/1999/xlink">
    <!-- Generator: Sketch 62 (91390) - https://sketch.com -->
    <title>icon/file/xls备份</title>
    <desc>Created with Sketch.</desc>
    <g id="icon/file/xls备份" stroke="none" stroke-width="1" fill="none" fill-rule="evenodd">
        <path d="M2,0 L14.1715729,0 C14.7020059,3.01118551e-15 15.2107137,0.210713681 15.5857864,0.585786438 L19.4142136,4.41421356 C19.7892863,4.78928632 20,5.29799415 20,5.82842712 L20,22 C20,23.1045695 19.1045695,24 18,24 L2,24 C0.8954305,24 1.3527075e-16,23.1045695 0,22 L0,2 C-1.3527075e-16,0.8954305 0.8954305,2.02906125e-16 2,0 Z" id="矩形备份-2" fill="#5B4BBB" opacity="0.15"></path>
        <path d="M7.76499947,7.47812467 L14.3216014,11.5760008 C14.5557696,11.722356 14.6269562,12.0308312 14.480601,12.2649995 C14.4403607,12.329384 14.3859859,12.3837588 14.3216014,12.4239992 L7.76499947,16.5218753 C7.5308312,16.6682305 7.22235601,16.5970439 7.07600085,16.3628756 C7.02633472,16.2834098 7,16.191586 7,16.0978762 L7,7.90212382 C7,7.62598145 7.22385763,7.40212382 7.5,7.40212382 C7.59370986,7.40212382 7.68553367,7.42845854 7.76499947,7.47812467 Z" id="矩形" fill="#5B4BBB"></path>
    </g>
</svg>