<?xml version="1.0" encoding="UTF-8"?>
<svg width="12px" height="12px" viewBox="0 0 12 12" version="1.1" xmlns="http://www.w3.org/2000/svg" xmlns:xlink="http://www.w3.org/1999/xlink">
    <!-- Generator: Sketch 62 (91390) - https://sketch.com -->
    <title>icon/12px/filter备份</title>
    <desc>Created with Sketch.</desc>
    <g id="icon/12px/filter备份" stroke="none" stroke-width="1" fill="none" fill-rule="evenodd">
        <path d="M5.99778086,11.8092662 L2.22393621,8.13565756 C1.93900013,7.85828958 1.93286496,7.40245208 2.21023293,7.117516 C2.34577346,6.9782772 2.53183942,6.89973514 2.72615535,6.89973514 L10.2738447,6.89973514 C10.6714897,6.89973514 10.9938447,7.22209012 10.9938447,7.61973514 C10.9938447,7.81405106 10.9153026,8.00011703 10.7760638,8.13565756 L7.00221914,11.8092662 C6.72269123,12.0813696 6.27730877,12.0813696 5.99778086,11.8092662 Z" id="形状结合" fill="#CCCCCC"></path>
        <path d="M7.00221914,0.190733837 L10.7760638,3.86434244 C11.0609999,4.14171042 11.067135,4.59754792 10.7897671,4.882484 C10.6542265,5.0217228 10.4681606,5.10026486 10.2738447,5.10026486 L2.72615535,5.10026486 C2.32851033,5.10026486 2.00615535,4.77790988 2.00615535,4.38026486 C2.00615535,4.18594894 2.0846974,3.99988297 2.22393621,3.86434244 L5.99778086,0.190733837 C6.27730877,-0.0813696131 6.72269123,-0.0813696131 7.00221914,0.190733837 Z" id="矩形" fill="#3F51B5"></path>
    </g>
</svg>