<?xml version="1.0" encoding="UTF-8"?>
<svg width="24px" height="24px" viewBox="0 0 24 24" version="1.1" xmlns="http://www.w3.org/2000/svg" xmlns:xlink="http://www.w3.org/1999/xlink">
    <!-- Generator: Sketch 62 (91390) - https://sketch.com -->
    <title>icon/min/first_page</title>
    <desc>Created with Sketch.</desc>
    <g id="icon/min/first_page" stroke="none" stroke-width="1" fill="none" fill-rule="evenodd">
        <g>
            <rect id="Rectangle" fill-opacity="0" fill="#D8D8D8" x="0" y="0" width="24" height="24"></rect>
            <path d="M8.20710678,11.7426407 L12.0961941,15.631728 C12.2914562,15.8269901 12.2914562,16.1435726 12.0961941,16.3388348 C11.9009319,16.5340969 11.5843494,16.5340969 11.3890873,16.3388348 L7.14644661,12.0961941 C6.95118446,11.9009319 6.95118446,11.5843494 7.14644661,11.3890873 L11.3890873,7.14644661 C11.5843494,6.95118446 11.9009319,6.95118446 12.0961941,7.14644661 C12.2914562,7.34170876 12.2914562,7.65829124 12.0961941,7.85355339 L8.20710678,11.7426407 Z M12.2071068,11.7426407 L16.0961941,15.631728 C16.2914562,15.8269901 16.2914562,16.1435726 16.0961941,16.3388348 C15.9009319,16.5340969 15.5843494,16.5340969 15.3890873,16.3388348 L11.1464466,12.0961941 C10.9511845,11.9009319 10.9511845,11.5843494 11.1464466,11.3890873 L15.3890873,7.14644661 C15.5843494,6.95118446 15.9009319,6.95118446 16.0961941,7.14644661 C16.2914562,7.34170876 16.2914562,7.65829124 16.0961941,7.85355339 L12.2071068,11.7426407 Z" id="Shape" fill="#99A6BF" fill-rule="nonzero"></path>
        </g>
    </g>
</svg>