<?xml version="1.0" encoding="UTF-8"?>
<svg width="32px" height="32px" viewBox="0 0 32 32" version="1.1" xmlns="http://www.w3.org/2000/svg" xmlns:xlink="http://www.w3.org/1999/xlink">
    <title>icon/功能入口/视频</title>
    <defs>
        <linearGradient x1="0%" y1="26.9134711%" x2="100%" y2="87.8071834%" id="linearGradient-1">
            <stop stop-color="#192EFF" offset="0%"></stop>
            <stop stop-color="#1D5EFF" stop-opacity="0.293897509" offset="100%"></stop>
        </linearGradient>
        <linearGradient x1="-12.6595053%" y1="12.769355%" x2="134.122058%" y2="80.4166772%" id="linearGradient-2">
            <stop stop-color="#665DFF" stop-opacity="0.35623361" offset="0%"></stop>
            <stop stop-color="#1D6AFF" offset="100%"></stop>
        </linearGradient>
    </defs>
    <g id="icon/功能入口/视频" stroke="none" stroke-width="1" fill="none" fill-rule="evenodd">
        <g id="编组-2" transform="translate(1.000000, 6.000000)">
            <rect id="矩形" fill-opacity="0.86" fill="url(#linearGradient-1)" x="0" y="0" width="23" height="20"></rect>
            <circle id="椭圆形" fill="#FFFFFF" cx="5" cy="5" r="2"></circle>
            <polygon id="矩形" fill-opacity="0.86" fill="url(#linearGradient-2)" points="16 10 30 3 30 17"></polygon>
            <path d="M8.19510915,-0.00102846505 C12.2058234,1.79494003 15,5.82116255 15,10.5 C15,14.4473885 13.0111699,17.9302609 9.98088785,20.0012388 L0,20 L0,-4.82952437e-15 Z" id="形状结合" fill-opacity="0.09" fill="#FFFFFF"></path>
            <path d="M13.5,5 C19.8512746,5 25,10.1487254 25,16.5 C25,17.7208459 24.809761,18.8972591 24.4573099,20.0012125 L2.54269012,20.0012125 C2.19023903,18.8972591 2,17.7208459 2,16.5 C2,10.1487254 7.14872538,5 13.5,5 Z" id="形状结合" fill-opacity="0.09" fill="#FFFFFF"></path>
        </g>
    </g>
</svg>