<?xml version="1.0" encoding="UTF-8"?>
<svg width="32px" height="32px" viewBox="0 0 32 32" version="1.1" xmlns="http://www.w3.org/2000/svg" xmlns:xlink="http://www.w3.org/1999/xlink">
    <!-- Generator: Sketch 62 (91390) - https://sketch.com -->
    <title>icon/网络错误</title>
    <desc>Created with Sketch.</desc>
    <g id="icon/网络错误" stroke="none" stroke-width="1" fill="none" fill-rule="evenodd">
        <path d="M16,0 C24.836556,0 32,7.163444 32,16 C32,24.836556 24.836556,32 16,32 C7.163444,32 0,24.836556 0,16 C0,7.163444 7.163444,0 16,0 Z M16,2 C8.2680135,2 2,8.2680135 2,16 C2,23.7319865 8.2680135,30 16,30 C23.7319865,30 30,23.7319865 30,16 C30,8.2680135 23.7319865,2 16,2 Z M16,20 C17.1045695,20 18,20.8954305 18,22 C18,23.1045695 17.1045695,24 16,24 C14.8954305,24 14,23.1045695 14,22 C14,20.8954305 14.8954305,20 16,20 Z M16,7 C17.008709,7 17.8264293,7.81772024 17.8264293,8.82642928 C17.8264293,8.88163335 17.8239265,8.93680905 17.8189285,8.99178641 L17.0905357,17.0041068 C17.0392604,17.5681354 16.5663545,18 16,18 C15.4336455,18 14.9607396,17.5681354 14.9094643,17.0041068 L14.1810715,8.99178641 C14.0897473,7.98721994 14.8300764,7.09882499 15.8346429,7.00750077 C15.8896202,7.00250283 15.9447959,7 16,7 Z" id="形状结合" fill="#FFFFFF" fill-rule="nonzero"></path>
    </g>
</svg>