<?xml version="1.0" encoding="UTF-8"?>
<svg width="32px" height="32px" viewBox="0 0 32 32" version="1.1" xmlns="http://www.w3.org/2000/svg" xmlns:xlink="http://www.w3.org/1999/xlink">
    <!-- Generator: Sketch 62 (91390) - https://sketch.com -->
    <title>icon/网络错误备份</title>
    <desc>Created with Sketch.</desc>
    <g id="icon/网络错误备份" stroke="none" stroke-width="1" fill="none" fill-rule="evenodd">
        <path d="M16,25 C16.8284271,25 17.5,25.6715729 17.5,26.5 L17.5,30.5 C17.5,31.3284271 16.8284271,32 16,32 C15.1715729,32 14.5,31.3284271 14.5,30.5 L14.5,26.5 C14.5,25.6715729 15.1715729,25 16,25 Z M22.5490381,24.3432667 L24.5490381,27.8073684 C24.9632517,28.5248073 24.7174389,29.4421929 24,29.8564065 C23.2825611,30.27062 22.3651755,30.0248073 21.9509619,29.3073684 L19.9509619,25.8432667 C19.5367483,25.1258278 19.7825611,24.2084422 20.5,23.7942286 C21.2174389,23.3800151 22.1348245,23.6258278 22.5490381,24.3432667 Z M11.5,23.7942286 C12.2174389,24.2084422 12.4632517,25.1258278 12.0490381,25.8432667 L10.0490381,29.3073684 C9.63482454,30.0248073 8.71743894,30.27062 8,29.8564065 C7.28256106,29.4421929 7.03674833,28.5248073 7.45096189,27.8073684 L9.45096189,24.3432667 C9.86517546,23.6258278 10.7825611,23.3800151 11.5,23.7942286 Z M25.8432667,19.9509619 L29.3073684,21.9509619 C30.0248073,22.3651755 30.27062,23.2825611 29.8564065,24 C29.4421929,24.7174389 28.5248073,24.9632517 27.8073684,24.5490381 L24.3432667,22.5490381 C23.6258278,22.1348245 23.3800151,21.2174389 23.7942286,20.5 C24.2084422,19.7825611 25.1258278,19.5367483 25.8432667,19.9509619 Z M8.20577137,20.5 C8.61998493,21.2174389 8.3741722,22.1348245 7.65673326,22.5490381 L4.19263165,24.5490381 C3.47519271,24.9632517 2.5578071,24.7174389 2.14359354,24 C1.72937998,23.2825611 1.97519271,22.3651755 2.69263165,21.9509619 L6.15673326,19.9509619 C6.8741722,19.5367483 7.7915578,19.7825611 8.20577137,20.5 Z M30.5,14.5 C31.3284271,14.5 32,15.1715729 32,16 C32,16.8284271 31.3284271,17.5 30.5,17.5 L26.5,17.5 C25.6715729,17.5 25,16.8284271 25,16 C25,15.1715729 25.6715729,14.5 26.5,14.5 L30.5,14.5 Z M5.5,14.5 C6.32842712,14.5 7,15.1715729 7,16 C7,16.8284271 6.32842712,17.5 5.5,17.5 L1.5,17.5 C0.671572875,17.5 1.03203483e-15,16.8284271 7.27675645e-16,16 C4.23316457e-16,15.1715729 0.671572875,14.5 1.5,14.5 L5.5,14.5 Z M29.8564065,8 C30.27062,8.71743894 30.0248073,9.63482454 29.3073684,10.0490381 L25.8432667,12.0490381 C25.1258278,12.4632517 24.2084422,12.2174389 23.7942286,11.5 C23.3800151,10.7825611 23.6258278,9.86517546 24.3432667,9.45096189 L27.8073684,7.45096189 C28.5248073,7.03674833 29.4421929,7.28256106 29.8564065,8 Z M4.19263165,7.45096189 L7.65673326,9.45096189 C8.3741722,9.86517546 8.61998493,10.7825611 8.20577137,11.5 C7.7915578,12.2174389 6.8741722,12.4632517 6.15673326,12.0490381 L2.69263165,10.0490381 C1.97519271,9.63482454 1.72937998,8.71743894 2.14359354,8 C2.5578071,7.28256106 3.47519271,7.03674833 4.19263165,7.45096189 Z M24,2.14359354 C24.7174389,2.5578071 24.9632517,3.47519271 24.5490381,4.19263165 L22.5490381,7.65673326 C22.1348245,8.3741722 21.2174389,8.61998493 20.5,8.20577137 C19.7825611,7.7915578 19.5367483,6.8741722 19.9509619,6.15673326 L21.9509619,2.69263165 C22.3651755,1.97519271 23.2825611,1.72937998 24,2.14359354 Z M10.0490381,2.69263165 L12.0490381,6.15673326 C12.4632517,6.8741722 12.2174389,7.7915578 11.5,8.20577137 C10.7825611,8.61998493 9.86517546,8.3741722 9.45096189,7.65673326 L7.45096189,4.19263165 C7.03674833,3.47519271 7.28256106,2.5578071 8,2.14359354 C8.71743894,1.72937998 9.63482454,1.97519271 10.0490381,2.69263165 Z M16,0 C16.8284271,-1.52179594e-16 17.5,0.671572875 17.5,1.5 L17.5,5.5 C17.5,6.32842712 16.8284271,7 16,7 C15.1715729,7 14.5,6.32842712 14.5,5.5 L14.5,1.5 C14.5,0.671572875 15.1715729,1.52179594e-16 16,0 Z" id="形状结合" fill=""></path>
    </g>
</svg>