<?xml version="1.0" encoding="UTF-8"?>
<svg width="100px" height="87px" viewBox="0 0 100 87" version="1.1" xmlns="http://www.w3.org/2000/svg" xmlns:xlink="http://www.w3.org/1999/xlink">
    <!-- Generator: Sketch 62 (91390) - https://sketch.com -->
    <title>icon/petct-服务中心</title>
    <desc>Created with Sketch.</desc>
    <defs>
        <linearGradient x1="50%" y1="0%" x2="50%" y2="100%" id="linearGradient-1">
            <stop stop-color="#4559E6" offset="0%"></stop>
            <stop stop-color="#4559E6" stop-opacity="0.15" offset="100%"></stop>
        </linearGradient>
        <linearGradient x1="50%" y1="0%" x2="50%" y2="100%" id="linearGradient-2">
            <stop stop-color="#4559E6" offset="0%"></stop>
            <stop stop-color="#4559E6" stop-opacity="0.15" offset="100%"></stop>
        </linearGradient>
        <linearGradient x1="50%" y1="0%" x2="50%" y2="100%" id="linearGradient-3">
            <stop stop-color="#FFFFFF" offset="0%"></stop>
            <stop stop-color="#FFFFFF" stop-opacity="0.500600962" offset="100%"></stop>
        </linearGradient>
        <linearGradient x1="50%" y1="0%" x2="50%" y2="100%" id="linearGradient-4">
            <stop stop-color="#FFFFFF" stop-opacity="0.404392483" offset="0%"></stop>
            <stop stop-color="#FFFFFF" stop-opacity="0.7" offset="100%"></stop>
        </linearGradient>
        <linearGradient x1="50%" y1="0%" x2="50%" y2="100%" id="linearGradient-5">
            <stop stop-color="#FFFFFF" stop-opacity="0.4" offset="0%"></stop>
            <stop stop-color="#FFFFFF" offset="100%"></stop>
        </linearGradient>
        <linearGradient x1="50%" y1="0%" x2="50%" y2="100%" id="linearGradient-6">
            <stop stop-color="#FFFFFF" stop-opacity="0.4" offset="0%"></stop>
            <stop stop-color="#FFFFFF" offset="100%"></stop>
        </linearGradient>
        <linearGradient x1="50%" y1="0%" x2="50%" y2="100%" id="linearGradient-7">
            <stop stop-color="#FF5B4C" stop-opacity="0.7" offset="0%"></stop>
            <stop stop-color="#FF5B4C" stop-opacity="0.412265473" offset="51.5356817%"></stop>
            <stop stop-color="#FF5B4C" stop-opacity="0.299228638" offset="73.9482287%"></stop>
            <stop stop-color="#FF5B4C" stop-opacity="0.05" offset="100%"></stop>
        </linearGradient>
        <linearGradient x1="50%" y1="0%" x2="50%" y2="100%" id="linearGradient-8">
            <stop stop-color="#4559E6" offset="0%"></stop>
            <stop stop-color="#4559E6" stop-opacity="0.15" offset="100%"></stop>
        </linearGradient>
    </defs>
    <g id="icon/petct-服务中心" stroke="none" stroke-width="1" fill="none" fill-rule="evenodd">
        <g id="编组-2备份">
            <rect id="矩形备份-3" stroke="#E6E9F5" fill="#FFFFFF" opacity="0" x="0.5" y="0.5" width="99" height="86" rx="2"></rect>
            <g id="编组" transform="translate(29.000000, 20.000000)">
                <path d="M6,16 L32,16 C35.3137085,16 38,18.6862915 38,22 L38,32 L38,32 L0,32 L0,22 C-4.05812251e-16,18.6862915 2.6862915,16 6,16 Z" id="形状结合" fill-opacity="0.5" fill="url(#linearGradient-1)"></path>
                <circle id="形状结合" fill-opacity="0.8" fill="url(#linearGradient-2)" cx="19" cy="14" r="14"></circle>
                <circle id="椭圆形" fill="url(#linearGradient-3)" cx="19" cy="14" r="7"></circle>
                <path d="M30,11 L30,30 L8,30 L8,11 L30,11 Z M18.718,17.2 L15.414,17.2 L15.414,27 L17.794,27 L17.794,24.928 L18.718,24.928 C21.588,24.928 23.114,23.164 23.114,21.064 C23.114,18.978 21.588,17.2 18.718,17.2 Z M18.9,19.44 C19.908,19.44 20.86,19.986 20.86,21.064 C20.86,22.198 19.908,22.674 18.9,22.674 L17.794,22.674 L17.794,19.44 L18.9,19.44 Z" id="形状结合" fill="url(#linearGradient-4)"></path>
                <rect id="矩形" fill="url(#linearGradient-5)" x="8" y="11" width="22" height="3"></rect>
                <rect id="矩形备份" fill="url(#linearGradient-6)" x="8" y="27" width="22" height="5"></rect>
                <g id="编组-13" transform="translate(23.000000, 15.000000)">
                    <polygon id="多边形" fill="#FFFFFF" points="11 0 20.5262794 5.5 20.5262794 16.5 11 22 1.47372056 16.5 1.47372056 5.5"></polygon>
                    <polygon id="形状结合" fill="url(#linearGradient-7)" points="11 2 18.7942286 6.5 18.7942286 15.5 11 20 3.20577137 15.5 3.20577137 6.5"></polygon>
                    <polygon id="路径-3" fill-opacity="0.8" fill="url(#linearGradient-8)" points="18.7942286 6.5 11 11 11 20 18.7942286 15.5"></polygon>
                    <polygon id="路径-3" fill-opacity="0.8" fill="url(#linearGradient-8)" points="18.7942286 6.5 11 11 11 20 18.7942286 15.5"></polygon>
                </g>
            </g>
        </g>
    </g>
</svg>