<?xml version="1.0" encoding="UTF-8"?>
<svg width="32px" height="32px" viewBox="0 0 32 32" version="1.1" xmlns="http://www.w3.org/2000/svg" xmlns:xlink="http://www.w3.org/1999/xlink">
    <title>icon/功能入口/手册</title>
    <defs>
        <linearGradient x1="22.5651578%" y1="0%" x2="77.4348422%" y2="100%" id="linearGradient-1">
            <stop stop-color="#318DF1" stop-opacity="0" offset="0%"></stop>
            <stop stop-color="#1D94E5" stop-opacity="0.132484703" offset="100%"></stop>
        </linearGradient>
        <linearGradient x1="16.8038409%" y1="0%" x2="83.1961591%" y2="100%" id="linearGradient-2">
            <stop stop-color="#1887FF" offset="0%"></stop>
            <stop stop-color="#12D7FF" stop-opacity="0.321978802" offset="100%"></stop>
        </linearGradient>
    </defs>
    <g id="icon/功能入口/手册" stroke="none" stroke-width="1" fill="none" fill-rule="evenodd">
        <g id="编组-2" transform="translate(4.000000, 2.000000)">
            <rect id="矩形备份-2" fill="url(#linearGradient-1)" x="5" y="2" width="20" height="27"></rect>
            <rect id="矩形" fill-opacity="0.86" fill="url(#linearGradient-2)" x="0" y="0" width="22" height="27"></rect>
            <polygon id="矩形" fill="#FFFFFF" opacity="0.5" points="15 0 19 0 19 8 17 6 15 8"></polygon>
            <rect id="矩形" fill-opacity="0.23" fill="#006BFF" style="mix-blend-mode: multiply;" transform="translate(2.500000, 13.500000) scale(-1, 1) translate(-2.500000, -13.500000) " x="0" y="0" width="5" height="27"></rect>
            <path d="M21,19 C22.5371282,19 23.939252,19.5780225 25.0008689,20.5285648 L25,29 L16.5285648,29.0008689 C15.5780225,27.939252 15,26.5371282 15,25 C15,21.6862915 17.6862915,19 21,19 Z" id="形状结合" fill-opacity="0.37" fill="#FFFFFF"></path>
        </g>
    </g>
</svg>