<?xml version="1.0" encoding="UTF-8"?>
<svg width="24px" height="24px" viewBox="0 0 24 24" version="1.1" xmlns="http://www.w3.org/2000/svg" xmlns:xlink="http://www.w3.org/1999/xlink">
    <!-- Generator: Sketch 62 (91390) - https://sketch.com -->
    <title>icon/24px/职业备份</title>
    <desc>Created with Sketch.</desc>
    <g id="icon/24px/职业备份" stroke="none" stroke-width="1" fill="none" fill-rule="evenodd">
        <g id="职业病">
            <rect id="矩形" fill="#F1F1F1" opacity="0" x="0" y="0" width="24" height="24"></rect>
            <path d="M14.8549543,4 C15.0462826,4 15.1623133,4.20535767 15.0899541,4.37341477 L15.0537678,4.43421378 L12.8388869,7.32585358 C12.7958776,7.38367579 12.7771933,7.45366237 12.7847378,7.52248621 L12.8010957,7.59042889 L16.1530087,16.3603071 C16.1830164,16.4361413 16.1774235,16.5194729 16.13966,16.5901371 L16.1053589,16.640445 L12.273676,21.0137153 C12.2623329,21.0272093 12.2494151,21.039445 12.2351688,21.050189 C12.2003834,21.0764231 12.160309,21.0920981 12.1192592,21.0976775 L12.0574922,21.0985329 C12.0165455,21.0941326 11.9767802,21.0798684 11.9425099,21.0562041 L11.8957651,21.0137153 L8.06735555,16.640445 C8.0140096,16.5772987 7.99139723,16.4967946 8.00294419,16.4184017 L8.0180628,16.3603071 L11.3699694,7.59043983 C11.3966599,7.52379012 11.3957056,7.45097642 11.3690172,7.38606507 L11.3338215,7.3243088 L9.11728467,4.43576949 C8.99752213,4.2794467 9.07768882,4.0567194 9.24930962,4.00915435 L9.31774247,4 L14.8549543,4 Z M12.086,8.519 L9.107,16.31 L12.084,19.711 L15.063,16.311 L12.086,8.519 Z M14.3396449,9.26608649 L14.3883221,9.30705794 L16.925254,11.9543564 C17.0083051,12.0446808 17.0221469,12.1718228 16.9667796,12.2744203 L16.9252541,12.3325426 L16.0067666,13.2912362 C15.9751369,13.3235299 15.9382699,13.3454157 15.8995801,13.3574528 L15.8406052,13.3681921 C15.7612874,13.3728489 15.6815076,13.3392299 15.6285821,13.2718096 L15.5943499,13.2149765 L13.9759055,9.60898498 C13.8917295,9.42150768 14.0249074,9.24745764 14.1818925,9.22833117 L14.2348371,9.22788768 C14.2703673,9.2316761 14.3060112,9.24389144 14.3396449,9.26608649 Z M13.36,5 L10.811,5 L12.087,6.663 L13.36,5 Z" id="形状" fill="#5C6280" fill-rule="nonzero"></path>
        </g>
    </g>
</svg>