<?xml version="1.0" encoding="UTF-8"?>
<svg width="24px" height="24px" viewBox="0 0 24 24" version="1.1" xmlns="http://www.w3.org/2000/svg" xmlns:xlink="http://www.w3.org/1999/xlink">
    <!-- Generator: Sketch 62 (91390) - https://sketch.com -->
    <title>icon/24px/职业备份 2</title>
    <desc>Created with Sketch.</desc>
    <g id="icon/24px/职业备份-2" stroke="none" stroke-width="1" fill="none" fill-rule="evenodd">
        <path d="M17.8591682,4.00000004 C19.0388001,4.00000004 19.9961576,4.9623314 20,6.15194819 L20,6.15194819 L20,16.8833495 C19.9771288,18.0591585 19.0252959,19.000226 17.8591339,19 L17.8591339,19 L7.14084891,19 C5.97469373,19.0002238 5.02286428,18.0591585 5,16.8833495 L5,16.8833495 L5,6.1166505 C5.02287117,4.94084154 5.97470404,3.999774 7.14086605,4.00000004 L7.14086605,4.00000004 Z M17.859151,5.29115683 L7.14086601,5.29115683 C6.67260602,5.2987136 6.29481465,5.67970206 6.28732085,6.15192801 L6.28732085,6.15192801 L6.28732085,16.8833528 C6.29481417,17.3555788 6.67260431,17.7365669 7.140866,17.744124 L7.140866,17.744124 L17.859151,17.744124 C18.327411,17.7365673 18.7052023,17.3555788 18.7126961,16.8833528 L18.7126961,16.8833528 L18.7126961,6.151928 C18.7088923,5.67813627 18.3289653,5.29499338 17.859151,5.29115683 L17.859151,5.29115683 Z M15.6503551,8.7991639 L15.8177132,8.92733756 C16.3541419,9.43609098 16.6563809,10.1201128 16.6652961,10.8320838 L16.6604121,11.026837 C16.7119209,11.7812831 16.443557,12.5214092 15.91926,13.0870666 L15.782891,13.2247534 C15.0780117,13.775578 14.1755147,14.0503705 13.2617668,13.992384 L11.4997598,13.992384 L11.4997598,8.17282891 L13.4498033,8.17282891 C14.2416868,8.12576618 15.0224263,8.34959176 15.6503551,8.7991639 Z M10.482946,8.17282446 L10.482946,13.9923795 L9.16666667,13.9923795 L9.16666667,8.17282446 L10.482946,8.17282446 Z M13.4985626,9.15039886 L12.8021185,9.15039886 L12.8021185,12.9426283 L13.3662382,12.9426283 C14.6337664,12.9426283 15.267534,12.3040302 15.267534,11.0268356 C15.267534,9.7758815 14.6778672,9.15039886 13.4985626,9.15039886 Z" id="形状结合" fill="#5C6280" fill-rule="nonzero"></path>
    </g>
</svg>