<?xml version="1.0" encoding="UTF-8"?>
<svg width="24px" height="24px" viewBox="0 0 24 24" version="1.1" xmlns="http://www.w3.org/2000/svg" xmlns:xlink="http://www.w3.org/1999/xlink">
    <!-- Generator: Sketch 62 (91390) - https://sketch.com -->
    <title>icon/24px/职业备份 3</title>
    <desc>Created with Sketch.</desc>
    <g id="icon/24px/职业备份-3" stroke="none" stroke-width="1" fill="none" fill-rule="evenodd">
        <path d="M17.8591682,4.00000004 C19.0388001,4.00000004 19.9961576,4.9623314 20,6.15194819 L20,6.15194819 L20,16.8833495 C19.9771288,18.0591585 19.0252959,19.000226 17.8591339,19 L17.8591339,19 L7.14084891,19 C5.97469373,19.0002238 5.02286428,18.0591585 5,16.8833495 L5,16.8833495 L5,6.1166505 C5.02287117,4.94084154 5.97470404,3.999774 7.14086605,4.00000004 L7.14086605,4.00000004 Z M13.6653888,8.16667594 L13.4498033,8.17282891 L11.4997598,8.17282891 L11.4997598,13.992384 L13.2617668,13.992384 C14.1755147,14.0503705 15.0780117,13.775578 15.782891,13.2247534 L15.782891,13.2247534 L15.91926,13.0870666 C16.443557,12.5214092 16.7119209,11.7812831 16.6604121,11.026837 L16.6604121,11.026837 L16.6652961,10.8320838 C16.6563809,10.1201128 16.3541419,9.43609098 15.8177132,8.92733756 L15.8177132,8.92733756 L15.6503551,8.7991639 C15.0224263,8.34959176 14.2416868,8.12576618 13.4498033,8.17282891 Z M10.482946,8.17282446 L9.16666667,8.17282446 L9.16666667,13.9923795 L10.482946,13.9923795 L10.482946,8.17282446 Z M13.4985626,9.15039886 C14.6778672,9.15039886 15.267534,9.7758815 15.267534,11.0268356 C15.267534,12.3040302 14.6337664,12.9426283 13.3662382,12.9426283 L13.3662382,12.9426283 L12.8021185,12.9426283 L12.8021185,9.15039886 Z" id="形状结合" fill="#5063C2"></path>
    </g>
</svg>