<?xml version="1.0" encoding="UTF-8"?>
<svg width="24px" height="24px" viewBox="0 0 24 24" version="1.1" xmlns="http://www.w3.org/2000/svg" xmlns:xlink="http://www.w3.org/1999/xlink">
    <!-- Generator: Sketch 62 (91390) - https://sketch.com -->
    <title>icon/24px/职业备份 4</title>
    <desc>Created with Sketch.</desc>
    <g id="icon/24px/职业备份-4" stroke="none" stroke-width="1" fill="none" fill-rule="evenodd">
        <path d="M9.90625804,18.8750173 L5.12500247,18.8750173 C4.48750173,18.8750173 4.06250124,18.4500168 4.06250124,17.8125161 L4.06250124,6.12500247 C4.06250124,5.48750173 4.48750173,5.06250124 5.12500247,5.06250124 L14.6875136,5.06250124 C15.3250143,5.06250124 15.7500148,5.48750173 15.7500148,6.12500247 L15.7500148,8.78125556 C15.7500148,9.10000593 15.9625151,9.31250618 16.2812655,9.31250618 C16.6000158,9.31250618 16.8125161,9.10000593 16.8125161,8.78125556 L16.8125161,6.12500247 C16.8125161,4.95625111 15.856265,4 14.6875136,4 L5.12500247,4 C3.95625111,4 3,4.95625111 3,6.12500247 L3,17.8125161 C3,18.9812674 3.95625111,19.9375185 5.12500247,19.9375185 L9.90625804,19.9375185 C10.2250084,19.9375185 10.4375087,19.7250183 10.4375087,19.4062679 C10.4375087,19.0875176 10.2250084,18.8750173 9.90625804,18.8750173 Z M13.6250124,8.78125556 C13.6250124,8.46250519 13.4125121,8.25000495 13.0937617,8.25000495 L6.71875433,8.25000495 C6.40000396,8.25000495 6.18750371,8.46250519 6.18750371,8.78125556 C6.18750371,9.10000593 6.40000396,9.31250618 6.71875433,9.31250618 L13.0937617,9.31250618 C13.4125121,9.31250618 13.6250124,9.10000593 13.6250124,8.78125556 Z M6.71875433,11.4375087 C6.40000396,11.4375087 6.18750371,11.6500089 6.18750371,11.9687593 C6.18750371,12.2875096 6.40000396,12.5000099 6.71875433,12.5000099 L9.90625804,12.5000099 C10.2250084,12.5000099 10.4375087,12.2875096 10.4375087,11.9687593 C10.4375087,11.6500089 10.2250084,11.4375087 9.90625804,11.4375087 L6.71875433,11.4375087 Z M15.2187642,10.3750074 C12.5625111,10.3750074 10.4375087,12.5000099 10.4375087,15.156263 C10.4375087,17.8125161 12.5625111,19.9375185 15.2187642,19.9375185 C17.8750173,19.9375185 20.0000198,17.8125161 20.0000198,15.156263 C20.0000198,12.5000099 17.8750173,10.3750074 15.2187642,10.3750074 Z M15.2187642,18.8750173 C13.2000119,18.8750173 11.5000099,17.1750153 11.5000099,15.156263 C11.5000099,13.1375106 13.2000119,11.4375087 15.2187642,11.4375087 C17.2375166,11.4375087 18.9375185,13.1375106 18.9375185,15.156263 C18.9375185,17.1750153 17.2375166,18.8750173 15.2187642,18.8750173 Z M15.7500148,14.9458877 L15.7500149,14.9458877 C15.7726846,14.9625994 15.7940009,14.9810733 15.8137649,15.0011378 L16.5660158,15.7523262 L16.5660158,15.7523262 C16.7698451,15.9633672 16.7639996,16.2996853 16.5529595,16.5035146 C16.3470883,16.7023517 16.0206995,16.7023517 15.8148267,16.5035145 L15.0636383,15.7523262 L15.0636382,15.7523261 C15.0259098,15.7148017 14.9940331,15.6718221 14.9690756,15.624826 L14.9690756,15.624826 C14.7958995,15.5326133 14.6876439,15.3524604 14.6875128,15.1562629 L14.6875128,13.0312605 L14.6875128,13.0312605 C14.6875128,12.7378591 14.925362,12.5000099 15.2187634,12.5000099 C15.5121648,12.5000099 15.750014,12.7378591 15.750014,13.0312605 C15.750014,13.0312605 15.750014,13.0312605 15.750014,13.0312605 L15.750014,14.9458878 L15.7500148,14.9458877 Z" id="形状" fill="#5C6280" fill-rule="nonzero"></path>
    </g>
</svg>