<?xml version="1.0" encoding="UTF-8"?>
<svg width="24px" height="24px" viewBox="0 0 24 24" version="1.1" xmlns="http://www.w3.org/2000/svg" xmlns:xlink="http://www.w3.org/1999/xlink">
    <!-- Generator: Sketch 62 (91390) - https://sketch.com -->
    <title>icon/24px/职业备份 5</title>
    <desc>Created with Sketch.</desc>
    <g id="icon/24px/职业备份-5" stroke="none" stroke-width="1" fill="none" fill-rule="evenodd">
        <path d="M14.6875136,4 C15.8054497,4 16.7289621,4.8749065 16.8071542,5.97382288 L16.8125161,6.12500247 L16.8125161,8.78125556 C16.8125161,8.9714607 16.7368498,9.12383269 16.608093,9.21579567 C16.0965826,9.07462547 15.5576195,9 15,9 C11.6666667,9 9,11.6666667 9,15 C9,17.0559039 10.0144178,18.8582033 11.5740056,19.9376506 L5.12500247,19.9375185 C4.00706639,19.9375185 3.08355397,19.062612 3.00536185,17.9636957 L3,17.8125161 L3,6.12500247 C3,5.00706639 3.8749065,4.08355397 4.97382288,4.00536185 L5.12500247,4 L14.6875136,4 Z M15.2187642,10.3750074 C17.8750173,10.3750074 20.0000198,12.5000099 20.0000198,15.156263 C20.0000198,17.8125161 17.8750173,19.9375185 15.2187642,19.9375185 C12.5625111,19.9375185 10.4375087,17.8125161 10.4375087,15.156263 C10.4375087,12.5000099 12.5625111,10.3750074 15.2187642,10.3750074 Z M15.2187634,12.5000099 C14.9547021,12.5000099 14.7356382,12.6926678 14.694466,12.945089 L14.6875128,13.0312605 L14.6875128,15.1562629 C14.6876221,15.3197608 14.7628178,15.4721167 14.8880976,15.5717241 L14.9690756,15.624826 L15.0115678,15.6921279 L15.0636382,15.7523261 L15.8148267,16.5035145 C16.0206995,16.7023517 16.3470883,16.7023517 16.5529595,16.5035146 C16.7405507,16.322333 16.7660128,16.0364689 16.6261993,15.8269595 L16.5660158,15.7523262 L15.8137649,15.0011378 L15.7829796,14.9722555 L15.7829796,14.9722555 L15.7500149,14.9458877 L15.750014,13.0312605 C15.750014,12.7378591 15.5121648,12.5000099 15.2187634,12.5000099 Z M9,11.5 L5.81249629,11.5 C5.49374592,11.5 5.28124567,11.7125002 5.28124567,12.0312506 C5.28124567,12.350001 5.49374592,12.5625012 5.81249629,12.5625012 L9,12.5625012 C9.31875037,12.5625012 9.53125062,12.350001 9.53125062,12.0312506 C9.53125062,11.7125002 9.31875037,11.5 9,11.5 Z M12.1875037,8.31249629 L5.81249629,8.31249629 C5.49374592,8.31249629 5.28124567,8.52499654 5.28124567,8.84374691 C5.28124567,9.16249728 5.49374592,9.37499753 5.81249629,9.37499753 L12.1875037,9.37499753 C12.5062541,9.37499753 12.7187543,9.16249728 12.7187543,8.84374691 C12.7187543,8.52499654 12.5062541,8.31249629 12.1875037,8.31249629 Z" id="形状结合" fill="#5063C2"></path>
    </g>
</svg>