<?xml version="1.0" encoding="UTF-8"?>
<svg width="24px" height="24px" viewBox="0 0 24 24" version="1.1" xmlns="http://www.w3.org/2000/svg" xmlns:xlink="http://www.w3.org/1999/xlink">
    <!-- Generator: Sketch 62 (91390) - https://sketch.com -->
    <title>icon/24px/职业备份 7</title>
    <desc>Created with Sketch.</desc>
    <g id="icon/24px/职业备份-7" stroke="none" stroke-width="1" fill="none" fill-rule="evenodd">
        <path d="M12,17 L7.91561963,19.1472858 C7.42677504,19.4042866 6.82214789,19.2163401 6.56514708,18.7274955 C6.46280801,18.5328351 6.42749334,18.309867 6.46467018,18.0931094 L7.24471742,13.545085 L7.24471742,13.545085 L3.94038429,10.3241562 C3.54490071,9.93865501 3.5368084,9.30554174 3.92230962,8.91005817 C4.07581822,8.75257453 4.27696063,8.65008735 4.49459766,8.61846284 L9.06107374,7.95491503 L9.06107374,7.95491503 L11.1032639,3.81698575 C11.3476862,3.32173209 11.9473121,3.11839309 12.4425657,3.36281539 C12.6397783,3.46014562 12.7994058,3.61977315 12.8967361,3.81698575 L14.9389263,7.95491503 L14.9389263,7.95491503 L19.5054023,8.61846284 C20.0519472,8.69788046 20.4306287,9.20532331 20.351211,9.75186817 C20.3195865,9.96950521 20.2170993,10.1706476 20.0596157,10.3241562 L16.7552826,13.545085 L16.7552826,13.545085 L17.5353298,18.0931094 C17.6286908,18.6374458 17.263103,19.1544017 16.7187666,19.2477627 C16.5020089,19.2849396 16.2790408,19.2496249 16.0843804,19.1472858 L12,17 L12,17 Z" id="星形" fill="#5063C2"></path>
    </g>
</svg>