<?xml version="1.0" encoding="UTF-8"?>
<svg width="24px" height="24px" viewBox="0 0 24 24" version="1.1" xmlns="http://www.w3.org/2000/svg" xmlns:xlink="http://www.w3.org/1999/xlink">
    <!-- Generator: Sketch 62 (91390) - https://sketch.com -->
    <title>icon/24px/职业备份 8</title>
    <desc>Created with Sketch.</desc>
    <g id="icon/24px/职业备份-8" stroke="none" stroke-width="1" fill="none" fill-rule="evenodd">
        <g id="职业病" fill="#F1F1F1" opacity="0">
            <rect id="矩形" x="0" y="0" width="24" height="24"></rect>
        </g>
        <path d="M12.8010957,7.59042893 L12.8010957,7.59042889 C12.7674399,7.50167167 12.7815411,7.40294987 12.8388869,7.32585358 L15.0537678,4.43421378 C15.1901444,4.2599058 15.0701987,4 14.8549543,4 L9.31774247,4 C9.10085439,4 8.98255181,4.25990635 9.11728467,4.43576949 L11.3338215,7.32430881 L11.3338215,7.3243088 C11.3919977,7.40174907 11.4055567,7.50157355 11.3699694,7.59043983 L8.01806282,16.360307 L8.0180628,16.3603071 C7.9820119,16.4554577 8.00067311,16.5615121 8.06735555,16.640445 L11.8957651,21.0137153 L11.8957651,21.0137153 C11.9788554,21.1125615 12.1308126,21.1288914 12.2351688,21.050189 C12.2494151,21.039445 12.2623329,21.0272093 12.273676,21.0137153 L16.1053589,16.640445 L16.1053589,16.640445 C16.1724021,16.5616073 16.1905183,16.4550998 16.1530087,16.3603071 L12.801102,7.59043988 L12.8010957,7.59042893 Z M16.9252617,11.9543613 L14.3883221,9.30705794 C14.1862218,9.09539879 13.854318,9.33818444 13.9759055,9.60898498 L15.5943499,13.2149765 C15.6699321,13.3830592 15.8802479,13.4204109 16.0067666,13.2912362 L16.925254,12.3325426 L16.9252541,12.3325426 C17.0249153,12.2241524 17.0249153,12.0627457 16.925254,11.9543564 L16.9252617,11.9543613 Z" id="形状" fill="#5063C2" fill-rule="nonzero"></path>
    </g>
</svg>