<?xml version="1.0" encoding="UTF-8"?>
<svg width="26px" height="26px" viewBox="0 0 26 26" version="1.1" xmlns="http://www.w3.org/2000/svg" xmlns:xlink="http://www.w3.org/1999/xlink">
    <!-- Generator: Sketch 62 (91390) - https://sketch.com -->
    <title>icon/keyboard</title>
    <desc>Created with Sketch.</desc>
    <g id="icon/keyboard" stroke="none" stroke-width="1" fill="none" fill-rule="evenodd">
        <path d="M13,0 C20.1797017,0 26,5.82029825 26,13 C26,20.1797017 20.1797017,26 13,26 C5.82029825,26 0,20.1797017 0,13 C0,5.82029825 5.82029825,0 13,0 Z M13,1 C6.372583,1 1,6.372583 1,13 C1,19.627417 6.372583,25 13,25 C19.627417,25 25,19.627417 25,13 C25,6.372583 19.627417,1 13,1 Z M17.9775366,16.3903938 L17.9775366,19.1898734 L8.85509664,19.1898734 L8.85509664,16.3903938 L17.9775366,16.3903938 Z M8.79854451,12.0558336 L8.79854451,14.8553498 L6,14.8553498 L6,12.0558336 L8.79854451,12.0558336 Z M12.8206914,12.0558336 L12.8206914,14.8553498 L10.0221835,14.8553498 L10.0221835,12.0558336 L12.8206914,12.0558336 Z M16.8468595,12.0558336 L16.8468595,14.8553498 L14.048315,14.8553498 L14.048315,12.0558336 L16.8468595,12.0558336 Z M20.844587,12.0558336 L20.844587,14.8553498 L18.0462253,14.8553498 L18.0462253,12.0558336 L20.844587,12.0558336 Z M8.8228177,8 L8.8228177,10.7995162 L6.02427318,10.7995162 L6.02427318,8 L8.8228177,8 Z M12.8489858,8 L12.8489858,10.7995162 L10.0504413,10.7995162 L10.0504413,8 L12.8489858,8 Z M16.8750076,8 L16.8750076,10.7995162 L14.0766093,10.7995162 L14.0766093,8 L16.8750076,8 Z M20.8728814,8 L20.8728814,10.7995162 L18.0744831,10.7995162 L18.0744831,8 L20.8728814,8 Z" id="Combined-Shape" fill="#000000" fill-rule="nonzero"></path>
    </g>
</svg>