<?xml version="1.0" encoding="UTF-8"?>
<svg width="24px" height="24px" viewBox="0 0 24 24" version="1.1" xmlns="http://www.w3.org/2000/svg" xmlns:xlink="http://www.w3.org/1999/xlink">
    <!-- Generator: Sketch 62 (91390) - https://sketch.com -->
    <title>icon/24px/知识管理</title>
    <desc>Created with Sketch.</desc>
    <g id="icon/24px/知识管理" stroke="none" stroke-width="1" fill="none" fill-rule="evenodd">
        <g transform="translate(4.000000, 4.000000)" fill="#5063C2" id="形状">
            <path d="M0.428640851,11.9965789 L0.428640802,11.9965788 C0.329853783,11.9408742 0.256967541,11.8470276 0.226243898,11.7359776 L0.226243896,11.7359776 C0.194911461,11.6250962 0.208246959,11.5059967 0.26327622,11.405239 L0.263276209,11.4052391 C0.338307727,11.267074 0.48064992,11.1813949 0.635125189,11.1814123 C0.706816452,11.1814123 0.777980296,11.2002621 0.840950315,11.2359186 L7.56962552,15.0554868 L14.8567052,12.6217249 C15.1499876,12.0015322 15.2249564,11.3862158 15.0795019,10.7917151 C15.0010861,10.4711338 14.8735449,10.2334492 14.7986326,10.1124675 L7.44816854,12.6826109 L0.42713388,8.65795004 C0.222702646,8.54064963 0.149560982,8.27513361 0.264067337,8.06601276 L0.26406731,8.06601281 C0.339327502,7.92870174 0.481173544,7.84366241 0.635030981,7.8436123 C0.707419189,7.8436123 0.779204634,7.86284756 0.842589053,7.89919797 L7.53249898,11.7339925 L14.8595118,9.17204045 C15.178845,8.63073547 15.2305508,8.05242477 15.0129718,7.45233466 C14.9016488,7.14545705 14.741257,6.89848243 14.63615,6.75589478 L7.45235019,9.40151444 L0.426286216,5.39234975 L0.426286152,5.39234971 C0.327640783,5.33643581 0.254966638,5.24245285 0.224473176,5.13136304 L0.22447317,5.13136302 C0.193356035,5.02043587 0.206929569,4.90137827 0.262164767,4.80075934 L0.262164739,4.80075939 C0.337289497,4.66302315 0.479368922,4.57766117 0.633523973,4.57764575 C0.705591963,4.57764575 0.77705719,4.59668828 0.840234409,4.6327303 L7.52844907,8.44917617 L14.7177679,5.80145565 C15.1124278,5.15165839 15.214747,4.51702962 15.021806,3.91449174 C14.9595706,3.72021172 14.8745808,3.55821534 14.7989151,3.43771548 L7.45479882,6.29035514 L0,2.13586591 L8.21138086,0 L15.1192466,2.478535 L15.1855883,2.54325645 C15.2292133,2.58596722 15.6164705,2.97818927 15.8296041,3.64359832 C16.0254836,4.25534908 16.1048978,5.2150885 15.3910367,6.33879023 C15.5212902,6.52929258 15.6804765,6.80026309 15.8020653,7.12845754 C16.1297242,8.01324111 16.0402514,8.89750428 15.544346,9.69218278 C15.6505267,9.87106302 15.798882,10.1664727 15.8965486,10.5502143 C16.0487466,11.1480879 16.1084767,12.0908471 15.5286741,13.1866404 L15.4477907,13.3392118 L7.48130161,16 L0.428640666,11.9965789 L0.428640851,11.9965789 Z M7.51833411,5.33529923 L13.757885,2.91175242 L12.3402967,2.40311654 L6.13333276,4.56344092 L7.51833411,5.33529923 L7.51833411,5.33529923 Z"></path>
        </g>
    </g>
</svg>