<?xml version="1.0" encoding="UTF-8"?>
<svg width="18px" height="18px" viewBox="0 0 18 18" version="1.1" xmlns="http://www.w3.org/2000/svg" xmlns:xlink="http://www.w3.org/1999/xlink">
    <!-- Generator: Sketch 62 (91390) - https://sketch.com -->
    <title>icon/左上角主页</title>
    <desc>Created with Sketch.</desc>
    <g id="icon/左上角主页" stroke="none" stroke-width="1" fill="none" fill-rule="evenodd">
        <path d="M10.2493901,1.4258075 L17.2493901,6.86666239 C17.7238206,7.23542058 18,7.79371622 18,8.38401734 L18,14.0568375 C18,15.1300165 17.1045695,16 16,16 L2,16 C0.8954305,16 0,15.1300165 0,14.0568375 L0,8.38401734 C0,7.79371622 0.276179438,7.23542058 0.750609905,6.86666239 L7.7506099,1.4258075 C8.48104721,0.858064166 9.51895279,0.858064166 10.2493901,1.4258075 Z M9,2.94316246 L2,8.38401734 L2,14.0568375 L16,14.0568375 L16,8.38401734 L9,2.94316246 Z M12.0284188,10.1705126 C12.5650083,10.1705126 13,10.6055044 13,11.1420939 C13,11.6786833 12.5650083,12.1136751 12.0284188,12.1136751 L5.97158123,12.1136751 C5.43499173,12.1136751 5,11.6786833 5,11.1420939 C5,10.6055044 5.43499173,10.1705126 5.97158123,10.1705126 L12.0284188,10.1705126 Z" id="形状结合" fill="#000000" fill-rule="nonzero"></path>
    </g>
</svg>