<?xml version="1.0" encoding="UTF-8"?>
<svg width="16px" height="16px" viewBox="0 0 16 16" version="1.1" xmlns="http://www.w3.org/2000/svg" xmlns:xlink="http://www.w3.org/1999/xlink">
    <!-- Generator: Sketch 62 (91390) - https://sketch.com -->
    <title>icon/lock</title>
    <desc>Created with Sketch.</desc>
    <g id="icon/lock" stroke="none" stroke-width="1" fill="none" fill-rule="evenodd">
        <path d="M12,13.744 L12,7.056 L4,7.056 L4,13.744 L12,13.744 Z M5.936,4.4 L5.936,5.744 L10.064,5.744 L10.064,4.4 C10.064,4.03733152 9.9706676,3.6960016 9.784,3.376 C9.5973324,3.0559984 9.3440016,2.8026676 9.024,2.616 C8.7039984,2.4293324 8.36266848,2.336 8,2.336 C7.63733152,2.336 7.2960016,2.4293324 6.976,2.616 C6.6559984,2.8026676 6.4026676,3.0559984 6.216,3.376 C6.0293324,3.6960016 5.936,4.03733152 5.936,4.4 Z M12,5.744 C12.3626685,5.744 12.677332,5.87199872 12.944,6.128 C13.210668,6.38400128 13.344,6.69333152 13.344,7.056 L13.344,13.744 C13.344,14.1066685 13.210668,14.4159987 12.944,14.672 C12.677332,14.9280013 12.3626685,15.056 12,15.056 L4,15.056 C3.63733152,15.056 3.322668,14.9280013 3.056,14.672 C2.789332,14.4159987 2.656,14.1066685 2.656,13.744 L2.656,7.056 C2.656,6.69333152 2.789332,6.38400128 3.056,6.128 C3.322668,5.87199872 3.63733152,5.744 4,5.744 L4.656,5.744 L4.656,4.4 C4.656,3.79199696 4.80533184,3.23200256 5.104,2.72 C5.40266816,2.20799744 5.80799744,1.80266816 6.32,1.504 C6.83200256,1.20533184 7.39199696,1.056 8,1.056 C8.60800304,1.056 9.16799744,1.20533184 9.68,1.504 C10.1920026,1.80266816 10.5973318,2.20799744 10.896,2.72 C11.1946682,3.23200256 11.344,3.79199696 11.344,4.4 L11.344,5.744 L12,5.744 Z M8,11.744 C7.63733152,11.744 7.322668,11.610668 7.056,11.344 C6.789332,11.077332 6.656,10.7626685 6.656,10.4 C6.656,10.0373315 6.789332,9.722668 7.056,9.456 C7.322668,9.189332 7.63733152,9.056 8,9.056 C8.36266848,9.056 8.677332,9.189332 8.944,9.456 C9.210668,9.722668 9.344,10.0373315 9.344,10.4 C9.344,10.7626685 9.210668,11.077332 8.944,11.344 C8.677332,11.610668 8.36266848,11.744 8,11.744 Z" id="" fill="#07C160" fill-rule="nonzero"></path>
    </g>
</svg>