<?xml version="1.0" encoding="UTF-8"?>
<svg width="16px" height="16px" viewBox="0 0 16 16" version="1.1" xmlns="http://www.w3.org/2000/svg" xmlns:xlink="http://www.w3.org/1999/xlink">
    <!-- Generator: Sketch 62 (91390) - https://sketch.com -->
    <title>icon/16px/email备份 3</title>
    <desc>Created with Sketch.</desc>
    <g id="icon/16px/email备份-3" stroke="none" stroke-width="1" fill="none" fill-rule="evenodd">
        <path d="M8,0 C10.209139,0 12,1.790861 12,4 L12,6 L13,6 C14.1045695,6 15,6.8954305 15,8 L15,14 C15,15.1045695 14.1045695,16 13,16 L3,16 C1.8954305,16 1,15.1045695 1,14 L1,8 C1,6.8954305 1.8954305,6 3,6 L4,6 L4,4 C4,1.790861 5.790861,0 8,0 Z M13,7 L3,7 C2.44771525,7 2,7.44771525 2,8 L2,14 C2,14.5522847 2.44771525,15 3,15 L13,15 C13.5522847,15 14,14.5522847 14,14 L14,8 C14,7.44771525 13.5522847,7 13,7 Z M8,9 C9.1045695,9 10,9.8954305 10,11 C10,12.1045695 9.1045695,13 8,13 C6.8954305,13 6,12.1045695 6,11 C6,9.8954305 6.8954305,9 8,9 Z M8,10 C7.44771525,10 7,10.4477153 7,11 C7,11.5522847 7.44771525,12 8,12 C8.55228475,12 9,11.5522847 9,11 C9,10.4477153 8.55228475,10 8,10 Z M8,1 C6.34314575,1 5,2.34314575 5,4 L5,6 L11,6 L11,4 C11,2.34314575 9.65685425,1 8,1 Z" id="形状结合" fill="#C3C7D9"></path>
    </g>
</svg>