<?xml version="1.0" encoding="UTF-8"?>
<svg width="24px" height="24px" viewBox="0 0 24 24" version="1.1" xmlns="http://www.w3.org/2000/svg" xmlns:xlink="http://www.w3.org/1999/xlink">
    <!-- Generator: Sketch 62 (91390) - https://sketch.com -->
    <title>icon/24px/素材管理</title>
    <desc>Created with Sketch.</desc>
    <g id="icon/24px/素材管理" stroke="none" stroke-width="1" fill="none" fill-rule="evenodd">
        <g transform="translate(4.000000, 3.000000)" fill="#5C6280" id="形状结合">
            <path d="M15,1 L15,11 L16,11 L16,15 C16,16.1045695 15.1045695,17 14,17 L2,17 C0.8954305,17 0,16.1045695 0,15 L0,11 L1,11 L1,3 L4,0 L11,0 L11,1 L15,1 Z M15,12 L1,12 L1,15 C1,15.5522847 1.44771525,16 2,16 L14,16 C14.5522847,16 15,15.5522847 15,15 L15,12 Z M11,14 L11,15 L5,15 L5,14 L11,14 Z M10,1 L4.41421356,1 L2,3.41421356 L2,11 L10,11 L10,1 Z M12,2 L11,2 L11,11 L12,11 L12,2 Z M14,2 L13,2 L13,11 L14,11 L14,2 Z M8,8 L8,9 L4,9 L4,8 L8,8 Z M8,6 L8,7 L4,7 L4,6 L8,6 Z M8,4 L8,5 L4,5 L4,4 L8,4 Z"></path>
        </g>
    </g>
</svg>