<?xml version="1.0" encoding="UTF-8"?>
<svg width="24px" height="24px" viewBox="0 0 24 24" version="1.1" xmlns="http://www.w3.org/2000/svg" xmlns:xlink="http://www.w3.org/1999/xlink">
    <!-- Generator: Sketch 62 (91390) - https://sketch.com -->
    <title>icon/min/time_mini</title>
    <desc>Created with Sketch.</desc>
    <g id="icon/min/time_mini" stroke="none" stroke-width="1" fill="none" fill-rule="evenodd">
        <path d="M15.5,6 C15.7761424,6 16,6.22385763 16,6.5 L16,7 L18.1875,7 C18.6362314,7 19,7.32832452 19,7.73333333 L19,17.2666667 C19,17.6716755 18.6362314,18 18.1875,18 L6.8125,18 C6.36376864,18 6,17.6716755 6,17.2666667 L6,7.73333333 C6,7.32832452 6.36376864,7 6.8125,7 L9,7 L9,6.5 C9,6.22385763 9.22385763,6 9.5,6 C9.77614237,6 10,6.22385763 10,6.5 L10,7 L15,7 L15,6.5 C15,6.22385763 15.2238576,6 15.5,6 Z M18,12 L7,12 L7,17 L18,17 L18,12 Z M9,8 L7,8 L7,11 L18,11 L18,8 L16,8 L16,8.5 C16,8.77614237 15.7761424,9 15.5,9 C15.2238576,9 15,8.77614237 15,8.5 L15,8 L10,8 L10,8.5 C10,8.77614237 9.77614237,9 9.5,9 C9.22385763,9 9,8.77614237 9,8.5 L9,8 Z" id="Combined-Shape" fill="#99A6BF" fill-rule="nonzero"></path>
    </g>
</svg>