<?xml version="1.0" encoding="UTF-8"?>
<svg width="79px" height="79px" viewBox="0 0 79 79" version="1.1" xmlns="http://www.w3.org/2000/svg" xmlns:xlink="http://www.w3.org/1999/xlink">
    <title>icon/未添加设备</title>
    <g id="icon/未添加设备" stroke="none" stroke-width="1" fill="none" fill-rule="evenodd">
        <path d="M78.0782845,36.2831558 L63.0156957,22.2651026 L63.0156957,22.2651026 C62.5029404,21.7861334 61.8209613,21.5303929 61.1197012,21.5541065 L17.9331592,21.5541065 L17.9331592,21.5541065 C17.2521222,21.5560049 16.5957435,21.8091793 16.0898312,22.2651026 L0.921892128,36.2831559 L0.921892028,36.283156 C0.328945422,36.8111656 -0.0070496255,37.5695478 0.000112200867,38.3634782 L0.000112200867,72.7019782 C0.000112200867,76.1516264 2.76522004,79 6.23243225,79 L72.7677956,79 C76.1823413,79 79,76.1516264 79,72.7019782 L79,38.3634782 L79,38.3634816 C78.9712481,37.5774324 78.6412419,36.8325562 78.078336,36.2831594 L78.0782845,36.2831558 Z M50.8804529,36.0637126 L50.8804529,36.0637126 C49.8722886,36.0829138 49.070573,36.9157551 49.0897743,37.9239143 C49.0897786,37.9241393 49.0897829,37.9243644 49.0897873,37.9245894 C49.0897873,43.0727285 44.7579665,47.4045387 39.6098147,47.4045387 C34.4616629,47.4045387 30.129842,43.0727285 30.129842,37.9245894 C30.129842,36.9414836 29.3135111,36.0637105 28.3391805,36.0637105 L7.20674157,36.0637105 L18.47741,25.6620995 L60.632566,25.6620995 L71.7935125,36.0637105 L50.8805174,36.0637105 L50.8804529,36.0637126 Z M74.8261444,72.7019952 C74.8261444,73.9089332 73.9044804,74.7823174 72.7677615,74.7823174 L6.23239807,74.7823174 L6.23239811,74.7823174 C5.06007955,74.8043725 4.09067795,73.8742251 4.06429326,72.7019952 L4.06429326,39.7855047 L26.6055443,39.7855047 C27.0356542,42.6382672 28.391817,45.319864 30.5555329,47.3475198 L30.5555337,47.3475206 C32.9760761,49.7099731 36.2274619,51.0275413 39.6098196,51.016612 C42.9673099,51.016612 46.1668007,49.6999524 48.6552764,47.3475206 L48.6552766,47.3475204 C50.7573854,45.3226676 52.1464133,42.6709014 52.6140429,39.7898942 L74.8261444,39.7898942 L74.8261444,72.7020129 L74.8261444,72.7019952 Z M18.9952672,15.6993771 L12.1135093,9.10291245 L12.1135091,9.10291217 C11.3784606,8.39045703 11.3511047,7.2200032 12.0520653,6.4739818 L12.0520654,6.47398171 C12.7407084,5.73741523 13.8960706,5.69856434 14.6326389,6.38720561 C14.6400402,6.39412533 14.6473837,6.40110648 14.6546688,6.40814847 L21.5232601,13.0046132 C22.2605913,13.7068316 22.2913134,14.8874364 21.5890932,15.6335435 L21.5890932,15.6335436 C20.899221,16.3689597 19.7437936,16.4058819 19.0083826,15.7160114 C19.0025127,15.710505 18.9966793,15.70496 18.9908828,15.6993765 L18.9952672,15.6993771 Z M37.9332681,12.7851705 L37.9332681,12.7851705 C37.5789787,12.4444806 37.3738673,11.9774581 37.3627142,11.4860664 L37.1169371,1.90959636 L37.1169371,1.90959526 C37.0849108,0.888181136 37.8862282,0.0338353399 38.9075986,0.000438817312 L38.9075987,0.000438816254 C39.9302497,-0.0216039173 40.7771399,0.789548242 40.7991872,1.81220017 C40.7991932,1.81248091 40.7991992,1.81276165 40.7992051,1.81304239 L41.0405933,11.3895124 L41.0405933,11.3895133 C41.0620838,12.1376777 40.6332379,12.8259067 39.952152,13.1362817 L39.952152,13.1362818 C39.2721093,13.4427926 38.4739065,13.3036733 37.9376578,12.7851725 L37.9332681,12.7851705 Z M55.760849,15.3570456 L55.7608491,15.3570457 C55.0221978,14.6468382 54.9928378,13.4744025 55.6950158,12.7281154 L62.2212747,5.77615257 L62.2212748,5.77615248 C62.9099178,5.039586 64.06528,5.00073511 64.8018483,5.68937638 C64.8092496,5.69629609 64.8165931,5.70327725 64.8238782,5.71031924 C65.5612094,6.41692657 65.5875427,7.59753136 64.8853225,8.34363848 L58.3634524,15.2912124 L58.3634525,15.2912124 C57.6713575,16.0278663 56.5131297,16.0639896 55.7764671,15.371897 C55.7712305,15.3669772 55.7660229,15.3620266 55.7608446,15.3570454 L55.760849,15.3570456 Z" id="形状" fill="#DEE3E7" fill-rule="nonzero"></path>
    </g>
</svg>