<?xml version="1.0" encoding="UTF-8"?>
<svg width="24px" height="24px" viewBox="0 0 24 24" version="1.1" xmlns="http://www.w3.org/2000/svg" xmlns:xlink="http://www.w3.org/1999/xlink">
    <!-- Generator: Sketch 62 (91390) - https://sketch.com -->
    <title>icon/24px/个人信息</title>
    <desc>Created with Sketch.</desc>
    <g id="icon/24px/个人信息" stroke="none" stroke-width="1" fill="none" fill-rule="evenodd">
        <path d="M10.5000035,5 L10.5000035,5 C12.4330098,5 14.0000035,6.56700182 14.0000035,8.5 C14.0000035,10.4330063 12.4330098,12 10.5000035,12 C8.56700532,12 7.0000035,10.4330063 7.0000035,8.5 L7.0000035,8.5 C7.0000035,6.5670022 8.56700532,5 10.5000035,5 C10.5000035,5 10.5000035,5 10.5000035,5 L10.5000035,5 Z M5,19.0000207 C4.44771626,19.0000207 4,18.5523001 4,18.0000151 C4.0057393,15.4040009 5.68608009,13.1082795 8.15895796,12.3180129 C8.93953307,13.1060069 9.71988041,13.5000026 10.5,13.5 C11.2801196,13.4999974 12.060123,13.1060017 12.8400103,12.3180129 C15.3132787,13.1078951 16.9941088,15.4036884 17.0000151,18.0000196 C17.0000151,18.5523046 16.5522989,19.0000207 16.0000139,19.0000207 L5,19.0000207 Z M16.0000129,6.00000116 L19.0000129,6.00000116 L19.0000129,6.00000116 C19.5523026,6.00000116 20.0000129,6.44771731 20.0000129,7.00000116 C20.0000129,7.55228734 19.5523026,8.00000116 19.0000129,8.00000116 L16.0000129,8.00000116 L16.0000129,8.00000116 C15.447729,8.00000116 15.0000129,7.55228734 15.0000129,7.00000116 C15.0000129,6.44771731 15.447729,6.00000116 16.0000129,6.00000116 L16.0000129,6.00000116 Z M17.000014,10.0000058 L19.000014,10.0000058 L19.000014,10.0000058 C19.5523026,10.0000058 20.000014,10.447722 20.000014,11.0000058 C20.000014,11.552292 19.5523026,12.0000058 19.000014,12.0000058 L17.000014,12.0000058 L17.000014,12.0000058 C16.4477302,12.0000058 16.000014,11.552292 16.000014,11.0000058 C16.000014,10.447722 16.4477302,10.0000058 17.000014,10.0000058 L17.000014,10.0000058 Z M17.0000153,14.0000105 L20.0000153,14.0000105 L20.0000153,16.0000105 L19.0000153,16.0000105 L19.0000153,16.0000105 C18.4477326,16.0000105 18.0000153,15.5522967 18.0000153,15.0000105 C18.0000153,15.0000105 18.0000153,15.0000105 18.0000153,15.0000105 L17.0000153,14.0000105 Z" id="形状" fill="#5063C2"></path>
    </g>
</svg>