<?xml version="1.0" encoding="UTF-8"?>
<svg width="24px" height="24px" viewBox="0 0 24 24" version="1.1" xmlns="http://www.w3.org/2000/svg" xmlns:xlink="http://www.w3.org/1999/xlink">
    <!-- Generator: Sketch 62 (91390) - https://sketch.com -->
    <title>icon/24px/个人信息备份</title>
    <desc>Created with Sketch.</desc>
    <g id="icon/24px/个人信息备份" stroke="none" stroke-width="1" fill="none" fill-rule="evenodd">
        <path d="M12.8400103,12.3180129 C15.3132787,13.1078951 16.9941088,15.4036884 17.0000151,18.0000196 C17.0000151,18.5523046 16.5522989,19.0000207 16.0000139,19.0000207 L5,19.0000207 C4.44771626,19.0000207 4,18.5523001 4,18.0000151 C4.00555416,15.4877433 5.57941357,13.256703 7.92215091,12.3991495 L8.15895796,12.3180129 C8.93949236,13.1060069 9.7198397,13.5000026 10.5,13.5 C11.220148,13.4999976 11.9401623,13.1642851 12.6600429,12.4928625 L12.8400103,12.3180129 Z M13.058,13.471 L12.9708897,13.5450491 C12.2524784,14.1180314 11.4990339,14.4429678 10.714681,14.493147 L10.5,14.5 C9.63835568,14.5000029 8.81283278,14.1702075 8.02872716,13.5452596 L7.94,13.471 L7.84627974,13.5139251 C6.19552704,14.2955683 5.09171282,15.9315614 5.0054386,17.777532 L5,18.0000151 L16,18.0000151 L15.9945635,17.7795635 C15.9081522,15.9315989 14.8040158,14.2953526 13.1529703,13.5138974 L13.058,13.471 Z M19.5,14 C19.7761424,14 20,14.2238576 20,14.5 C20,14.7761424 19.7761424,15 19.5,15 L17.5,15 C17.2238576,15 17,14.7761424 17,14.5 C17,14.2238576 17.2238576,14 17.5,14 L19.5,14 Z M10.5000035,5 C12.4330098,5 14.0000035,6.56700182 14.0000035,8.5 C14.0000035,10.3685728 12.535735,11.8951271 10.6920396,11.9948212 L10.5000035,12 C8.63143859,12 7.10487695,10.5357315 7.00518235,8.69203611 L7.0000035,8.5 C7.0000035,6.63143546 8.46427964,5.10487348 10.3079681,5.00517886 L10.5000035,5 Z M19.5,10 C19.7761424,10 20,10.2238576 20,10.5 C20,10.7761424 19.7761424,11 19.5,11 L16.5,11 C16.2238576,11 16,10.7761424 16,10.5 C16,10.2238576 16.2238576,10 16.5,10 L19.5,10 Z M10.5000035,6 L10.3619627,6.00372009 C9.09605988,6.07217183 8.0872409,7.08101031 8.00505053,8.31136364 L7.99964005,8.47304166 L8.00372359,8.63804174 C8.07515143,9.95898764 9.17051332,11 10.5000035,11 C11.8807251,11 13.0000035,9.88072157 13.0000035,8.5 C13.0000035,7.17451206 11.9684736,6.08996097 10.6643799,6.00531766 L10.5000035,6 Z M19.5,6 C19.7761424,6 20,6.22385763 20,6.5 C20,6.77614237 19.7761424,7 19.5,7 L15.5,7 C15.2238576,7 15,6.77614237 15,6.5 C15,6.22385763 15.2238576,6 15.5,6 L19.5,6 Z" id="形状结合" fill="#5C6280" fill-rule="nonzero"></path>
    </g>
</svg>