<?xml version="1.0" encoding="UTF-8"?>
<svg width="24px" height="24px" viewBox="0 0 24 24" version="1.1" xmlns="http://www.w3.org/2000/svg" xmlns:xlink="http://www.w3.org/1999/xlink">
    <!-- Generator: Sketch 62 (91390) - https://sketch.com -->
    <title>icon/24px/疑难问题备份</title>
    <desc>Created with Sketch.</desc>
    <g id="icon/24px/疑难问题备份" stroke="none" stroke-width="1" fill="none" fill-rule="evenodd">
        <path d="M16,4 C18.209139,4 20,5.790861 20,8 L20,16 C20,18.209139 18.209139,20 16,20 L8,20 C5.790861,20 4,18.209139 4,16 L4,8 C4,5.790861 5.790861,4 8,4 L16,4 Z M16,6 L8,6 C6.8954305,6 6,6.8954305 6,8 L6,8 L6,16 C6,17.1045695 6.8954305,18 8,18 L8,18 L16,18 C17.1045695,18 18,17.1045695 18,16 L18,16 L18,8 C18,6.8954305 17.1045695,6 16,6 L16,6 Z M16,6.5 C16.8284271,6.5 17.5,7.17157288 17.5,8 L17.5,8 L17.5,16 C17.5,16.8284271 16.8284271,17.5 16,17.5 L16,17.5 L8,17.5 C7.17157288,17.5 6.5,16.8284271 6.5,16 L6.5,16 L6.5,8 C6.5,7.17157288 7.17157288,6.5 8,6.5 L8,6.5 Z M11.916,14.284 C11.676,14.284 11.46,14.356 11.292,14.524 C11.124,14.68 11.04,14.884 11.04,15.136 C11.04,15.376 11.124,15.58 11.292,15.748 C11.46,15.916 11.676,16 11.916,16 C12.156,16 12.372,15.916 12.54,15.76 C12.708,15.592 12.804,15.388 12.804,15.136 C12.804,14.884 12.72,14.68 12.552,14.524 C12.384,14.356 12.168,14.284 11.916,14.284 Z M12.132,7.264 C11.244,7.264 10.548,7.516 10.044,8.032 C9.54,8.536 9.288,9.22 9.288,10.096 L10.548,10.096 C10.548,9.568 10.656,9.16 10.872,8.872 C11.112,8.524 11.508,8.356 12.048,8.356 C12.48,8.356 12.828,8.476 13.068,8.716 C13.296,8.956 13.416,9.28 13.416,9.7 C13.416,10.012 13.296,10.3 13.08,10.576 L12.876,10.804 C12.132,11.464 11.676,11.956 11.52,12.292 C11.352,12.604 11.28,12.988 11.28,13.432 L11.28,13.636 L12.564,13.636 L12.564,13.432 C12.564,13.144 12.624,12.88 12.756,12.64 C12.8424,12.4672 12.9672,12.2944 13.1304,12.133888 L13.8877686,11.4566612 C14.0823471,11.2775537 14.2090909,11.152 14.268,11.08 C14.568,10.696 14.724,10.204 14.724,9.616 C14.724,8.896 14.484,8.32 14.004,7.9 C13.524,7.468 12.9,7.264 12.132,7.264 Z" id="形状结合" fill="#5063C2"></path>
    </g>
</svg>