<?xml version="1.0" encoding="UTF-8"?>
<svg width="100px" height="87px" viewBox="0 0 100 87" version="1.1" xmlns="http://www.w3.org/2000/svg" xmlns:xlink="http://www.w3.org/1999/xlink">
    <!-- Generator: Sketch 62 (91390) - https://sketch.com -->
    <title>icon/rt-产品使用</title>
    <desc>Created with Sketch.</desc>
    <defs>
        <linearGradient x1="50%" y1="0%" x2="50%" y2="100%" id="linearGradient-1">
            <stop stop-color="#4E5ECE" offset="0%"></stop>
            <stop stop-color="#4E5ECE" stop-opacity="0.15" offset="100%"></stop>
        </linearGradient>
        <linearGradient x1="50%" y1="0%" x2="50%" y2="100%" id="linearGradient-2">
            <stop stop-color="#4E5ECE" offset="0%"></stop>
            <stop stop-color="#4E5ECE" stop-opacity="0.15" offset="100%"></stop>
        </linearGradient>
        <linearGradient x1="50%" y1="0%" x2="50%" y2="100%" id="linearGradient-3">
            <stop stop-color="#4B61FA" offset="0%"></stop>
            <stop stop-color="#4A60F7" stop-opacity="0.15" offset="100%"></stop>
        </linearGradient>
        <linearGradient x1="50%" y1="0%" x2="50%" y2="100%" id="linearGradient-4">
            <stop stop-color="#FFFFFF" offset="0%"></stop>
            <stop stop-color="#FFFFFF" stop-opacity="0.500600962" offset="100%"></stop>
        </linearGradient>
        <linearGradient x1="50%" y1="0%" x2="50%" y2="100%" id="linearGradient-5">
            <stop stop-color="#FFFFFF" stop-opacity="0.404392483" offset="0%"></stop>
            <stop stop-color="#FFFFFF" offset="100%"></stop>
        </linearGradient>
        <linearGradient x1="50%" y1="0%" x2="50%" y2="100%" id="linearGradient-6">
            <stop stop-color="#FFFFFF" stop-opacity="0.4" offset="0%"></stop>
            <stop stop-color="#FFFFFF" offset="100%"></stop>
        </linearGradient>
        <linearGradient x1="50%" y1="0%" x2="50%" y2="100%" id="linearGradient-7">
            <stop stop-color="#FF5B4C" stop-opacity="0.7" offset="0%"></stop>
            <stop stop-color="#FF5B4C" stop-opacity="0.412265473" offset="51.5356817%"></stop>
            <stop stop-color="#FF5B4C" stop-opacity="0.299228638" offset="73.9482287%"></stop>
            <stop stop-color="#FF5B4C" stop-opacity="0.15" offset="100%"></stop>
        </linearGradient>
        <linearGradient x1="50%" y1="46.875%" x2="50.0141542%" y2="55.9043092%" id="linearGradient-8">
            <stop stop-color="#FF5B4C" stop-opacity="0.7" offset="0%"></stop>
            <stop stop-color="#FF5B4C" stop-opacity="0.412265473" offset="51.5356817%"></stop>
            <stop stop-color="#FF5B4C" stop-opacity="0.299228638" offset="73.9482287%"></stop>
            <stop stop-color="#FF5B4C" stop-opacity="0.15" offset="100%"></stop>
        </linearGradient>
    </defs>
    <g id="icon/rt-产品使用" stroke="none" stroke-width="1" fill="none" fill-rule="evenodd">
        <g id="编组-8">
            <rect id="矩形备份-3" stroke="#E6E9F5" fill="#FFFFFF" opacity="0" x="0.5" y="0.5" width="99" height="86" rx="2"></rect>
            <g id="编组-11" transform="translate(29.000000, 12.000000)">
                <rect id="矩形" fill="url(#linearGradient-1)" opacity="0.2" transform="translate(21.000000, 23.000000) scale(1, -1) translate(-21.000000, -23.000000) " x="0" y="5" width="42" height="36"></rect>
                <rect id="矩形备份-12" fill="url(#linearGradient-2)" opacity="0.2" transform="translate(21.000000, 23.000000) scale(1, -1) translate(-21.000000, -23.000000) " x="0" y="8" width="42" height="30"></rect>
                <path d="M27.000696,9.34759297 C31.7302154,11.5946631 35,16.415482 35,22 C35,29.7319865 28.7319865,36 21,36 C13.2680135,36 7,29.7319865 7,22 C7,16.4150892 10.2702445,11.593985 15.000302,9.34711885 L15,16 L27,16 Z" id="形状结合" fill="url(#linearGradient-3)"></path>
                <circle id="椭圆形备份-3" fill="url(#linearGradient-4)" cx="21" cy="22" r="6"></circle>
                <rect id="矩形" fill="url(#linearGradient-5)" x="17" y="23" width="8" height="15"></rect>
                <rect id="矩形" fill="url(#linearGradient-6)" x="17" y="23" width="8" height="3"></rect>
                <rect id="矩形备份" fill="url(#linearGradient-6)" x="17" y="38" width="8" height="3"></rect>
                <path d="M21,0 C24.3137085,-6.08718376e-16 27,2.6862915 27,6 L27,16 L27,16 L15,16 L15,6 C15,2.6862915 17.6862915,6.08718376e-16 21,0 Z" id="矩形" fill="url(#linearGradient-7)"></path>
                <rect id="矩形备份-11" fill="url(#linearGradient-8)" transform="translate(21.000000, 14.500000) scale(1, -1) translate(-21.000000, -14.500000) " x="15" y="13" width="12" height="3"></rect>
            </g>
        </g>
    </g>
</svg>