<?xml version="1.0" encoding="UTF-8"?>
<svg width="12px" height="12px" viewBox="0 0 12 12" version="1.1" xmlns="http://www.w3.org/2000/svg" xmlns:xlink="http://www.w3.org/1999/xlink">
    <!-- Generator: Sketch 62 (91390) - https://sketch.com -->
    <title>icon/12px/search备份</title>
    <desc>Created with Sketch.</desc>
    <g id="icon/12px/search备份" stroke="none" stroke-width="1" fill="none" fill-rule="evenodd">
        <g id="关联" transform="translate(1.000000, 0.000000)" fill="#425BBB" fill-rule="nonzero">
            <path d="M1.89800283,2.25 L5.82054201,2.25 L5.82054201,2.93785309 L1.89800283,2.93785309 L1.89800283,2.25 Z M0.63266761,0.687853089 L2.61038656,0.687853089 L3.24305417,0.687853089 L4.80827383,0.687853089 L5.44094144,0.687853089 L7.00616111,0.687853089 L7.63882872,0.687853089 L9.61654767,0.687853089 L9.61654767,2.89035868 L10.2492153,2.89035868 L10.2492153,0 L0,0 L0,11.3922229 L3.79980166,11.3922229 L3.79980166,10.7043698 L0.63266761,10.7043698 L0.63266761,0.687853089 Z M1.89800283,5.58333607 L4.68553632,5.58333607 L4.68553632,4.89548298 L1.89800283,4.89548298 L1.89800283,5.58333607 Z M10.6844906,4.81222021 L8.82191715,3.64286996 C8.52076737,3.45302251 8.13104412,3.56720612 7.95769319,3.89462419 L6.31275741,6.9927145 C6.13814115,7.32013257 6.24316397,7.74385007 6.54431375,7.93232182 L7.33514827,8.42895175 L7.65148207,7.83327097 L6.86191289,7.33801675 L6.86191289,7.33664104 L8.50558334,4.24130214 L8.50684868,4.24130214 L10.3668915,5.40790098 L10.3668915,5.40927669 L9.40776735,7.2155789 L9.9556575,7.55950544 L10.9160469,5.75182753 C11.0893979,5.42440946 10.9856404,5.00206766 10.6844906,4.81222021 Z M9.19519104,7.61866081 L8.30059904,7.05737269 L7.98426523,7.65305346 L8.8775919,8.21434158 L8.8775919,8.21571729 L7.23392145,11.3110562 L7.23265611,11.3110562 L5.37134801,10.1430816 L5.37134801,10.1417059 L6.31275741,8.36842068 L5.76486726,8.02449413 L4.82219252,9.7991551 C4.64757626,10.1265732 4.75259908,10.5502907 5.05374887,10.7387624 L6.91632231,11.9081127 C7.21747209,12.0979601 7.60719534,11.9837765 7.78054626,11.6563584 L9.42548205,8.55826813 C9.60009831,8.23085006 9.49634082,7.80713256 9.19519104,7.61866081 L9.19519104,7.61866081 Z" id="形状"></path>
        </g>
    </g>
</svg>