<?xml version="1.0" encoding="UTF-8"?>
<svg width="26px" height="26px" viewBox="0 0 26 26" version="1.1" xmlns="http://www.w3.org/2000/svg" xmlns:xlink="http://www.w3.org/1999/xlink">
    <!-- Generator: Sketch 62 (91390) - https://sketch.com -->
    <title>icon/send</title>
    <desc>Created with Sketch.</desc>
    <g id="icon/send" stroke="none" stroke-width="1" fill="none" fill-rule="evenodd">
        <path d="M13,0 C20.1797017,0 26,5.82029825 26,13 C26,20.1797017 20.1797017,26 13,26 C5.82029825,26 0,20.1797017 0,13 C0,5.82029825 5.82029825,0 13,0 Z M13,1 C6.372583,1 1,6.372583 1,13 C1,19.627417 6.372583,25 13,25 C19.627417,25 25,19.627417 25,13 C25,6.372583 19.627417,1 13,1 Z M18.522412,7.02358378 C18.6118,6.98904968 18.7114187,6.99256615 18.7981504,7.03331709 C18.9736161,7.11575944 19.0490356,7.32485542 18.9666047,7.50034646 L18.9666047,7.50034646 L13.8746337,19.7813149 C13.8566068,19.8258624 13.8296,19.8662195 13.7952961,19.8998714 C13.6573228,20.0352223 13.4357643,20.0330807 13.3004327,19.8950879 L13.3004327,19.8950879 L10.5052654,17.0345146 L10.050238,16.5685878 C9.94400917,16.4517517 9.93939943,16.274713 10.039404,16.1525044 L10.039404,16.1525044 L14.5246769,11.067395 C14.546072,11.0468439 14.5487018,11.0135302 14.530796,10.9898759 C14.511293,10.9641117 14.4745996,10.959038 14.448839,10.9785438 L14.448839,10.9785438 L8.97767228,15.1047133 C8.8621939,15.193332 8.698406,15.1802272 8.59848282,15.0743739 L8.59848282,15.0743739 L6.10666458,12.516113 C6.07173759,12.4815135 6.04427285,12.4401206 6.02596611,12.3944902 C5.9519901,12.2101013 6.04147584,12.0006471 6.22583864,11.9266606 L6.22583864,11.9266606 L18.522403,7.02575854 Z" id="Combined-Shape" fill="#000000" fill-rule="nonzero"></path>
    </g>
</svg>