<?xml version="1.0" encoding="UTF-8"?>
<svg width="100px" height="87px" viewBox="0 0 100 87" version="1.1" xmlns="http://www.w3.org/2000/svg" xmlns:xlink="http://www.w3.org/1999/xlink">
    <!-- Generator: Sketch 62 (91390) - https://sketch.com -->
    <title>icon/console-服务中心</title>
    <desc>Created with Sketch.</desc>
    <defs>
        <linearGradient x1="50%" y1="0%" x2="50%" y2="100%" id="linearGradient-1">
            <stop stop-color="#4E5ECE" offset="0%"></stop>
            <stop stop-color="#4E5ECE" stop-opacity="0.15" offset="100%"></stop>
        </linearGradient>
        <linearGradient x1="50%" y1="0%" x2="50%" y2="100%" id="linearGradient-2">
            <stop stop-color="#4559E6" offset="0%"></stop>
            <stop stop-color="#4559E6" stop-opacity="0.15" offset="100%"></stop>
        </linearGradient>
        <linearGradient x1="50%" y1="0%" x2="50%" y2="100%" id="linearGradient-3">
            <stop stop-color="#4559E6" offset="0%"></stop>
            <stop stop-color="#4559E6" stop-opacity="0.15" offset="100%"></stop>
        </linearGradient>
        <linearGradient x1="50%" y1="0%" x2="50%" y2="100%" id="linearGradient-4">
            <stop stop-color="#4559E6" offset="0%"></stop>
            <stop stop-color="#4559E6" stop-opacity="0.15" offset="100%"></stop>
        </linearGradient>
        <linearGradient x1="50%" y1="0%" x2="50%" y2="100%" id="linearGradient-5">
            <stop stop-color="#4559E6" offset="0%"></stop>
            <stop stop-color="#4559E6" stop-opacity="0.15" offset="100%"></stop>
        </linearGradient>
        <linearGradient x1="50%" y1="0%" x2="50%" y2="100%" id="linearGradient-6">
            <stop stop-color="#FF5B4C" stop-opacity="0.7" offset="0%"></stop>
            <stop stop-color="#FF5B4C" stop-opacity="0.412265473" offset="51.5356817%"></stop>
            <stop stop-color="#FF5B4C" stop-opacity="0.299228638" offset="73.9482287%"></stop>
            <stop stop-color="#FF5B4C" stop-opacity="0.05" offset="100%"></stop>
        </linearGradient>
        <linearGradient x1="50%" y1="0%" x2="50%" y2="100%" id="linearGradient-7">
            <stop stop-color="#4559E6" offset="0%"></stop>
            <stop stop-color="#4559E6" stop-opacity="0.15" offset="100%"></stop>
        </linearGradient>
    </defs>
    <g id="icon/console-服务中心" stroke="none" stroke-width="1" fill="none" fill-rule="evenodd">
        <g id="编组-2备份-5">
            <rect id="矩形备份-3" stroke="#E6E9F5" fill="#FFFFFF" opacity="0" x="0.5" y="0.5" width="99" height="86" rx="2"></rect>
            <g id="编组-14" transform="translate(29.000000, 18.000000)">
                <rect id="矩形" fill="url(#linearGradient-1)" opacity="0.3" x="0" y="0" width="40" height="30"></rect>
                <rect id="矩形" fill-opacity="0.8" fill="url(#linearGradient-2)" opacity="0.600000024" x="4" y="4" width="32" height="22"></rect>
                <rect id="矩形" fill-opacity="0.8" fill="url(#linearGradient-3)" opacity="0.600000024" x="20" y="4" width="16" height="22"></rect>
                <circle id="椭圆形" fill-opacity="0.8" fill="url(#linearGradient-4)" cx="11" cy="18" r="4"></circle>
                <path d="M11,17 C11.5522847,17 12,17.4477153 12,18 L12,30 L12,30 L10,30 L10,18 C10,17.4477153 10.4477153,17 11,17 Z" id="矩形" fill-opacity="0.8" fill="url(#linearGradient-5)"></path>
                <g id="编组-13" transform="translate(25.000000, 19.000000)">
                    <polygon id="多边形" fill="#FFFFFF" points="11 0 20.5262794 5.5 20.5262794 16.5 11 22 1.47372056 16.5 1.47372056 5.5"></polygon>
                    <polygon id="形状结合" fill="url(#linearGradient-6)" points="11 2 18.7942286 6.5 18.7942286 15.5 11 20 3.20577137 15.5 3.20577137 6.5"></polygon>
                    <polygon id="路径-3" fill-opacity="0.8" fill="url(#linearGradient-7)" points="18.7942286 6.5 11 11 11 20 18.7942286 15.5"></polygon>
                    <polygon id="路径-3" fill-opacity="0.8" fill="url(#linearGradient-7)" points="18.7942286 6.5 11 11 11 20 18.7942286 15.5"></polygon>
                </g>
            </g>
        </g>
    </g>
</svg>