<?xml version="1.0" encoding="UTF-8"?>
<svg width="26px" height="26px" viewBox="0 0 26 26" version="1.1" xmlns="http://www.w3.org/2000/svg" xmlns:xlink="http://www.w3.org/1999/xlink">
    <!-- Generator: Sketch 62 (91390) - https://sketch.com -->
    <title>icon/语音</title>
    <desc>Created with Sketch.</desc>
    <g id="icon/语音" stroke="none" stroke-width="1" fill="none" fill-rule="evenodd">
        <path d="M13,0 C20.1797017,0 26,5.82029825 26,13 C26,20.1797017 20.1797017,26 13,26 C5.82029825,26 0,20.1797017 0,13 C0,5.82029825 5.82029825,0 13,0 Z M13,1 C6.372583,1 1,6.372583 1,13 C1,19.627417 6.372583,25 13,25 C19.627417,25 25,19.627417 25,13 C25,6.372583 19.627417,1 13,1 Z M14.504,5.84 C15.496005,6.84267168 16.2533307,7.98932688 16.776,9.28 C17.2773358,10.538673 17.528,11.8453266 17.528,13.2 C17.528,14.5546734 17.2773358,15.8559938 16.776,17.104 C16.2533307,18.3946731 15.496005,19.535995 14.504,20.528 L13.16,19.184 C13.9706707,18.3733293 14.5893312,17.4400053 15.016,16.384 C15.4320021,15.3599949 15.64,14.2933389 15.64,13.184 C15.64,12.0746611 15.4320021,11.0080051 15.016,9.984 C14.5893312,8.92799472 13.9706707,7.99467072 13.16,7.184 L14.504,5.84 Z M11.848,8.528 C12.6906709,9.3813376 13.2613318,10.378661 13.56,11.52 C13.8480014,12.6400056 13.8480014,13.7546611 13.56,14.864 C13.2613318,16.005339 12.6906709,16.9973291 11.848,17.84 L10.504,16.528 C11.112003,15.919997 11.5226656,15.2053374 11.736,14.384 C11.9386677,13.583996 11.9386677,12.784004 11.736,11.984 C11.5226656,11.1626626 11.112003,10.448003 10.504,9.84 L11.848,8.528 Z M9.16,11.184 C9.51200176,11.5360018 9.75199936,11.9573309 9.88,12.448 C10.0080006,12.9386691 10.0080006,13.4293309 9.88,13.92 C9.75199936,14.4106691 9.51200176,14.8319982 9.16,15.184 L7.16,13.184 L9.16,11.184 Z" id="Combined-Shape" fill="#000000" fill-rule="nonzero"></path>
    </g>
</svg>