<?xml version="1.0" encoding="UTF-8"?>
<svg width="100px" height="87px" viewBox="0 0 100 87" version="1.1" xmlns="http://www.w3.org/2000/svg" xmlns:xlink="http://www.w3.org/1999/xlink">
    <!-- Generator: Sketch 62 (91390) - https://sketch.com -->
    <title>icon/u-产品使用</title>
    <desc>Created with Sketch.</desc>
    <defs>
        <linearGradient x1="50%" y1="0%" x2="50%" y2="100%" id="linearGradient-1">
            <stop stop-color="#FF5B4C" stop-opacity="0.7" offset="0%"></stop>
            <stop stop-color="#FF5B4C" stop-opacity="0.412265473" offset="51.5356817%"></stop>
            <stop stop-color="#FF5B4C" stop-opacity="0.299228638" offset="73.9482287%"></stop>
            <stop stop-color="#FF5B4C" stop-opacity="0.15" offset="100%"></stop>
        </linearGradient>
        <linearGradient x1="50%" y1="0%" x2="50%" y2="100%" id="linearGradient-2">
            <stop stop-color="#FF5B4C" stop-opacity="0.7" offset="0%"></stop>
            <stop stop-color="#FF5B4C" stop-opacity="0.412265473" offset="51.5356817%"></stop>
            <stop stop-color="#FF5B4C" stop-opacity="0.299228638" offset="73.9482287%"></stop>
            <stop stop-color="#FF5B4C" stop-opacity="0.15" offset="100%"></stop>
        </linearGradient>
        <linearGradient x1="50%" y1="0%" x2="50%" y2="100%" id="linearGradient-3">
            <stop stop-color="#4E5ECE" offset="0%"></stop>
            <stop stop-color="#4E5ECE" stop-opacity="0.15" offset="100%"></stop>
        </linearGradient>
    </defs>
    <g id="icon/u-产品使用" stroke="none" stroke-width="1" fill="none" fill-rule="evenodd">
        <g id="编组-12">
            <rect id="矩形备份-3" stroke="#E6E9F5" fill="#FFFFFF" opacity="0" x="0.5" y="0.5" width="99" height="86" rx="2"></rect>
            <g id="编组-15" transform="translate(32.000000, 9.000000)">
                <path d="M30,15 L30,28 C30,35.7319865 23.7319865,42 16,42 C8.2680135,42 2,35.7319865 2,28 L2,10 L20,10 L19,15 L24.999,15 L25,20 L30,21 L29.999,15 L30,15 Z" id="形状结合" fill-opacity="0.7" fill="url(#linearGradient-1)"></path>
                <path d="M7,15 L25,15 L25,28 C25,32.9705627 20.9705627,37 16,37 C11.0294373,37 7,32.9705627 7,28 L7,15 L7,15 Z" id="矩形备份-18" fill-opacity="0.5" fill="url(#linearGradient-2)"></path>
                <circle id="椭圆形备份" fill-opacity="0.5" fill="url(#linearGradient-3)" cx="5" cy="39" r="5"></circle>
                <circle id="椭圆形备份-4" fill-opacity="0.15" fill="url(#linearGradient-3)" cx="28" cy="12" r="12"></circle>
                <polygon id="矩形" fill-opacity="0.6" fill="#1A37FF" points="20 10 36 10 35 15 19 15"></polygon>
                <polygon id="矩形" fill-opacity="0.6" fill="#1A37FF" transform="translate(27.500000, 12.500000) rotate(-270.000000) translate(-27.500000, -12.500000) " points="20 10 36 10 35 15 19 15"></polygon>
            </g>
        </g>
    </g>
</svg>