<?xml version="1.0" encoding="UTF-8"?>
<svg width="100px" height="87px" viewBox="0 0 100 87" version="1.1" xmlns="http://www.w3.org/2000/svg" xmlns:xlink="http://www.w3.org/1999/xlink">
    <!-- Generator: Sketch 62 (91390) - https://sketch.com -->
    <title>icon/u-服务中心</title>
    <desc>Created with Sketch.</desc>
    <defs>
        <linearGradient x1="-56.2403957%" y1="50%" x2="100%" y2="50%" id="linearGradient-1">
            <stop stop-color="#4559E6" stop-opacity="0.900786713" offset="0%"></stop>
            <stop stop-color="#4E5ECE" stop-opacity="0.15" offset="100%"></stop>
        </linearGradient>
        <linearGradient x1="50%" y1="0%" x2="50%" y2="100%" id="linearGradient-2">
            <stop stop-color="#4559E6" offset="0%"></stop>
            <stop stop-color="#4559E6" stop-opacity="0.15" offset="100%"></stop>
        </linearGradient>
        <linearGradient x1="50%" y1="0%" x2="50%" y2="100%" id="linearGradient-3">
            <stop stop-color="#4E5ECE" offset="0%"></stop>
            <stop stop-color="#4E5ECE" stop-opacity="0.15" offset="100%"></stop>
        </linearGradient>
        <linearGradient x1="50%" y1="0%" x2="50%" y2="100%" id="linearGradient-4">
            <stop stop-color="#FF5B4C" stop-opacity="0.7" offset="0%"></stop>
            <stop stop-color="#FF5B4C" stop-opacity="0.412265473" offset="51.5356817%"></stop>
            <stop stop-color="#FF5B4C" stop-opacity="0.299228638" offset="73.9482287%"></stop>
            <stop stop-color="#FF5B4C" stop-opacity="0.05" offset="100%"></stop>
        </linearGradient>
        <linearGradient x1="50%" y1="0%" x2="50%" y2="100%" id="linearGradient-5">
            <stop stop-color="#4559E6" offset="0%"></stop>
            <stop stop-color="#4559E6" stop-opacity="0.15" offset="100%"></stop>
        </linearGradient>
    </defs>
    <g id="icon/u-服务中心" stroke="none" stroke-width="1" fill="none" fill-rule="evenodd">
        <g id="编组-2备份-6">
            <rect id="矩形备份-3" stroke="#E6E9F5" fill="#FFFFFF" opacity="0" x="0.5" y="0.5" width="99" height="86" rx="2"></rect>
            <g id="编组-12" transform="translate(30.000000, 8.000000)">
                <path d="M2,10.9506147 L30,10.9506147 L30,28.9506147 C30,36.6826012 23.7319865,42.9506147 16,42.9506147 C8.2680135,42.9506147 2,36.6826012 2,28.9506147 L2,10.9506147 L2,10.9506147 Z" id="矩形" fill-opacity="0.5" fill="url(#linearGradient-1)"></path>
                <path d="M7,15.9506147 L25,15.9506147 L25,28.9506147 C25,33.9211775 20.9705627,37.9506147 16,37.9506147 C11.0294373,37.9506147 7,33.9211775 7,28.9506147 L7,15.9506147 L7,15.9506147 Z" id="矩形备份-18" fill-opacity="0.6" fill="url(#linearGradient-2)"></path>
                <circle id="椭圆形备份" fill-opacity="0.5" fill="url(#linearGradient-3)" cx="5" cy="39.9506147" r="5"></circle>
                <circle id="椭圆形备份-4" fill-opacity="0.12" fill="url(#linearGradient-3)" cx="28" cy="12.9506147" r="12"></circle>
                <polygon id="矩形" fill-opacity="0.6" fill="#1A37FF" points="20 10.9506147 36 10.9506147 35 15.9506147 19 15.9506147"></polygon>
                <polygon id="矩形" fill-opacity="0.6" fill="#1A37FF" transform="translate(27.500000, 13.450615) rotate(-270.000000) translate(-27.500000, -13.450615) " points="20 10.9506147 36 10.9506147 35 15.9506147 19 15.9506147"></polygon>
                <g id="编组-13" transform="translate(21.000000, 27.000000)">
                    <polygon id="多边形" fill="#FFFFFF" points="11 0 20.5262794 5.5 20.5262794 16.5 11 22 1.47372056 16.5 1.47372056 5.5"></polygon>
                    <polygon id="形状结合" fill="url(#linearGradient-4)" points="11 2 18.7942286 6.5 18.7942286 15.5 11 20 3.20577137 15.5 3.20577137 6.5"></polygon>
                    <polygon id="路径-3" fill-opacity="0.8" fill="url(#linearGradient-5)" points="18.7942286 6.5 11 11 11 20 18.7942286 15.5"></polygon>
                    <polygon id="路径-3" fill-opacity="0.8" fill="url(#linearGradient-5)" points="18.7942286 6.5 11 11 11 20 18.7942286 15.5"></polygon>
                </g>
            </g>
        </g>
    </g>
</svg>