<?xml version="1.0" encoding="UTF-8"?>
<svg width="16px" height="16px" viewBox="0 0 16 16" version="1.1" xmlns="http://www.w3.org/2000/svg" xmlns:xlink="http://www.w3.org/1999/xlink">
    <!-- Generator: Sketch 62 (91390) - https://sketch.com -->
    <title>icon/u课堂/卡片播放</title>
    <desc>Created with Sketch.</desc>
    <g id="icon/u课堂/卡片播放" stroke="none" stroke-width="1" fill="none" fill-rule="evenodd">
        <path d="M11.9978516,1.06486777 C14.1740703,1.06486777 15.9578562,2.84865363 15.9578562,5.02487238 L15.9578562,11.7675829 C15.9578562,13.908126 14.209746,15.6919118 12.0335273,15.6919118 L4.93405958,15.6919118 C2.75784083,15.6919118 1.00973068,13.908126 1.00973068,11.7319072 L1.00973068,4.98919666 C1.00973068,2.81297791 2.75784083,1.06486777 4.93405958,1.06486777 L11.9978516,1.06486777 Z M11.9978516,2.09946357 L4.93405958,2.09946357 L4.93405958,2.13513929 C3.36432802,2.13513929 2.04432648,3.41946511 2.04432648,5.02487238 L2.04432648,11.7675829 C2.04432648,13.3373145 3.3286523,14.657316 4.93405958,14.657316 L11.9978516,14.657316 C13.5675831,14.657316 14.8875847,13.3729902 14.8875847,11.7675829 L14.8875847,4.98919666 C14.8875847,3.41946511 13.6032589,2.09946357 11.9978516,2.09946357 Z M7.82379267,5.13189953 L11.2843372,7.91460547 C11.4270401,8.02163262 11.4983915,8.16433549 11.4983915,8.34271408 C11.4983915,8.52109266 11.4270401,8.66379553 11.2843372,8.77082268 L7.82379267,11.5535286 C7.6810898,11.6605558 7.57406265,11.6962315 7.4670355,11.6962315 C7.39568406,11.6962315 7.32433263,11.6962315 7.25298119,11.6605558 C7.07460261,11.5892043 6.93189974,11.37515 6.93189974,11.1610957 L6.93189974,5.56000814 C6.93189974,5.34595383 7.03892689,5.16757525 7.25298119,5.0605481 C7.43135978,4.98919666 7.64541408,4.98919666 7.82379267,5.13189953 Z M8.00217125,6.70163109 L8.00217125,10.0551485 L10.0713629,8.37838979 L8.00217125,6.70163109 Z" id="形状结合" fill="#8D91A6"></path>
    </g>
</svg>