<?xml version="1.0" encoding="UTF-8"?>
<svg width="20px" height="20px" viewBox="0 0 20 20" version="1.1" xmlns="http://www.w3.org/2000/svg" xmlns:xlink="http://www.w3.org/1999/xlink">
    <!-- Generator: Sketch 62 (91390) - https://sketch.com -->
    <title>icon/清空刷子</title>
    <desc>Created with Sketch.</desc>
    <g id="icon/清空刷子" stroke="none" stroke-width="1" fill="none" fill-rule="evenodd">
        <path d="M17.5153692,2.48463076 C18.6687404,3.6380019 18.7114578,5.48144477 17.6435216,6.68593234 L17.5153692,6.82200046 L17.0149035,7.32246619 L18.5163007,8.8238634 C19.0929461,9.40050882 19.1540027,10.2975001 18.6994704,10.9419835 L18.6082036,11.0597252 L18.5163007,11.1593702 L10.6756709,19 L1,9.32432913 L8.84062984,1.48369929 C9.44762503,0.876704103 10.4095741,0.840998504 11.0583285,1.37658249 L11.1761366,1.48369929 L12.6775338,2.98509649 L13.1779995,2.48463076 C14.2899519,1.37267837 16.0433036,1.29304252 17.2471275,2.24572322 L17.3888724,2.36500002 L17.5153692,2.48463076 Z M14.3457529,13.328055 L6.67194499,5.65424708 L3.00186294,9.32432913 L4.50326014,10.8257263 L6.00465735,9.32432913 L7.00558882,10.3252606 L5.50419161,11.8266578 L6.50512308,12.8275893 L8.00652028,11.3261921 L9.00745175,12.3271235 L7.50605455,13.8285207 L8.50698602,14.8294522 L10.0083832,13.328055 L11.0093147,14.3289865 L9.50791749,15.8303837 L10.6756709,16.9981371 L14.3457529,13.328055 Z M16.5144378,3.48556223 C15.9074426,2.87856704 14.9454936,2.84286144 14.2967391,3.37844543 L14.178931,3.48556223 L12.6775338,4.98695943 L10.1752051,2.48463076 C10.0984275,2.40785309 9.98189687,2.39505681 9.89186822,2.44624192 L9.84156131,2.48463076 L7.67287646,4.65331561 L15.3466844,12.3271235 L17.5153692,10.1584387 C17.5785463,10.0952616 17.5984019,10.0051681 17.5749362,9.92507214 L17.5492141,9.86745148 L17.5153692,9.82479487 L15.0130406,7.32246619 L16.5144378,5.82106899 C17.1593702,5.1761366 17.1593702,4.13049461 16.5144378,3.48556223 Z" id="形状" fill="#3F51B5" fill-rule="nonzero"></path>
    </g>
</svg>