<?xml version="1.0" encoding="UTF-8"?>
<svg width="16px" height="16px" viewBox="0 0 16 16" version="1.1" xmlns="http://www.w3.org/2000/svg" xmlns:xlink="http://www.w3.org/1999/xlink">
    <!-- Generator: Sketch 62 (91390) - https://sketch.com -->
    <title>icon/u课堂/视频全屏</title>
    <desc>Created with Sketch.</desc>
    <g id="icon/u课堂/视频全屏" stroke="none" stroke-width="1" fill="none" fill-rule="evenodd">
        <path d="M15.5,11 C15.7761424,11 16,11.2238576 16,11.5 L16,15.5 L15.9994185,15.5223974 C16.0056722,15.6462857 15.9614883,15.7722452 15.8668667,15.8668667 C15.7725002,15.9612332 15.6469645,16.0054336 15.5233992,15.9994679 C15.5158153,15.9998154 15.5079292,16 15.5,16 L11.5,16 C11.2238576,16 11,15.7761424 11,15.5 C11,15.2238576 11.2238576,15 11.5,15 L14.357,15 L11.1331333,11.7759576 C10.9556222,11.5984466 10.9556222,11.3106443 11.1331333,11.1331333 C11.2884554,10.9778111 11.5282193,10.9583958 11.7046519,11.0748875 L11.7759576,11.1331333 L15,14.359 L15,11.5 C15,11.2238576 15.2238576,11 15.5,11 Z M4.29534809,11.0748875 C4.47178068,10.9583958 4.71154456,10.9778111 4.86686672,11.1331333 C5.04437776,11.3106443 5.04437776,11.5984466 4.86686672,11.7759576 L4.86686672,11.7759576 L1.643,15 L4.5,15 C4.77614237,15 5,15.2238576 5,15.5 C5,15.7761424 4.77614237,16 4.5,16 L4.5,16 L0.5,16 C0.492070818,16 0.484184745,15.9998154 0.476600757,15.9994679 C0.353035504,16.0054336 0.227499783,15.9612332 0.133133281,15.8668667 C0.0385117346,15.7722452 -0.00567217725,15.6462857 0.000581545662,15.5223974 L0.000581545662,15.5223974 L-8.8817842e-16,11.5 C-8.8817842e-16,11.2238576 0.223857625,11 0.5,11 C0.776142375,11 1,11.2238576 1,11.5 L1,11.5 L1,14.359 L4.22404237,11.1331333 Z M15.5223974,0.000581545662 C15.6462857,-0.00567217725 15.7722452,0.0385117346 15.8668667,0.133133281 C15.9612332,0.227499783 16.0054336,0.353035504 15.9994679,0.476600757 C15.9998154,0.484184745 16,0.492070818 16,0.5 L16,4.5 C16,4.77614237 15.7761424,5 15.5,5 C15.2238576,5 15,4.77614237 15,4.5 L15,1.643 L11.7759576,4.86686672 C11.5984466,5.04437776 11.3106443,5.04437776 11.1331333,4.86686672 C10.9778111,4.71154456 10.9583958,4.47178068 11.0748875,4.29534809 L11.1331333,4.22404237 L14.359,1 L11.5,1 C11.2238576,1 11,0.776142375 11,0.5 C11,0.223857625 11.2238576,0 11.5,0 L15.5223974,0.000581545662 Z M4.5,0 C4.77614237,0 5,0.223857625 5,0.5 C5,0.776142375 4.77614237,1 4.5,1 L4.5,1 L1.641,1 L4.86686672,4.22404237 L4.92511253,4.29534809 C5.04160415,4.47178068 5.02218888,4.71154456 4.86686672,4.86686672 C4.68935568,5.04437776 4.40155341,5.04437776 4.22404237,4.86686672 L4.22404237,4.86686672 L1,1.643 L1,4.5 C1,4.77614237 0.776142375,5 0.5,5 C0.223857625,5 -3.38176876e-17,4.77614237 0,4.5 L0,4.5 L0.000532075804,0.476600757 C-0.0054336226,0.353035504 0.0387667792,0.227499783 0.133133281,0.133133281 C0.227754828,0.0385117346 0.353714303,-0.00567217725 0.477602593,0.000581545662 L0.477602593,0.000581545662 Z" id="形状结合" fill="#FFFFFF"></path>
    </g>
</svg>