<?xml version="1.0" encoding="UTF-8"?>
<svg width="32px" height="32px" viewBox="0 0 32 32" version="1.1" xmlns="http://www.w3.org/2000/svg" xmlns:xlink="http://www.w3.org/1999/xlink">
    <!-- Generator: Sketch 62 (91390) - https://sketch.com -->
    <title>icon/u课堂/主页</title>
    <desc>Created with Sketch.</desc>
    <g id="icon/u课堂/主页" stroke="none" stroke-width="1" fill="none" fill-rule="evenodd">
        <path d="M16.6128994,6.20970461 L16.7071068,6.29289322 L26.7071068,16.2928932 C27.0976311,16.6834175 27.0976311,17.3165825 26.7071068,17.7071068 C26.3466228,18.0675907 25.7793918,18.0953203 25.3871006,17.7902954 L25.2928932,17.7071068 L24,16.415 L24,23.5 C24,24.2796961 23.4051119,24.9204487 22.64446,24.9931334 L22.5,25 L9.5,25 C8.72030388,25 8.07955132,24.4051119 8.00686658,23.64446 L8,23.5 L8,16.414 L6.70710678,17.7071068 C6.34662282,18.0675907 5.77939176,18.0953203 5.38710056,17.7902954 L5.29289322,17.7071068 C4.93240926,17.3466228 4.90467972,16.7793918 5.20970461,16.3871006 L5.29289322,16.2928932 L15.2928932,6.29289322 C15.6533772,5.93240926 16.2206082,5.90467972 16.6128994,6.20970461 Z M16,8.415 L9.995,14.419 L10,14.5 L10,23 L22,23 L22,14.5 L22.004,14.419 L16,8.415 Z M18,19 C18.5522847,19 19,19.4477153 19,20 C19,20.5522847 18.5522847,21 18,21 L14,21 C13.4477153,21 13,20.5522847 13,20 C13,19.4477153 13.4477153,19 14,19 L18,19 Z" id="形状结合" fill="#FFFFFF"></path>
    </g>
</svg>