<?xml version="1.0" encoding="UTF-8"?>
<svg width="18px" height="18px" viewBox="0 0 18 18" version="1.1" xmlns="http://www.w3.org/2000/svg" xmlns:xlink="http://www.w3.org/1999/xlink">
    <!-- Generator: Sketch 62 (91390) - https://sketch.com -->
    <title>icon/输入框后提示/错误</title>
    <desc>Created with Sketch.</desc>
    <g id="icon/输入框后提示/错误" stroke="none" stroke-width="1" fill="none" fill-rule="evenodd">
        <path d="M9,1.54347646e-11 C9.55228475,1.54346631e-11 10,0.44771525 10,1 L9.999,8 L17,8 C17.5522847,8 18,8.44771525 18,9 C18,9.55228475 17.5522847,10 17,10 L9.999,10 L10,17 C10,17.5522847 9.55228475,18 9,18 C8.44771525,18 8,17.5522847 8,17 L7.999,10 L1,10 C0.44771525,10 5.65893998e-11,9.55228475 5.65893998e-11,9 C5.65893998e-11,8.44771525 0.44771525,8 1,8 L7.999,8 L8,1 C8,0.44771525 8.44771525,1.5434866e-11 9,1.54347646e-11 Z" id="形状结合" fill="#F26255" transform="translate(9.000000, 9.000000) rotate(-315.000000) translate(-9.000000, -9.000000) "></path>
    </g>
</svg>