<?xml version="1.0" encoding="UTF-8"?>
<svg width="32px" height="32px" viewBox="0 0 32 32" version="1.1" xmlns="http://www.w3.org/2000/svg" xmlns:xlink="http://www.w3.org/1999/xlink">
    <!-- Generator: Sketch 62 (91390) - https://sketch.com -->
    <title>icon/u课堂/语言</title>
    <desc>Created with Sketch.</desc>
    <g id="icon/u课堂/语言" stroke="none" stroke-width="1" fill="none" fill-rule="evenodd">
        <path d="M16,6 C21.5228475,6 26,10.4771525 26,16 C26,21.5228475 21.5228475,26 16,26 C10.4771525,26 6,21.5228475 6,16 C6,10.4771525 10.4771525,6 16,6 Z M18.7423852,19.5008909 L13.2576449,19.5009435 C13.7896766,21.2896251 14.7258816,22.932285 15.9995974,24.3102467 C17.2745442,22.9316016 18.2104911,21.2891438 18.7423852,19.5008909 Z M11.7000892,19.5006328 L8.25218545,19.5009859 C9.32134543,21.8633518 11.439197,23.6497175 14.0118843,24.2662273 C12.9393933,22.8450388 12.1535271,21.2286109 11.7000892,19.5006328 Z M23.7478146,19.5009859 L20.2999593,19.5004963 C19.8467259,21.2277829 19.0612823,22.8437376 17.9898552,24.2655566 C20.5613553,23.6492516 22.678794,21.8630437 23.7478146,19.5009859 Z M11.3310992,14.500381 L7.63190411,14.5001631 C7.54522769,14.9870259 7.5,15.4882312 7.5,16 C7.5,16.6889472 7.58196505,17.3587503 7.73667559,18.00019 L11.3948679,18.0006055 C11.2990601,17.344258 11.25,16.6760147 11.25,16 C11.25,15.4952207 11.2773541,14.9947753 11.3310992,14.500381 Z M19.1589221,14.5001369 L12.8410239,14.5006161 C12.7807438,14.9940307 12.75,15.4945416 12.75,16 C12.75,16.6774953 12.8052325,17.3461036 12.9127914,18.000651 L19.0872308,18.0005681 C19.1947792,17.3460322 19.25,16.6774523 19.25,16 C19.25,15.4943845 19.2192393,14.9937134 19.1589221,14.5001369 Z M24.3680959,14.5001631 L20.6688843,14.5001971 C20.7226414,14.9946581 20.75,15.4951649 20.75,16 C20.75,16.6761236 20.7009275,17.3444876 20.6050861,18.0009656 L24.2633244,18.00019 C24.418035,17.3587503 24.5,16.6889472 24.5,16 C24.5,15.4882312 24.4547723,14.9870259 24.3680959,14.5001631 Z M14.0113618,7.73278605 L13.7796476,7.79292423 C11.1349785,8.50667693 9.0010207,10.464677 8.0444657,13.0002331 L11.5785858,13.0006948 C12.0051129,11.0838327 12.8364617,9.29145224 14.0113618,7.73278605 Z M16.0009586,7.69037517 L15.8134869,7.89568822 C14.5195158,9.36030255 13.59649,11.1067194 13.1201662,13.0001388 L18.8798758,13.000261 C18.3811589,11.0177192 17.3926417,9.19619522 16.0009586,7.69037517 Z M17.9881157,7.73377275 C19.1652312,9.29502137 19.9953361,11.0857958 20.4214187,13.0006731 L23.9555343,13.0002331 C22.9711345,10.3908683 20.739787,8.39317359 17.9881157,7.73377275 Z" id="形状结合" fill="#FFFFFF" fill-rule="nonzero"></path>
    </g>
</svg>