<?xml version="1.0" encoding="UTF-8"?>
<svg width="12px" height="12px" viewBox="0 0 12 12" version="1.1" xmlns="http://www.w3.org/2000/svg" xmlns:xlink="http://www.w3.org/1999/xlink">
    <!-- Generator: Sketch 62 (91390) - https://sketch.com -->
    <title>icon/u课堂/like</title>
    <desc>Created with Sketch.</desc>
    <g id="icon/u课堂/like" stroke="none" stroke-width="1" fill="none" fill-rule="evenodd">
        <path d="M11.2265625,5.06640625 L11.25,5.125 L11.25,5.640625 L11.203125,5.69921875 C11.1562498,5.88671969 11.0781255,6.06249918 10.96875,6.2265625 C11.0078127,6.34375059 11.0273438,6.46093691 11.0273438,6.578125 C11.0351563,6.89062656 10.9453134,7.18749859 10.7578125,7.46875 C10.7890627,7.56250047 10.8085937,7.65624953 10.8164062,7.75 C10.8320313,8.09375172 10.7421885,8.42187344 10.546875,8.734375 C10.5859377,8.90625086 10.5976563,9.08203035 10.5820312,9.26171875 C10.5507811,9.58984539 10.4394541,9.87499879 10.2480469,10.1171875 C10.0566397,10.3593762 9.80468906,10.5312495 9.4921875,10.6328125 C9.25781133,10.7109379 8.97656414,10.75 8.6484375,10.75 L1.59375,10.75 C1.35937383,10.75 1.16015707,10.6679696 0.99609375,10.5039062 C0.83203043,10.3398429 0.75,10.1406262 0.75,9.90625 L0.75,5.59375 C0.75,5.35937383 0.83203043,5.16015707 0.99609375,4.99609375 C1.16015707,4.83203043 1.35937383,4.75 1.59375,4.75 L2.91796875,4.75 L3.09375,4.71484375 C3.21093809,4.69140613 3.34960857,4.63281297 3.50976563,4.5390625 C3.66992268,4.44531203 3.79687453,4.3281257 3.890625,4.1875 C4.0312507,3.96093637 4.23827988,3.60937738 4.51171875,3.1328125 C4.54296891,3.07812473 4.58789033,3.00000051 4.64648438,2.8984375 C4.70507842,2.79687449 4.74609363,2.72265648 4.76953125,2.67578125 C4.78515633,2.64453109 4.79296875,2.6093752 4.79296875,2.5703125 C4.78515621,2.40624918 4.77734379,2.1640641 4.76953125,1.84375 C4.76953125,1.74218699 4.76562504,1.6015634 4.7578125,1.421875 C4.75,0.976560273 4.94531051,0.652344766 5.34375,0.44921875 C5.59375125,0.316405586 5.85156117,0.25 6.1171875,0.25 C6.35156367,0.25 6.58203012,0.300780742 6.80859375,0.40234375 C7.10547023,0.527344375 7.31640562,0.746092188 7.44140625,1.05859375 L7.546875,1.33984375 C7.67968816,1.69922055 7.77343723,1.95703047 7.828125,2.11328125 C7.9687507,2.51953328 7.98828176,2.98437238 7.88671875,3.5078125 C7.86328113,3.61718805 7.83593766,3.7773427 7.8046875,3.98828125 L9.84375,3.98828125 C10.046876,3.98828125 10.2421866,4.01953094 10.4296875,4.08203125 C10.828127,4.23046949 11.0859369,4.53124773 11.203125,4.984375 C11.203125,4.99218754 11.2109374,5.00781238 11.2265625,5.03125 L11.2265625,5.06640625 Z M2.90625,9.90625 L2.90625,5.59375 L1.59375,5.59375 L1.59375,9.90625 L2.90625,9.90625 Z M10.40625,5.41796875 L10.40625,5.25390625 C10.40625,5.24609371 10.4042969,5.23437508 10.4003906,5.21875 C10.3964844,5.20312492 10.390625,5.1953125 10.3828125,5.1953125 C10.3437498,5.03124918 10.2656256,4.92578148 10.1484375,4.87890625 C10.0468745,4.84765609 9.94531301,4.83203125 9.84375,4.83203125 L6.80859375,4.83203125 L6.97265625,3.84765625 C7.00390641,3.64453023 7.03124988,3.47656316 7.0546875,3.34375 C7.13281289,2.97656066 7.12500047,2.65625137 7.03125,2.3828125 C6.96874969,2.2031241 6.87890684,1.9531266 6.76171875,1.6328125 C6.74609367,1.60937488 6.71093777,1.51562582 6.65625,1.3515625 C6.6171873,1.26562457 6.55859414,1.20703141 6.48046875,1.17578125 C6.35546812,1.12109348 6.23437559,1.09375 6.1171875,1.09375 C5.99218687,1.09375 5.86718813,1.12499969 5.7421875,1.1875 C5.68749973,1.21875016 5.65234383,1.24999984 5.63671875,1.28125 C5.61328113,1.31250016 5.60546871,1.35156227 5.61328125,1.3984375 L5.61328125,1.84375 C5.62109379,2.11718887 5.62890621,2.33984289 5.63671875,2.51171875 C5.65234383,2.7226573 5.6054693,2.92187406 5.49609375,3.109375 C5.48828121,3.12500008 5.47265637,3.15234355 5.44921875,3.19140625 C5.42578113,3.23046895 5.41015629,3.25390621 5.40234375,3.26171875 C5.30859328,3.42578207 5.25390633,3.51953113 5.23828125,3.54296875 L5.2265625,3.5546875 C4.96093617,4.03125238 4.75390699,4.38671758 4.60546875,4.62109375 L4.60546875,4.6328125 C4.40234273,4.94531406 4.12109555,5.18749914 3.76171875,5.359375 L3.75,9.90625 L8.6484375,9.90625 C8.89062621,9.90625 9.08593676,9.88281273 9.234375,9.8359375 C9.38281324,9.78124973 9.49999957,9.6992193 9.5859375,9.58984375 C9.67187543,9.48828074 9.72265617,9.35937578 9.73828125,9.203125 L9.73828125,9.19140625 C9.74609379,9.09765578 9.73828137,9.00000051 9.71484375,8.8984375 L9.71484375,8.86328125 L9.64453125,8.5703125 L9.83203125,8.27734375 C9.93359426,8.12109297 9.98046879,7.96484453 9.97265625,7.80859375 C9.96484371,7.77734359 9.95703129,7.7421877 9.94921875,7.703125 L9.84375,7.328125 L10.0546875,7 C10.148438,6.87499937 10.1914063,6.74609441 10.1835938,6.61328125 C10.1835938,6.55859348 10.1757813,6.50781273 10.1601562,6.4609375 L10.0546875,6.0859375 L10.2773438,5.7578125 C10.324219,5.67968711 10.3593749,5.59765668 10.3828125,5.51171875 L10.40625,5.41796875 Z" id="" fill="#8D91A6"></path>
    </g>
</svg>