<?xml version="1.0" encoding="UTF-8"?>
<svg width="32px" height="32px" viewBox="0 0 32 32" version="1.1" xmlns="http://www.w3.org/2000/svg" xmlns:xlink="http://www.w3.org/1999/xlink">
    <!-- Generator: Sketch 62 (91390) - https://sketch.com -->
    <title>icon/u课堂/信息中心</title>
    <desc>Created with Sketch.</desc>
    <g id="icon/u课堂/信息中心" stroke="none" stroke-width="1" fill="none" fill-rule="evenodd">
        <path d="M16,23 C17.3333333,23.5969537 18,24.2636203 18,25 C18,26.1045695 17.1045695,27 16,27 C14.8954305,27 14,26.1045695 14,25 C14,24.2636203 14.6666667,23.5969537 16,23 Z M16,5 C17.1045695,5 18,5.8954305 18,7 C18,7.11305511 17.9906195,7.22391929 17.9725944,7.33185666 C20.3167263,8.14694659 22,10.3768985 22,13 L22,20 L23.5527864,20.7763932 C23.8268684,20.9134342 24,21.193567 24,21.5 C24,21.7761424 23.7761424,22 23.5,22 L8.5,22 C8.22385763,22 8,21.7761424 8,21.5 C8,21.193567 8.17313156,20.9134342 8.4472136,20.7763932 L10,20 L10,13 C10,10.3768985 11.6832737,8.14694659 14.0285706,7.3313948 C14.0093805,7.22391929 14,7.11305511 14,7 C14,5.8954305 14.8954305,5 16,5 Z M16,9 C13.8578046,9 12.1089211,10.6839685 12.0048953,12.8003597 L12,13 L12,20 L20,20 L20,13 C20,10.8578046 18.3160315,9.10892112 16.1996403,9.00489531 L16,9 Z" id="形状结合" fill="#FFFFFF" fill-rule="nonzero"></path>
    </g>
</svg>