<?xml version="1.0" encoding="UTF-8"?>
<svg width="18px" height="18px" viewBox="0 0 18 18" version="1.1" xmlns="http://www.w3.org/2000/svg" xmlns:xlink="http://www.w3.org/1999/xlink">
    <!-- Generator: Sketch 62 (91390) - https://sketch.com -->
    <title>icon/u课堂/播放量</title>
    <desc>Created with Sketch.</desc>
    <g id="icon/u课堂/播放量" stroke="none" stroke-width="1" fill="none" fill-rule="evenodd">
        <path d="M9,0 C10.8420541,0 12.6030281,0.555377796 14.089718,1.57647363 C16.5181028,3.24434918 18,5.99765014 18,9 C18,13.9705627 13.9705627,18 9,18 C4.02943725,18 0,13.9705627 0,9 C0,4.02943725 4.02943725,0 9,0 Z M9,1.5 C4.85786438,1.5 1.5,4.85786438 1.5,9 C1.5,13.1421356 4.85786438,16.5 9,16.5 C13.1421356,16.5 16.5,13.1421356 16.5,9 C16.5,6.49713359 15.2657277,4.20390891 13.2404915,2.81292598 C12.0017845,1.96215096 10.5364111,1.5 9,1.5 Z M7.5,6 L12,9 L7.5,12 L7.5,6 Z" id="形状结合" fill="#8D91A6"></path>
    </g>
</svg>