<?xml version="1.0" encoding="UTF-8"?>
<svg width="12px" height="12px" viewBox="0 0 12 12" version="1.1" xmlns="http://www.w3.org/2000/svg" xmlns:xlink="http://www.w3.org/1999/xlink">
    <!-- Generator: Sketch 62 (91390) - https://sketch.com -->
    <title>icon/u课堂/回复active</title>
    <desc>Created with Sketch.</desc>
    <g id="icon/u课堂/回复active" stroke="none" stroke-width="1" fill="none" fill-rule="evenodd">
        <path d="M10.5,1 C11.0522847,1 11.5,1.44771525 11.5,2 L11.5,8 C11.5,8.55228475 11.0522847,9 10.5,9 L7,9 L4.01830246,11.129784 C3.79359617,11.2902884 3.48132113,11.2382426 3.32081663,11.0135363 C3.29756414,10.9809828 3.27830254,10.9457564 3.26344502,10.9086126 L2.5,9 L1,9 C0.44771525,9 6.76353751e-17,8.55228475 0,8 L0,2 C-6.76353751e-17,1.44771525 0.44771525,1 1,1 L10.5,1 Z M3.25,4.25 C2.83578644,4.25 2.5,4.58578644 2.5,5 C2.5,5.41421356 2.83578644,5.75 3.25,5.75 C3.66421356,5.75 4,5.41421356 4,5 C4,4.58578644 3.66421356,4.25 3.25,4.25 Z M5.75,4.25 C5.33578644,4.25 5,4.58578644 5,5 C5,5.41421356 5.33578644,5.75 5.75,5.75 C6.16421356,5.75 6.5,5.41421356 6.5,5 C6.5,4.58578644 6.16421356,4.25 5.75,4.25 Z M8.25,4.25 C7.83578644,4.25 7.5,4.58578644 7.5,5 C7.5,5.41421356 7.83578644,5.75 8.25,5.75 C8.66421356,5.75 9,5.41421356 9,5 C9,4.58578644 8.66421356,4.25 8.25,4.25 Z" id="形状结合" fill="#5063C2"></path>
    </g>
</svg>