<?xml version="1.0" encoding="UTF-8"?>
<svg width="12px" height="12px" viewBox="0 0 12 12" version="1.1" xmlns="http://www.w3.org/2000/svg" xmlns:xlink="http://www.w3.org/1999/xlink">
    <!-- Generator: Sketch 62 (91390) - https://sketch.com -->
    <title>icon/u课堂/分享</title>
    <desc>Created with Sketch.</desc>
    <g id="icon/u课堂/分享" stroke="none" stroke-width="1" fill="none" fill-rule="evenodd">
        <path d="M9,1 C9.82842712,1 10.5,1.67157288 10.5,2.5 C10.5,3.32842712 9.82842712,4 9,4 C8.63030034,4 8.29183886,3.86625344 8.03036167,3.64450641 L4.9245777,5.45405862 C4.97370825,5.62759635 5,5.81072779 5,6 C5,6.14324995 4.98493966,6.28298238 4.95631595,6.4177003 L7.49146534,7.68682046 C7.8581211,7.26597394 8.39799978,7 9,7 C10.1045695,7 11,7.8954305 11,9 C11,10.1045695 10.1045695,11 9,11 C7.8954305,11 7,10.1045695 7,9 C7,8.85639894 7.01513426,8.71633268 7.04389476,8.58130922 L4.50853466,7.31317954 C4.1418789,7.73402606 3.60200022,8 3,8 C1.8954305,8 1,7.1045695 1,6 C1,4.8954305 1.8954305,4 3,4 C3.55573038,4 4.05852157,4.22665957 4.42097149,4.59257661 L7.52611096,2.78012349 C7.50896843,2.68937324 7.5,2.59573396 7.5,2.5 C7.5,1.67157288 8.17157288,1 9,1 Z" id="形状结合" fill="#5063C2"></path>
    </g>
</svg>