<?xml version="1.0" encoding="UTF-8"?>
<svg width="20px" height="20px" viewBox="0 0 20 20" version="1.1" xmlns="http://www.w3.org/2000/svg" xmlns:xlink="http://www.w3.org/1999/xlink">
    <!-- Generator: Sketch 62 (91390) - https://sketch.com -->
    <title>icon/u课堂/视频分类</title>
    <desc>Created with Sketch.</desc>
    <g id="icon/u课堂/视频分类" stroke="none" stroke-width="1" fill="none" fill-rule="evenodd">
        <path d="M18,11 C19.1045695,11 20,11.8954305 20,13 L20,18 C20,19.1045695 19.1045695,20 18,20 L13,20 C11.8954305,20 11,19.1045695 11,18 L11,11 L18,11 Z M9,11 L9,18 C9,19.1045695 8.1045695,20 7,20 L2,20 C0.8954305,20 1.3527075e-16,19.1045695 0,18 L0,13 C-1.3527075e-16,11.8954305 0.8954305,11 2,11 L9,11 Z M7,0 C8.1045695,-2.02906125e-16 9,0.8954305 9,2 L9,9 L2,9 C0.8954305,9 1.3527075e-16,8.1045695 0,7 L0,2 C-1.3527075e-16,0.8954305 0.8954305,2.02906125e-16 2,0 L7,0 Z M18,0 C19.1045695,-2.02906125e-16 20,0.8954305 20,2 L20,7 C20,8.1045695 19.1045695,9 18,9 L11,9 L11,2 C11,0.8954305 11.8954305,2.02906125e-16 13,0 L18,0 Z" id="形状结合" fill="#5063C2"></path>
    </g>
</svg>