<?xml version="1.0" encoding="UTF-8"?>
<svg width="20px" height="20px" viewBox="0 0 20 20" version="1.1" xmlns="http://www.w3.org/2000/svg" xmlns:xlink="http://www.w3.org/1999/xlink">
    <!-- Generator: Sketch 62 (91390) - https://sketch.com -->
    <title>icon/u课堂/视频音量键</title>
    <desc>Created with Sketch.</desc>
    <g id="icon/u课堂/视频音量键" stroke="none" stroke-width="1" fill="none" fill-rule="evenodd">
        <path d="M10.7629501,1.55976445 C11.0960654,1.38039465 11.5,1.62166238 11.5,2 L11.5,2 L11.5,18 C11.5,18.3783376 11.0960654,18.6196053 10.7629501,18.4402355 L10.7629501,18.4402355 L4.373,15 L2,15 C1.22030388,15 0.579551322,14.4051119 0.506866578,13.64446 L0.506866578,13.64446 L0.5,13.5 L0.5,6.5 C0.5,5.67157288 1.17157288,5 2,5 L2,5 L4.372,5 Z M10.5,2.837 L4.73704991,5.94023555 C4.66419571,5.97946474 4.58274457,6 4.5,6 L4.5,6 L2,6 C1.72385763,6 1.5,6.22385763 1.5,6.5 L1.5,6.5 L1.5,13.5 C1.5,13.7761424 1.72385763,14 2,14 L2,14 L4.5,14 C4.58274457,14 4.66419571,14.0205353 4.73704991,14.0597645 L4.73704991,14.0597645 L10.5,17.162 L10.5,2.837 Z M14.8747323,3.57722526 C17.1066858,4.92641772 18.5,7.34310353 18.5,10 C18.5,12.687302 17.0744602,15.1276131 14.8013875,16.4665424 C14.5634546,16.6066943 14.2569563,16.527427 14.1168045,16.2894941 C13.9766526,16.0515612 14.0559198,15.745063 14.2938527,15.6049111 C16.2648237,14.4439317 17.5,12.3294944 17.5,10 C17.5,7.69683647 16.2927783,5.60292573 14.3574142,4.4330185 C14.1210935,4.29016508 14.0453232,3.98278365 14.1881766,3.74646287 C14.3310301,3.5101421 14.6384115,3.43437184 14.8747323,3.57722526 Z M13.708078,6.40578766 C14.8278335,7.25065664 15.5,8.56998687 15.5,10 C15.5,11.4059598 14.8503682,12.7056136 13.7622027,13.5527296 C13.5443034,13.7223601 13.2301484,13.6832305 13.0605179,13.4653311 C12.8908875,13.2474318 12.9300171,12.9332769 13.1479164,12.7636464 C13.9952343,12.1040256 14.5,11.094191 14.5,10 C14.5,8.88711955 13.9776879,7.861924 13.1057753,7.20405548 C12.8853398,7.0377342 12.8414715,6.72420582 13.0077927,6.50377024 C13.174114,6.28333467 13.4876424,6.23946637 13.708078,6.40578766 Z" id="形状结合" fill="#FFFFFF" fill-rule="nonzero"></path>
    </g>
</svg>