<?xml version="1.0" encoding="UTF-8"?>
<svg width="32px" height="32px" viewBox="0 0 32 32" version="1.1" xmlns="http://www.w3.org/2000/svg" xmlns:xlink="http://www.w3.org/1999/xlink">
    <!-- Generator: Sketch 62 (91390) - https://sketch.com -->
    <title>icon/u课堂/微信</title>
    <desc>Created with Sketch.</desc>
    <g id="icon/u课堂/微信" stroke="none" stroke-width="1" fill="none" fill-rule="evenodd">
        <path d="M10.6760079,10.7664082 C10.1557073,10.8390083 9.62330666,11.1415087 9.62330666,11.6618093 C9.62330666,12.1821099 10.1436073,12.5572103 10.6760079,12.5572103 C11.1963085,12.5572103 11.5714089,12.25471 11.5714089,11.6618093 C11.5714089,11.1415087 11.1963085,10.7664082 10.6760079,10.7664082 Z M15.6975137,12.5693103 C16.2178143,12.5693103 16.5929148,12.1942099 16.5929148,11.6739093 C16.5929148,11.1536087 16.2178143,10.7785082 15.6975137,10.7785082 C15.1772131,10.7785082 14.6448125,11.1536087 14.6448125,11.6739093 C14.6448125,12.26681 15.1772131,12.5693103 15.6975137,12.5693103 L15.6975137,12.5693103 Z M26.7448266,18.341017 C26.7448266,15.4612137 24.1675236,12.9565108 20.8763198,12.6298104 C20.0898188,9.5443068 16.7139149,7.2211041 12.9992106,7.2211041 C8.72790562,7.2211041 5.25520158,10.2219076 5.25520158,13.9124119 C5.25520158,15.8484141 6.21110269,17.6029162 8.01400479,18.9702178 L7.43320411,20.7731199 C7.336404,20.9667201 7.4211041,21.2329204 7.61470432,21.3418205 C7.77200451,21.4991207 7.96560473,21.5233207 8.15920496,21.4265206 L10.5429077,20.2407192 L10.797008,20.2407192 L10.9785082,20.2770193 C11.656109,20.4101194 12.2853098,20.5432196 12.9871106,20.5432196 L13.6647114,20.5432196 C13.6889114,20.5432196 13.7373114,20.5432196 13.7857115,20.5311196 C14.8384127,22.7333221 17.2463155,24.1369238 19.9688187,24.1369238 C20.6222195,24.1369238 21.3603203,23.9917236 22.0500211,23.8465234 L23.8166232,24.8024246 L23.8650232,24.8145246 C23.8771232,24.8145246 23.9134233,24.8266246 23.9376233,24.8387246 C23.9860234,24.8629246 24.0344234,24.8871247 24.0949235,24.8871247 C24.1796236,24.8871247 24.3611238,24.8871247 24.4579239,24.7782245 C24.6515241,24.5846243 24.7120242,24.3910241 24.6273241,24.2337239 L24.1917236,22.7938222 C25.8494255,21.4507207 26.7448266,19.8656188 26.7448266,18.341017 L26.7448266,18.341017 Z M13.350111,18.268417 C13.350111,18.6072173 13.4106111,18.9581178 13.4832112,19.2969181 L12.9992106,19.2969181 C12.3216098,19.2969181 11.7650092,19.175918 11.1600084,19.0307178 L10.5913078,18.9218177 C10.5066077,18.9218177 10.3372075,18.9218177 10.2404074,19.0065178 L8.89730582,19.6478186 L9.18770615,18.8976177 C9.27240625,18.7161175 9.19980617,18.4499172 9.00620594,18.2563169 C7.26380391,17.0947156 6.34420284,15.5701138 6.34420284,13.8398118 C6.34420284,10.7543082 9.33290632,8.23750528 12.9992106,8.23750528 C16.1573143,8.23750528 18.9766175,10.0888074 19.6300183,12.5572103 C16.1573143,12.6782104 13.350111,15.2313134 13.350111,18.268417 L13.350111,18.268417 Z M23.3568226,22.0315213 C23.1874224,22.2009215 23.1027223,22.4550218 23.1027223,22.624422 L23.2600225,23.1810227 L22.4130215,22.6970221 L22.3888215,22.6849221 L22.3646215,22.6849221 C22.3525215,22.6849221 22.3162214,22.6728221 22.2920214,22.6607221 C22.2436213,22.636522 22.1952213,22.612322 22.1347212,22.612322 L22.0379211,22.612322 C21.8685209,22.648622 21.6991207,22.6970221 21.5297205,22.7333221 C21.0336199,22.8543223 20.5254193,22.9874224 20.0293188,22.9874224 C16.9438152,22.9874224 14.4270122,20.88202 14.4270122,18.280517 C14.4270122,15.691114 16.9438152,13.5736115 20.0293188,13.5736115 C23.0664223,13.5736115 25.6316253,15.727414 25.6316253,18.280517 C25.6558253,19.5026184 24.8451244,20.84572 23.3568226,22.0315213 L23.3568226,22.0315213 Z M18.1054165,16.0178143 C17.7303161,16.0178143 17.3552157,16.3929148 17.3552157,16.7680152 C17.3552157,17.1431156 17.7303161,17.5182161 18.1054165,17.5182161 C18.6257171,17.5182161 19.0008176,17.1431156 19.0008176,16.7680152 C19.0008176,16.3929148 18.6257171,16.0178143 18.1054165,16.0178143 Z M22.0016211,16.0178143 C21.6265206,16.0178143 21.2514202,16.3929148 21.2514202,16.7680152 C21.2514202,17.1431156 21.6265206,17.5182161 22.0016211,17.5182161 C22.5219217,17.5182161 22.8970221,17.1431156 22.8970221,16.7680152 C22.8970221,16.3929148 22.5945218,16.0178143 22.0016211,16.0178143 Z" id="形状" fill="#FFFFFF" fill-rule="nonzero"></path>
    </g>
</svg>