<?xml version="1.0" encoding="UTF-8"?>
<svg width="24px" height="24px" viewBox="0 0 24 24" version="1.1" xmlns="http://www.w3.org/2000/svg" xmlns:xlink="http://www.w3.org/1999/xlink">
    <!-- Generator: Sketch 62 (91390) - https://sketch.com -->
    <title>icon/24px/新建vpn</title>
    <desc>Created with Sketch.</desc>
    <g id="icon/24px/新建vpn" stroke="none" stroke-width="1" fill="none" fill-rule="evenodd">
        <rect id="矩形" stroke-opacity="0.3" stroke="#69BDFA" stroke-width="0.5" fill-opacity="0.2" fill="#69BDFA" x="1.25" y="1.25" width="21.5" height="21.5" rx="4"></rect>
        <g id="vpn" transform="translate(4.000000, 7.000000)" fill="#69BDFA">
            <path d="M5.7,0.00555555 L9.96666667,0.00555555 L7.83333333,2.13888888 L5.7,0.00555555 Z M6.77875555,6.87417778 C6.25830309,7.44995855 6.29557958,8.33667984 6.86252034,8.86674816 C7.4294611,9.39681648 8.31668413,9.37446752 8.85621819,8.81652733 C9.39575225,8.25858715 9.38833714,7.37111365 8.83955555,6.82226667 L9.84435555,5.81675555 C10.948308,6.92074157 10.9560882,8.70820675 9.86178794,9.82176101 C8.76748764,10.9353153 6.98015863,10.9587096 5.85708758,9.87417855 C4.73401653,8.78964748 4.69500981,7.00259103 5.76968888,5.87008888 L5.76684445,5.86653333 L10.7951111,0.838977783 L10.7979556,0.841111117 C11.6108031,0.0265794422 12.8343448,-0.217954324 13.8978264,0.22157924 C14.961308,0.661112805 15.6551954,1.69811392 15.6558064,2.84884523 C15.6564166,3.99957653 14.96363,5.03731341 13.9006154,5.47797529 C12.8376008,5.91863717 11.6138003,5.67540196 10.8000889,4.86173333 L11.8056,3.85551112 C12.2123189,4.26235287 12.8240757,4.38411089 13.3555765,4.16400308 C13.8870772,3.94389527 14.233637,3.42527427 14.233637,2.85 C14.233637,2.27472573 13.8870772,1.75610473 13.3555765,1.53599692 C12.8240757,1.31588911 12.2123189,1.43764713 11.8056,1.84448888 L6.77804445,6.87417778 L6.77875555,6.87417778 Z M3.86106667,1.84448888 C3.45434775,1.43764713 2.84259093,1.31588911 2.31109018,1.53599692 C1.77958943,1.75610473 1.43302964,2.27472573 1.43302964,2.85 C1.43302964,3.42527427 1.77958943,3.94389527 2.31109018,4.16400308 C2.84259093,4.38411089 3.45434775,4.26235287 3.86106667,3.85551112 L4.86657778,4.86102222 C4.05286636,5.67469084 2.82906585,5.91792605 1.76605126,5.47726418 C0.703036665,5.0366023 0.0102500924,3.99886542 0.0108602646,2.84813411 C0.0114712434,1.6974028 0.705358667,0.660401688 1.76884029,0.220868124 C2.83232191,-0.218665441 4.05586361,0.0258683255 4.86871112,0.8404 L4.87155555,0.838266667 L6.83137778,2.7988 L5.82302222,3.80715555 L3.86106667,1.84448888 Z" id="形状"></path>
        </g>
    </g>
</svg>