<?xml version="1.0" encoding="UTF-8"?>
<svg width="100px" height="87px" viewBox="0 0 100 87" version="1.1" xmlns="http://www.w3.org/2000/svg" xmlns:xlink="http://www.w3.org/1999/xlink">
    <!-- Generator: Sketch 62 (91390) - https://sketch.com -->
    <title>icon/xr-产品使用</title>
    <desc>Created with Sketch.</desc>
    <defs>
        <linearGradient x1="-56.2403957%" y1="50%" x2="100%" y2="50%" id="linearGradient-1">
            <stop stop-color="#4559E6" stop-opacity="0.900786713" offset="0%"></stop>
            <stop stop-color="#4E5ECE" stop-opacity="0.15" offset="100%"></stop>
        </linearGradient>
        <linearGradient x1="-56.2403957%" y1="50%" x2="215.763629%" y2="50%" id="linearGradient-2">
            <stop stop-color="#4E5ECE" stop-opacity="0.545154065" offset="0%"></stop>
            <stop stop-color="#4E5ECE" stop-opacity="0" offset="100%"></stop>
        </linearGradient>
        <linearGradient x1="50%" y1="0%" x2="50%" y2="100%" id="linearGradient-3">
            <stop stop-color="#4B61FA" offset="0%"></stop>
            <stop stop-color="#4A60F7" stop-opacity="0.15" offset="100%"></stop>
        </linearGradient>
        <linearGradient x1="50%" y1="0%" x2="50%" y2="100%" id="linearGradient-4">
            <stop stop-color="#4B61FA" offset="0%"></stop>
            <stop stop-color="#4A60F7" stop-opacity="0.15" offset="100%"></stop>
        </linearGradient>
        <linearGradient x1="100%" y1="50%" x2="0%" y2="50%" id="linearGradient-5">
            <stop stop-color="#FF5B4C" stop-opacity="0.15" offset="0%"></stop>
            <stop stop-color="#FF5B4C" stop-opacity="0.299228638" offset="26.0517713%"></stop>
            <stop stop-color="#FF5B4C" stop-opacity="0.412265473" offset="48.4643183%"></stop>
            <stop stop-color="#FF5B4C" stop-opacity="0.7" offset="100%"></stop>
        </linearGradient>
        <linearGradient x1="100%" y1="50%" x2="-26.8674256%" y2="50%" id="linearGradient-6">
            <stop stop-color="#FFFFFF" stop-opacity="0.8" offset="0%"></stop>
            <stop stop-color="#FFFFFF" stop-opacity="0.5" offset="26.0517713%"></stop>
            <stop stop-color="#FFFFFF" stop-opacity="0.3" offset="48.4643183%"></stop>
            <stop stop-color="#FFFFFF" stop-opacity="0" offset="100%"></stop>
        </linearGradient>
        <linearGradient x1="87.3144027%" y1="50%" x2="-2.22044605e-14%" y2="50%" id="linearGradient-7">
            <stop stop-color="#FF5B4C" stop-opacity="0.15" offset="0%"></stop>
            <stop stop-color="#FF5B4C" stop-opacity="0.299228638" offset="33.9128751%"></stop>
            <stop stop-color="#FF5B4C" stop-opacity="0.412265473" offset="62.9074446%"></stop>
            <stop stop-color="#FF5B4C" stop-opacity="0.7" offset="100%"></stop>
        </linearGradient>
    </defs>
    <g id="icon/xr-产品使用" stroke="none" stroke-width="1" fill="none" fill-rule="evenodd">
        <g id="编组-9">
            <rect id="矩形备份-3" stroke="#E6E9F5" fill="#FFFFFF" opacity="0" x="0.5" y="0.5" width="99" height="86" rx="2"></rect>
            <g id="编组-6" transform="translate(33.000000, 13.000000)">
                <g id="编组-4">
                    <path d="M15.4470857,11.204445 C12.5753118,11.9739346 10.7510579,14.7014306 11.0257807,17.5657568 L10.2308409,17.7785145 C8.02714091,18.3689942 6.69221814,20.5833773 7.16857253,22.7892061 L7.218566,22.9959277 L8.259,26.88 L8,27 L3,27 L3,11 L16.9173753,10.9991375 C16.4312482,11.0061898 15.938117,11.0728736 15.4470857,11.204445 Z M16.6460982,22.9911835 L11.021,25.599 L10.1577545,22.3740187 L10.1286385,22.2402406 C10.0162249,21.571469 10.3960529,20.9135876 11.0314329,20.6765548 L11.1618462,20.634881 L12.0514953,20.395869 C13.0961637,21.9181639 14.799351,22.8823726 16.6460982,22.9911835 Z M23.0014376,17.0285431 L23,20.0434783 L21.7994255,20.601194 C22.5611274,19.5846177 22.9960027,18.3344899 23.0014376,17.0285431 Z M23,11 L23.001012,16.9283769 C22.9948127,16.4386892 22.928119,15.9418217 22.795555,15.4470857 C22.0840492,12.7917103 19.6985048,11.031934 17.078645,10.9989817 L23,11 Z" id="形状结合" fill="url(#linearGradient-1)"></path>
                    <polygon id="矩形备份-14" fill="url(#linearGradient-2)" points="-1.27897692e-13 11 3 11 3 27 -1.27897692e-13 27"></polygon>
                    <g id="编组-5" transform="translate(18.742383, 19.638958) rotate(-15.000000) translate(-18.742383, -19.638958) translate(6.742383, 2.638958)">
                        <rect id="矩形" fill="url(#linearGradient-3)" x="11" y="0" width="10" height="34"></rect>
                        <rect id="矩形备份-11" fill="url(#linearGradient-4)" transform="translate(21.500000, 17.000000) scale(1, -1) translate(-21.500000, -17.000000) " x="19" y="0" width="5" height="34"></rect>
                        <circle id="椭圆形" fill="url(#linearGradient-5)" cx="11" cy="14" r="6"></circle>
                        <circle id="椭圆形" fill="url(#linearGradient-6)" cx="11" cy="14" r="6"></circle>
                        <path d="M11,13 L11,16 L4.42,16 C3.68188768,16 3.07530858,16.5631607 3.00650036,17.2832445 L3,17.42 L3,26.58 C3,27.3642443 3.63575566,28 4.42,28 L4.42,28 L11,28 L11,31 L4.26,31 C1.90726697,31 2.88126698e-16,29.092733 0,26.74 L0,17.26 C-2.88126698e-16,14.907267 1.90726697,13 4.26,13 L11,13 Z" id="形状结合" fill="url(#linearGradient-7)"></path>
                    </g>
                </g>
            </g>
        </g>
    </g>
</svg>