<?xml version="1.0" encoding="UTF-8"?>
<svg width="100px" height="87px" viewBox="0 0 100 87" version="1.1" xmlns="http://www.w3.org/2000/svg" xmlns:xlink="http://www.w3.org/1999/xlink">
    <!-- Generator: Sketch 62 (91390) - https://sketch.com -->
    <title>icon/xr-服务中心</title>
    <desc>Created with Sketch.</desc>
    <defs>
        <linearGradient x1="-56.2403957%" y1="50%" x2="100%" y2="50%" id="linearGradient-1">
            <stop stop-color="#4559E6" stop-opacity="0.900786713" offset="0%"></stop>
            <stop stop-color="#4E5ECE" stop-opacity="0.15" offset="100%"></stop>
        </linearGradient>
        <linearGradient x1="-56.2403957%" y1="50%" x2="215.763629%" y2="50%" id="linearGradient-2">
            <stop stop-color="#4E5ECE" stop-opacity="0.545154065" offset="0%"></stop>
            <stop stop-color="#4E5ECE" stop-opacity="0" offset="100%"></stop>
        </linearGradient>
        <linearGradient x1="50%" y1="0%" x2="50%" y2="100%" id="linearGradient-3">
            <stop stop-color="#4559E6" offset="0%"></stop>
            <stop stop-color="#4559E6" stop-opacity="0.15" offset="100%"></stop>
        </linearGradient>
        <linearGradient x1="50%" y1="0%" x2="50%" y2="100%" id="linearGradient-4">
            <stop stop-color="#4559E6" offset="0%"></stop>
            <stop stop-color="#4559E6" stop-opacity="0.15" offset="100%"></stop>
        </linearGradient>
        <linearGradient x1="50%" y1="0%" x2="50%" y2="100%" id="linearGradient-5">
            <stop stop-color="#4559E6" offset="0%"></stop>
            <stop stop-color="#4559E6" stop-opacity="0.15" offset="100%"></stop>
        </linearGradient>
        <linearGradient x1="-1.11022302e-14%" y1="50%" x2="100%" y2="50%" id="linearGradient-6">
            <stop stop-color="#4559E6" offset="0%"></stop>
            <stop stop-color="#4559E6" stop-opacity="0.15" offset="100%"></stop>
        </linearGradient>
        <linearGradient x1="50%" y1="0%" x2="50%" y2="100%" id="linearGradient-7">
            <stop stop-color="#FF5B4C" stop-opacity="0.7" offset="0%"></stop>
            <stop stop-color="#FF5B4C" stop-opacity="0.412265473" offset="51.5356817%"></stop>
            <stop stop-color="#FF5B4C" stop-opacity="0.299228638" offset="73.9482287%"></stop>
            <stop stop-color="#FF5B4C" stop-opacity="0.05" offset="100%"></stop>
        </linearGradient>
        <linearGradient x1="50%" y1="0%" x2="50%" y2="100%" id="linearGradient-8">
            <stop stop-color="#4559E6" offset="0%"></stop>
            <stop stop-color="#4559E6" stop-opacity="0.15" offset="100%"></stop>
        </linearGradient>
    </defs>
    <g id="icon/xr-服务中心" stroke="none" stroke-width="1" fill="none" fill-rule="evenodd">
        <g id="编组-2备份-4">
            <rect id="矩形备份-3" stroke="#E6E9F5" fill="#FFFFFF" opacity="0" x="0.5" y="0.5" width="99" height="86" rx="2"></rect>
            <g id="编组-6" transform="translate(31.000000, 13.000000)">
                <g id="编组-4">
                    <polygon id="矩形备份-13" fill-opacity="0.5" fill="url(#linearGradient-1)" points="3 11 23 11 23 20.0434783 8 27 3 27"></polygon>
                    <polygon id="矩形备份-14" fill="url(#linearGradient-2)" points="-1.27897692e-13 11 3 11 3 27 -1.27897692e-13 27"></polygon>
                    <g id="编组-5" transform="translate(18.742383, 19.638958) rotate(-15.000000) translate(-18.742383, -19.638958) translate(6.742383, 2.638958)">
                        <rect id="矩形" fill-opacity="0.8" fill="url(#linearGradient-3)" x="11" y="0" width="10" height="34"></rect>
                        <rect id="矩形备份-11" fill-opacity="0.8" fill="url(#linearGradient-4)" transform="translate(21.500000, 17.000000) scale(1, -1) translate(-21.500000, -17.000000) " x="19" y="0" width="5" height="34"></rect>
                        <circle id="椭圆形" fill-opacity="0.5" fill="url(#linearGradient-5)" cx="11" cy="14" r="6"></circle>
                        <path d="M11,13 L11,16 L4.42,16 C3.68188768,16 3.07530858,16.5631607 3.00650036,17.2832445 L3,17.42 L3,26.58 C3,27.3642443 3.63575566,28 4.42,28 L4.42,28 L11,28 L11,31 L4.26,31 C1.90726697,31 2.88126698e-16,29.092733 0,26.74 L0,17.26 C-2.88126698e-16,14.907267 1.90726697,13 4.26,13 L11,13 Z" id="形状结合" fill-opacity="0.5" fill="url(#linearGradient-6)"></path>
                    </g>
                </g>
                <g id="编组-13" transform="translate(23.000000, 24.000000)">
                    <polygon id="多边形" fill="#FFFFFF" points="11 0 20.5262794 5.5 20.5262794 16.5 11 22 1.47372056 16.5 1.47372056 5.5"></polygon>
                    <polygon id="形状结合" fill="url(#linearGradient-7)" points="11 2 18.7942286 6.5 18.7942286 15.5 11 20 3.20577137 15.5 3.20577137 6.5"></polygon>
                    <polygon id="路径-3" fill-opacity="0.8" fill="url(#linearGradient-8)" points="18.7942286 6.5 11 11 11 20 18.7942286 15.5"></polygon>
                    <polygon id="路径-3" fill-opacity="0.8" fill="url(#linearGradient-8)" points="18.7942286 6.5 11 11 11 20 18.7942286 15.5"></polygon>
                </g>
            </g>
        </g>
    </g>
</svg>